<svg width="54" height="54" viewBox="0 0 54 54" fill="none" xmlns="http://www.w3.org/2000/svg">
<circle cx="27" cy="27" r="27" fill="white"/>
<path d="M35.1667 17.5H18.8333C17.5447 17.5 16.5 18.5074 16.5 19.75V35.5C16.5 36.7426 17.5447 37.75 18.8333 37.75H35.1667C36.4553 37.75 37.5 36.7426 37.5 35.5V19.75C37.5 18.5074 36.4553 17.5 35.1667 17.5Z" stroke="#53535A" stroke-width="2" stroke-linecap="round" stroke-linejoin="round"/>
<path d="M31.6665 15.25V19.75" stroke="#53535A" stroke-width="2" stroke-linecap="round" stroke-linejoin="round"/>
<path d="M22.3335 15.25V19.75" stroke="#53535A" stroke-width="2" stroke-linecap="round" stroke-linejoin="round"/>
<path d="M16.5 24.25H37.5" stroke="#53535A" stroke-width="2" stroke-linecap="round" stroke-linejoin="round"/>
<path d="M22.3335 28.75H22.3452" stroke="#53535A" stroke-width="2" stroke-linecap="round" stroke-linejoin="round"/>
<path d="M27 28.75H27.0117" stroke="#53535A" stroke-width="2" stroke-linecap="round" stroke-linejoin="round"/>
<path d="M31.6665 28.75H31.6782" stroke="#53535A" stroke-width="2" stroke-linecap="round" stroke-linejoin="round"/>
<path d="M22.3335 33.25H22.3452" stroke="#53535A" stroke-width="2" stroke-linecap="round" stroke-linejoin="round"/>
<path d="M27 33.25H27.0117" stroke="#53535A" stroke-width="2" stroke-linecap="round" stroke-linejoin="round"/>
<path d="M31.6665 33.25H31.6782" stroke="#53535A" stroke-width="2" stroke-linecap="round" stroke-linejoin="round"/>
</svg>
