<svg width="1285" height="490" viewBox="0 0 1285 490" fill="none" xmlns="http://www.w3.org/2000/svg">
<g filter="url(#filter0_i_190_6421)">
<path d="M863.185 395.078C864.215 401.282 864.97 411.646 861.857 424.35C861.674 425.14 861.491 425.944 861.307 426.761C861.124 427.579 860.941 428.397 860.598 429.215C859.98 430.85 859.362 432.528 858.721 434.235C857.645 437.675 855.584 441.101 853.707 444.669C853.226 445.557 852.745 446.46 852.265 447.362C851.692 448.25 851.12 449.139 850.525 450.041C849.311 451.832 847.984 453.622 846.564 455.413C843.703 458.995 840.383 462.562 836.469 466.003C828.708 472.869 818.383 479.327 805.54 483.755C792.514 488.267 777.222 490.185 762.456 489.113C755.061 488.577 747.759 487.294 741.097 485.165C734.435 483.064 728.46 480.032 723.881 476.507C719.211 472.982 716.052 468.78 714.358 464.564C712.618 460.334 712.504 456.118 713.236 452.212C714.083 447.686 716.167 443.357 719.097 439.339C722.004 435.32 725.667 431.541 730.017 428.115C738.67 421.262 749.705 415.509 762.776 411.759C766.027 410.814 769.461 410.038 772.895 409.376C776.237 408.868 779.557 408.205 782.945 407.839C786.333 407.444 789.721 407.021 793.109 406.824C794.804 406.711 796.52 406.542 798.215 406.471L803.32 406.274C816.918 405.808 830.265 406.542 843.291 407.613C869.366 409.785 894.182 413.592 918.974 414.804C943.859 416.045 969.041 415.65 993.789 413.366C1043.35 408.868 1091.29 397.672 1133.8 381.232C1155.02 372.983 1175.1 363.55 1193.16 352.805C1211.27 342.103 1227.78 330.329 1241.74 317.484C1246.21 313.508 1250.99 308.657 1255.71 303.652C1257.95 301.114 1260.35 298.59 1262.48 296.052C1264.61 293.499 1266.67 291.018 1268.64 288.663C1272.28 283.883 1275.74 279.709 1278.12 276.72C1280.64 273.773 1282.65 272.123 1283.8 272.532C1284.99 272.955 1285.28 274.633 1284.73 277.453C1284.46 278.863 1283.98 280.555 1283.29 282.501C1282.47 284.419 1281.41 286.604 1280.16 289.03C1274.91 298.66 1265.07 312.013 1248.66 326.367C1208.82 361.068 1152.94 388.423 1089.89 405.244C1058.42 413.761 1025.01 419.486 991.018 422.362C974.009 423.814 956.839 424.364 939.693 424.223C931.108 424.223 922.546 423.814 914.007 423.406L901.233 422.531C896.997 422.179 892.785 421.812 888.596 421.389C864.123 418.992 840.177 415.763 816.414 415.411C813.438 415.312 810.508 415.411 807.555 415.425C804.602 415.467 801.694 415.65 798.764 415.749C792.972 416.158 787.203 416.68 781.617 417.596L777.428 418.273C776.054 418.513 774.795 418.809 773.49 419.077C770.926 419.711 768.362 420.388 765.936 421.22C761.014 422.856 756.389 424.872 752.154 427.17C743.707 431.781 736.839 437.59 732.489 443.893C728.208 450.196 726.651 457.148 729.605 463.253C732.489 469.33 739.929 474.463 749.476 477.184C759.022 479.976 770.491 480.568 781.251 479.271C786.631 478.622 791.85 477.508 796.658 475.943C801.557 474.336 806.135 472.334 810.325 470.035C818.727 465.41 825.572 459.587 830.997 453.256C833.699 450.083 836.102 446.798 838.094 443.4L840.841 438.225L842.215 435.645C842.65 434.784 842.902 433.882 843.268 432.994L845.259 427.692L845.74 426.367L846.038 425.013L846.656 422.306C847.022 420.501 847.572 418.71 847.801 416.905L848.304 411.448L848.556 408.727C848.579 407.811 848.51 406.908 848.487 405.992L848.281 400.521C848.258 398.702 847.778 396.883 847.549 395.064C847.228 393.245 847.045 391.412 846.587 389.607C844.71 382.374 842.375 375.154 838.689 368.146C831.638 354.088 821.52 340.566 808.631 328.087C797.139 316.835 783.609 306.486 768.545 296.855C753.528 287.225 737.228 278.327 720.127 269.98C685.925 253.285 648.77 238.79 611.523 224.239C574.253 209.715 536.778 194.896 502.026 177.623C484.674 168.994 467.985 159.744 452.578 149.676C437.194 139.609 423.069 128.709 411.142 116.879C399.878 105.838 390.309 93.8673 384.471 81.0078C381.61 74.5639 379.733 67.9086 379.275 61.1264C378.794 54.3441 379.778 47.4773 382.709 40.7796C385.662 34.0115 390.698 27.6804 397.314 22.0685C403.907 16.4425 412.24 11.5638 421.901 7.78489C431.539 4.04831 442.688 1.36925 454.478 0.77704C466.291 0.213027 478.149 1.53846 488.794 4.64052C499.485 7.71439 508.459 12.579 515.533 18.0217C522.653 23.4926 527.895 29.5981 532.062 35.8586C540.212 48.4361 544.012 61.6763 544.905 74.9446C545.477 88.1002 544.264 101.087 541.265 114.045C538.312 126.975 533.458 139.764 526.705 152.186C515.007 173.59 497.104 194.05 471.922 210.928C465.672 215.158 458.942 219.12 451.799 222.8C448.297 224.676 444.542 226.382 440.834 228.13C437.011 229.766 433.233 231.458 429.25 232.939C425.358 234.518 421.26 235.871 417.231 237.296C413.088 238.593 409.013 239.961 404.755 241.103C400.565 242.343 396.238 243.373 391.957 244.459C387.608 245.431 383.281 246.461 378.863 247.279C343.562 254.23 306.59 255.993 270.442 255.584C234.18 255.161 198.398 252.58 162.868 250.028C146.111 248.858 127.728 247.561 109.024 246.856C90.2978 246.122 71.1593 245.883 53.0053 246.165C37.9875 246.362 17.9791 247.138 -1.66296 249.126C-21.3279 251.015 -40.4206 254.258 -54.1564 257.417C-66.0378 260.096 -78.0107 263.522 -88.3354 267.654C-111.984 277.256 -123.247 285.913 -129.428 289.481C-135.472 293.161 -136.571 292.089 -132.862 286.167C-132.038 284.856 -132.656 284.673 -132.496 283.883C-132.404 283.488 -132.107 282.966 -131.26 282.078C-130.413 281.204 -129.085 279.935 -126.658 278.271C-126.269 277.989 -125.491 277.425 -125.124 277.171C-110.839 266.681 -91.8152 258.488 -71.1887 252.721C-50.4935 246.94 -28.3103 243.429 -6.0126 241.032C21.4131 238.113 49.205 237.225 76.8139 237.521C90.6183 237.69 104.4 238.156 118.136 238.875C131.894 239.594 145.493 240.567 159.068 241.497C186.219 243.373 213.255 245.276 240.292 246.292C267.306 247.293 294.365 247.476 320.989 245.629C347.568 243.796 373.758 239.961 397.772 233.065C409.768 229.639 421.237 225.522 431.86 220.714C442.459 215.877 452.257 210.364 461.14 204.329C478.996 192.273 492.869 178.046 503.492 163.001C513.977 147.886 521.119 131.868 525.263 115.568C527.758 105.556 529.246 95.4465 529.567 85.3084C529.704 82.7844 529.635 80.2323 529.635 77.7083C529.567 75.2126 529.406 72.7309 529.086 70.2351C528.491 65.2577 527.323 60.3085 525.743 55.4439C522.424 45.7429 517.159 36.2252 508.734 28.1175C504.568 24.0566 499.554 20.4188 493.762 17.4718C487.97 14.5107 481.331 12.3393 474.211 11.0562C467.023 9.81534 459.583 9.51923 452.28 10.196C444.977 10.8729 437.858 12.5367 431.333 14.9196C418.261 19.6714 407.616 27.2151 401.252 35.8022C394.842 44.3047 392.988 54.189 394.292 63.8195C395.597 73.5064 400.245 83.0664 406.586 92.1752C410.111 97.1667 414.118 102.031 418.742 106.727C421.1 109.067 423.298 111.464 425.793 113.749L433.348 120.587C443.833 129.555 455.577 138.015 468.099 146.165L467.664 145.883C494.266 162.677 524.805 177.087 556.374 190.581C616.17 216.075 682.88 238.212 741.051 267.992C770.033 282.811 796.795 299.591 817.559 318.936C838.392 338.127 853.135 359.588 859.934 381.697C860.437 383.445 861.056 385.49 861.719 387.746C862.109 388.874 862.315 390.058 862.521 391.299C862.75 392.498 862.956 393.781 863.185 395.078Z" fill="#FFEFD1"/>
</g>
<defs>
<filter id="filter0_i_190_6421" x="-135" y="0.650391" width="1420" height="492.753" filterUnits="userSpaceOnUse" color-interpolation-filters="sRGB">
<feFlood flood-opacity="0" result="BackgroundImageFix"/>
<feBlend mode="normal" in="SourceGraphic" in2="BackgroundImageFix" result="shape"/>
<feColorMatrix in="SourceAlpha" type="matrix" values="0 0 0 0 0 0 0 0 0 0 0 0 0 0 0 0 0 0 127 0" result="hardAlpha"/>
<feOffset dy="4"/>
<feGaussianBlur stdDeviation="2"/>
<feComposite in2="hardAlpha" operator="arithmetic" k2="-1" k3="1"/>
<feColorMatrix type="matrix" values="0 0 0 0 0 0 0 0 0 0 0 0 0 0 0 0 0 0 0.25 0"/>
<feBlend mode="normal" in2="shape" result="effect1_innerShadow_190_6421"/>
</filter>
</defs>
</svg>
