<svg width="37" height="37" viewBox="0 0 37 37" fill="none" xmlns="http://www.w3.org/2000/svg">
<path d="M30.8332 15.4163C30.8332 24.6663 18.4998 33.9163 18.4998 33.9163C18.4998 33.9163 6.1665 24.6663 6.1665 15.4163C6.1665 12.1453 7.46591 9.00831 9.77885 6.69536C12.0918 4.38241 15.2288 3.08301 18.4998 3.08301C21.7708 3.08301 24.9079 4.38241 27.2208 6.69536C29.5338 9.00831 30.8332 12.1453 30.8332 15.4163Z" stroke="#424ED3" stroke-width="2" stroke-linecap="round" stroke-linejoin="round"/>
<path d="M18.5 20.042C21.0543 20.042 23.125 17.9713 23.125 15.417C23.125 12.8627 21.0543 10.792 18.5 10.792C15.9457 10.792 13.875 12.8627 13.875 15.417C13.875 17.9713 15.9457 20.042 18.5 20.042Z" stroke="#424ED3" stroke-width="2" stroke-linecap="round" stroke-linejoin="round"/>
</svg>
