<svg width="19" height="19" viewBox="0 0 19 19" fill="none" xmlns="http://www.w3.org/2000/svg">
<g clip-path="url(#clip0_190_6823)">
<path d="M17.4166 13.3948V15.7698C17.4175 15.9902 17.3724 16.2085 17.284 16.4105C17.1957 16.6125 17.0662 16.7938 16.9037 16.9429C16.7412 17.0919 16.5494 17.2054 16.3406 17.2761C16.1317 17.3467 15.9104 17.3729 15.6908 17.3531C13.2547 17.0884 10.9147 16.2559 8.85872 14.9227C6.94591 13.7072 5.32419 12.0855 4.10872 10.1727C2.77078 8.10737 1.93816 5.75596 1.6783 3.30892C1.65852 3.09 1.68454 2.86935 1.7547 2.66104C1.82486 2.45272 1.93763 2.2613 2.08582 2.09895C2.23402 1.93661 2.4144 1.8069 2.61547 1.71808C2.81654 1.62927 3.0339 1.58329 3.25372 1.58308H5.62872C6.01292 1.5793 6.38539 1.71536 6.6767 1.96588C6.96801 2.21641 7.15828 2.56431 7.21205 2.94475C7.31229 3.7048 7.4982 4.45108 7.76622 5.16933C7.87273 5.45269 7.89578 5.76064 7.83264 6.0567C7.7695 6.35275 7.62282 6.62451 7.40997 6.83975L6.40455 7.84517C7.53153 9.82714 9.17258 11.4682 11.1546 12.5952L12.16 11.5898C12.3752 11.3769 12.647 11.2302 12.943 11.1671C13.2391 11.1039 13.547 11.127 13.8304 11.2335C14.5486 11.5015 15.2949 11.6874 16.055 11.7877C16.4395 11.8419 16.7907 12.0356 17.0418 12.3319C17.2929 12.6282 17.4263 13.0065 17.4166 13.3948Z" stroke="white" stroke-width="2" stroke-linecap="round" stroke-linejoin="round"/>
</g>
<defs>
<clipPath id="clip0_190_6823">
<rect width="19" height="19" fill="white"/>
</clipPath>
</defs>
</svg>
