<svg width="35" height="35" viewBox="0 0 35 35" fill="none" xmlns="http://www.w3.org/2000/svg">
<circle cx="17.5" cy="17.5" r="17.5" fill="#FACC14"/>
<g clip-path="url(#clip0_575_6473)">
<path d="M25.4166 21.3948V23.7698C25.4175 23.9902 25.3724 24.2085 25.284 24.4105C25.1957 24.6125 25.0662 24.7938 24.9037 24.9429C24.7412 25.0919 24.5494 25.2054 24.3406 25.2761C24.1317 25.3467 23.9104 25.3729 23.6908 25.3531C21.2547 25.0884 18.9147 24.2559 16.8587 22.9227C14.9459 21.7072 13.3242 20.0855 12.1087 18.1727C10.7708 16.1074 9.93816 13.756 9.6783 11.3089C9.65852 11.09 9.68454 10.8694 9.7547 10.661C9.82486 10.4527 9.93763 10.2613 10.0858 10.099C10.234 9.93661 10.4144 9.8069 10.6155 9.71808C10.8165 9.62927 11.0339 9.58329 11.2537 9.58308H13.6287C14.0129 9.5793 14.3854 9.71536 14.6767 9.96588C14.968 10.2164 15.1583 10.5643 15.2121 10.9448C15.3123 11.7048 15.4982 12.4511 15.7662 13.1693C15.8727 13.4527 15.8958 13.7606 15.8326 14.0567C15.7695 14.3528 15.6228 14.6245 15.41 14.8398L14.4046 15.8452C15.5315 17.8271 17.1726 19.4682 19.1546 20.5952L20.16 19.5898C20.3752 19.3769 20.647 19.2302 20.943 19.1671C21.2391 19.1039 21.547 19.127 21.8304 19.2335C22.5486 19.5015 23.2949 19.6874 24.055 19.7877C24.4395 19.8419 24.7907 20.0356 25.0418 20.3319C25.2929 20.6282 25.4263 21.0065 25.4166 21.3948Z" stroke="white" stroke-width="2" stroke-linecap="round" stroke-linejoin="round"/>
</g>
<defs>
<clipPath id="clip0_575_6473">
<rect width="19" height="19" fill="white" transform="translate(8 8)"/>
</clipPath>
</defs>
</svg>
