<svg width="21" height="21" viewBox="0 0 21 21" fill="none" xmlns="http://www.w3.org/2000/svg">
<g id="icon/printer" clip-path="url(#clip0_190_6836)">
<path id="Vector" d="M5.25 7.875V1.75H15.75V7.875" stroke="white" stroke-width="2" stroke-linecap="round" stroke-linejoin="round"/>
<path id="Vector_2" d="M5.25 15.75H3.5C3.03587 15.75 2.59075 15.5656 2.26256 15.2374C1.93437 14.9092 1.75 14.4641 1.75 14V9.625C1.75 9.16087 1.93437 8.71575 2.26256 8.38756C2.59075 8.05937 3.03587 7.875 3.5 7.875H17.5C17.9641 7.875 18.4092 8.05937 18.7374 8.38756C19.0656 8.71575 19.25 9.16087 19.25 9.625V14C19.25 14.4641 19.0656 14.9092 18.7374 15.2374C18.4092 15.5656 17.9641 15.75 17.5 15.75H15.75" stroke="white" stroke-width="2" stroke-linecap="round" stroke-linejoin="round"/>
<path id="Vector_3" d="M15.75 12.25H5.25V19.25H15.75V12.25Z" stroke="white" stroke-width="2" stroke-linecap="round" stroke-linejoin="round"/>
</g>
<defs>
<clipPath id="clip0_190_6836">
<rect width="21" height="21" fill="white"/>
</clipPath>
</defs>
</svg>
