<svg width="22" height="22" viewBox="0 0 22 22" fill="none" xmlns="http://www.w3.org/2000/svg">
<path fill-rule="evenodd" clip-rule="evenodd" d="M2 0C0.89544 0 0 0.89544 0 2V20C0 21.1046 0.89544 22 2 22H20C21.1046 22 22 21.1046 22 20V13C22 12.4477 21.5522 12 21 12C20.4478 12 20 12.4477 20 13V20H2V2H9C9.55228 2 10 1.55228 10 1C10 0.44772 9.55228 0 9 0H2ZM21.7072 0.2929C21.803 0.38878 21.8754 0.49928 21.9242 0.61722C21.9722 0.73338 21.9992 0.8606 22 0.994V1V7C22 7.55228 21.5522 8 21 8C20.4478 8 20 7.55228 20 7V3.41422L9.7071 13.7071C9.31658 14.0976 8.68342 14.0976 8.2929 13.7071C7.90236 13.3166 7.90236 12.6834 8.2929 12.2929L18.5858 2H15C14.4477 2 14 1.55228 14 1C14 0.44772 14.4477 0 15 0H20.9998C21.1354 0 21.2648 0.02698 21.3828 0.0758801C21.5008 0.12468 21.6112 0.19702 21.7072 0.2929Z" fill="#61605D"/>
</svg>
