<svg width="1246" height="284" viewBox="0 0 1246 284" fill="none" xmlns="http://www.w3.org/2000/svg">
<g clip-path="url(#clip0_227_8600)">
<rect width="1246" height="284" fill="#3F3E3D"/>
<path d="M955.596 226.43L833.832 79.0905C833.065 78.1614 832.066 77.5289 830.975 77.2808C829.884 77.0327 828.754 77.1814 827.742 77.7061C825.674 78.7833 823.362 79.0909 821.129 78.5859C818.896 78.081 816.852 76.7886 815.282 74.8887C813.712 72.9887 812.693 70.5756 812.368 67.9849C812.043 65.3942 812.428 62.7547 813.468 60.4336C813.973 59.3017 814.159 58.0163 814.002 56.7543C813.844 55.4924 813.351 54.3159 812.59 53.3867L747.63 -25.2176C745.835 -23.2562 743.721 -21.7222 741.408 -20.7032C739.094 -19.6843 736.627 -19.2003 734.148 -19.2791C731.668 -19.3578 729.223 -19.9976 726.955 -21.162C724.686 -22.3265 722.637 -23.9926 720.924 -26.0654L637.097 65.5646C638.811 67.6367 640.153 70.0749 641.049 72.74C641.945 75.4052 642.377 78.2451 642.319 81.0975C642.262 83.9499 641.716 86.7589 640.714 89.3642C639.711 91.9695 638.272 94.32 636.478 96.2815L701.438 174.886C702.204 175.815 703.203 176.448 704.294 176.696C705.385 176.945 706.515 176.796 707.527 176.27C709.595 175.193 711.907 174.885 714.14 175.39C716.373 175.895 718.417 177.188 719.987 179.088C721.557 180.988 722.576 183.401 722.901 185.991C723.226 188.582 722.842 191.222 721.801 193.543C721.296 194.674 721.11 195.96 721.267 197.222C721.424 198.484 721.918 199.661 722.68 200.59L844.437 347.921C846.231 345.96 848.345 344.426 850.658 343.407C852.971 342.388 855.437 341.904 857.917 341.982C860.397 342.061 862.841 342.7 865.109 343.864C867.378 345.028 869.427 346.694 871.14 348.766L954.966 257.136C951.511 252.95 949.636 247.364 949.755 241.606C949.873 235.849 951.974 230.39 955.596 226.43V226.43ZM810.701 78.4698C810.786 78.3648 810.888 78.281 811.003 78.2235C811.117 78.1661 811.24 78.1362 811.365 78.1357C811.49 78.1352 811.614 78.1641 811.729 78.2207C811.844 78.2772 811.947 78.3602 812.034 78.4645C812.12 78.5689 812.187 78.6923 812.23 78.8272C812.273 78.9622 812.292 79.1058 812.285 79.2492C812.278 79.3926 812.246 79.5327 812.191 79.661C812.135 79.7893 812.057 79.903 811.961 79.9951L804.304 88.3656C804.219 88.4706 804.116 88.5545 804.002 88.6119C803.888 88.6694 803.764 88.6993 803.639 88.6998C803.515 88.7003 803.391 88.6714 803.276 88.6148C803.161 88.5583 803.057 88.4752 802.971 88.3709C802.885 88.2666 802.818 88.1432 802.775 88.0082C802.731 87.8733 802.712 87.7297 802.719 87.5863C802.726 87.4429 802.758 87.3027 802.814 87.1745C802.87 87.0462 802.948 86.9325 803.043 86.8404L810.701 78.4698ZM797.586 92.8059C797.67 92.7009 797.773 92.6171 797.887 92.5596C798.002 92.5021 798.125 92.4722 798.25 92.4717C798.375 92.4712 798.498 92.5002 798.613 92.5567C798.728 92.6133 798.832 92.6963 798.918 92.8006C799.005 92.9049 799.071 93.0284 799.115 93.1633C799.158 93.2983 799.177 93.4419 799.17 93.5852C799.163 93.7286 799.131 93.8688 799.075 93.9971C799.02 94.1254 798.942 94.2391 798.846 94.3311L791.188 102.702C791.058 102.844 790.894 102.939 790.716 102.974C790.538 103.009 790.356 102.983 790.191 102.898C790.026 102.814 789.886 102.675 789.789 102.499C789.693 102.324 789.643 102.119 789.648 101.912C789.649 101.774 789.675 101.637 789.723 101.511C789.771 101.385 789.841 101.271 789.928 101.176L797.586 92.8059ZM784.47 107.142C784.555 107.037 784.658 106.953 784.772 106.896C784.886 106.838 785.01 106.808 785.135 106.808C785.259 106.807 785.383 106.836 785.498 106.893C785.613 106.949 785.717 107.032 785.803 107.137C785.889 107.241 785.956 107.364 785.999 107.499C786.043 107.634 786.062 107.778 786.055 107.921C786.048 108.065 786.016 108.205 785.96 108.333C785.904 108.461 785.826 108.575 785.731 108.667L778.073 117.038C777.943 117.181 777.779 117.275 777.601 117.31C777.423 117.345 777.24 117.319 777.075 117.234C776.91 117.15 776.771 117.011 776.674 116.835C776.578 116.66 776.528 116.455 776.533 116.248C776.534 116.11 776.56 115.973 776.608 115.847C776.656 115.721 776.726 115.607 776.813 115.513L784.47 107.142ZM771.355 121.478C771.531 121.286 771.766 121.183 772.008 121.19C772.25 121.198 772.481 121.316 772.648 121.519C772.732 121.619 772.797 121.737 772.839 121.866C772.882 121.995 772.902 122.133 772.898 122.271C772.896 122.409 772.869 122.544 772.821 122.67C772.772 122.796 772.703 122.909 772.616 123.003L764.958 131.374C764.783 131.564 764.549 131.666 764.308 131.659C764.067 131.651 763.837 131.534 763.67 131.333C763.505 131.13 763.415 130.861 763.42 130.583C763.425 130.305 763.525 130.042 763.698 129.849L771.355 121.478ZM758.24 135.814C758.325 135.709 758.428 135.625 758.542 135.568C758.656 135.51 758.779 135.48 758.904 135.48C759.029 135.479 759.153 135.508 759.268 135.565C759.383 135.621 759.487 135.704 759.573 135.809C759.659 135.913 759.726 136.037 759.769 136.172C759.812 136.306 759.831 136.45 759.824 136.593C759.818 136.737 759.785 136.877 759.73 137.005C759.674 137.134 759.596 137.247 759.501 137.339L751.843 145.71C751.713 145.853 751.548 145.948 751.371 145.983C751.193 146.018 751.01 145.991 750.845 145.907C750.68 145.822 750.54 145.683 750.444 145.507C750.347 145.332 750.298 145.127 750.302 144.92C750.304 144.782 750.329 144.646 750.377 144.519C750.425 144.393 750.495 144.279 750.582 144.185L758.24 135.814ZM725.615 174.379C725.44 174.571 725.206 174.674 724.964 174.667C724.722 174.66 724.492 174.543 724.324 174.341C724.159 174.138 724.069 173.868 724.075 173.589C724.08 173.311 724.181 173.047 724.355 172.854L732.012 164.483C732.097 164.378 732.2 164.295 732.314 164.237C732.428 164.18 732.552 164.15 732.676 164.149C732.801 164.149 732.925 164.178 733.04 164.234C733.155 164.291 733.259 164.374 733.345 164.478C733.431 164.582 733.498 164.706 733.541 164.841C733.585 164.976 733.603 165.119 733.597 165.263C733.59 165.406 733.558 165.546 733.502 165.675C733.446 165.803 733.368 165.917 733.273 166.009L725.615 174.379ZM738.728 160.046C738.597 160.189 738.433 160.284 738.255 160.319C738.078 160.354 737.895 160.327 737.73 160.243C737.565 160.158 737.425 160.019 737.329 159.843C737.232 159.668 737.183 159.463 737.187 159.256L737.188 159.21C737.203 158.948 737.302 158.702 737.467 158.521L745.125 150.15C745.256 150.007 745.42 149.913 745.598 149.878C745.776 149.843 745.959 149.869 746.125 149.953C746.29 150.038 746.43 150.177 746.527 150.352C746.624 150.528 746.674 150.733 746.67 150.94C746.665 151.199 746.576 151.445 746.421 151.631C746.41 151.646 746.397 151.66 746.383 151.672L738.728 160.046Z" fill="#FFEFD1"/>
<path d="M1228.91 -92.5739L1016.4 75.3567L1019.46 80.4734C1019.57 80.682 1019.61 80.9228 1019.58 81.1469C1019.56 81.371 1019.46 81.5617 1019.31 81.6805C1019.16 81.7992 1018.97 81.8369 1018.77 81.7862C1018.58 81.7354 1018.4 81.5998 1018.27 81.407L1015.22 76.2902L963.38 117.253C962.281 118.12 961.557 119.515 961.356 121.154C961.155 122.793 961.492 124.554 962.298 126.078C963.864 124.84 965.863 124.487 967.857 125.094C969.85 125.702 971.674 127.222 972.927 129.319C974.179 131.416 974.759 133.919 974.538 136.277C974.316 138.635 973.312 140.655 971.746 141.893L976.128 149.227C977.694 147.99 979.694 147.636 981.687 148.244C983.68 148.852 985.504 150.371 986.757 152.469C988.01 154.566 988.589 157.069 988.368 159.427C988.147 161.785 987.142 163.804 985.576 165.042L989.946 172.356C991.517 171.178 993.497 170.869 995.461 171.493C997.425 172.117 999.218 173.625 1000.45 175.695C1001.69 177.764 1002.27 180.229 1002.07 182.562C1001.88 184.895 1000.92 186.91 999.396 188.174L1003.77 195.488C1005.33 194.25 1007.33 193.896 1009.32 194.504C1011.32 195.112 1013.14 196.632 1014.39 198.729C1015.65 200.826 1016.23 203.329 1016.01 205.687C1015.78 208.045 1014.78 210.065 1013.21 211.302L1017.57 218.598C1019.14 217.361 1021.14 217.007 1023.13 217.615C1025.13 218.223 1026.95 219.743 1028.2 221.84C1029.45 223.937 1030.03 226.44 1029.81 228.798C1029.59 231.156 1028.59 233.176 1027.02 234.413L1031.39 241.727C1032.96 240.55 1034.94 240.24 1036.91 240.864C1038.87 241.488 1040.66 242.997 1041.9 245.066C1043.14 247.135 1043.72 249.601 1043.52 251.934C1043.32 254.266 1042.36 256.281 1040.84 257.545C1041.79 258.97 1043.1 259.975 1044.51 260.355C1045.92 260.734 1047.32 260.459 1048.42 259.586L1100.26 218.623L1096.71 212.685C1096.6 212.477 1096.56 212.236 1096.58 212.012C1096.61 211.788 1096.71 211.597 1096.86 211.478C1097.01 211.36 1097.2 211.322 1097.39 211.373C1097.58 211.423 1097.76 211.559 1097.89 211.752L1101.44 217.689L1313.95 49.7587C1314.52 49.31 1314.99 48.7157 1315.35 48.0096C1315.7 47.3036 1315.92 46.4996 1316 45.6438C1316.08 44.788 1316.02 43.8971 1315.82 43.0219C1315.61 42.1468 1315.27 41.3044 1314.82 40.5432L1236.71 -90.2048C1236.25 -90.9662 1235.69 -91.6315 1235.05 -92.1627C1234.41 -92.6939 1233.71 -93.0805 1232.99 -93.3005C1232.26 -93.5205 1231.53 -93.5696 1230.83 -93.4449C1230.13 -93.3202 1229.48 -93.0242 1228.91 -92.5739ZM1095.98 208.567C1096.05 208.671 1096.11 208.789 1096.14 208.912C1096.17 209.036 1096.19 209.163 1096.18 209.286C1096.17 209.41 1096.14 209.526 1096.09 209.628C1096.05 209.73 1095.98 209.815 1095.9 209.879C1095.82 209.943 1095.72 209.984 1095.62 210C1095.52 210.015 1095.42 210.005 1095.32 209.97C1095.21 209.934 1095.11 209.874 1095.03 209.794C1094.94 209.713 1094.86 209.613 1094.8 209.501L1090.32 202.002C1090.21 201.793 1090.17 201.553 1090.19 201.328C1090.22 201.104 1090.32 200.914 1090.47 200.795C1090.62 200.676 1090.81 200.638 1091 200.689C1091.19 200.74 1091.37 200.875 1091.5 201.068L1095.98 208.567ZM1089.61 197.893C1089.72 198.102 1089.76 198.343 1089.73 198.567C1089.71 198.791 1089.61 198.982 1089.46 199.1C1089.31 199.219 1089.12 199.257 1088.93 199.206C1088.73 199.155 1088.56 199.02 1088.43 198.827L1083.95 191.339C1083.88 191.235 1083.83 191.117 1083.79 190.993C1083.76 190.87 1083.75 190.742 1083.75 190.619C1083.76 190.496 1083.79 190.38 1083.84 190.278C1083.89 190.176 1083.96 190.091 1084.04 190.027C1084.12 189.962 1084.21 189.921 1084.31 189.906C1084.41 189.89 1084.52 189.901 1084.62 189.936C1084.72 189.972 1084.82 190.031 1084.91 190.112C1085 190.193 1085.07 190.293 1085.13 190.405L1089.61 197.893ZM1083.23 187.216C1083.3 187.32 1083.35 187.438 1083.39 187.562C1083.42 187.685 1083.43 187.813 1083.42 187.936C1083.42 188.059 1083.39 188.175 1083.34 188.277C1083.29 188.379 1083.22 188.465 1083.14 188.529C1083.06 188.593 1082.97 188.634 1082.87 188.649C1082.77 188.665 1082.66 188.655 1082.56 188.619C1082.46 188.584 1082.36 188.524 1082.27 188.443C1082.18 188.362 1082.11 188.262 1082.05 188.15L1077.57 180.651C1077.46 180.443 1077.41 180.202 1077.44 179.978C1077.47 179.754 1077.56 179.563 1077.71 179.444C1077.86 179.325 1078.06 179.288 1078.25 179.338C1078.44 179.389 1078.62 179.525 1078.75 179.718L1083.23 187.216ZM1076.85 176.543C1076.96 176.751 1077.01 176.992 1076.98 177.216C1076.95 177.44 1076.85 177.631 1076.7 177.75C1076.55 177.868 1076.36 177.906 1076.17 177.855C1075.98 177.805 1075.8 177.669 1075.67 177.476L1071.19 169.978C1071.12 169.874 1071.07 169.756 1071.03 169.632C1071 169.508 1070.98 169.381 1070.99 169.258C1071 169.135 1071.03 169.019 1071.08 168.917C1071.13 168.815 1071.19 168.729 1071.28 168.665C1071.36 168.601 1071.45 168.56 1071.55 168.545C1071.65 168.529 1071.75 168.539 1071.86 168.575C1071.96 168.61 1072.06 168.67 1072.15 168.751C1072.24 168.832 1072.31 168.931 1072.37 169.044L1076.85 176.543ZM1070.47 165.866C1070.58 166.074 1070.63 166.315 1070.6 166.539C1070.57 166.763 1070.47 166.954 1070.32 167.073C1070.17 167.191 1069.98 167.229 1069.79 167.178C1069.6 167.128 1069.42 166.992 1069.29 166.799L1064.81 159.3C1064.7 159.092 1064.65 158.851 1064.68 158.627C1064.71 158.403 1064.81 158.212 1064.96 158.093C1065.11 157.975 1065.3 157.937 1065.49 157.988C1065.68 158.039 1065.86 158.174 1065.99 158.367L1070.47 165.866ZM1064.09 155.189C1064.16 155.293 1064.22 155.41 1064.25 155.534C1064.28 155.658 1064.3 155.785 1064.29 155.908C1064.28 156.031 1064.25 156.147 1064.2 156.249C1064.16 156.351 1064.09 156.437 1064.01 156.501C1063.93 156.565 1063.83 156.606 1063.73 156.621C1063.63 156.637 1063.53 156.627 1063.43 156.591C1063.32 156.556 1063.22 156.496 1063.14 156.415C1063.05 156.334 1062.97 156.235 1062.91 156.122L1058.43 148.623C1058.32 148.415 1058.28 148.174 1058.3 147.95C1058.33 147.726 1058.43 147.535 1058.58 147.416C1058.73 147.298 1058.92 147.26 1059.11 147.311C1059.3 147.361 1059.48 147.497 1059.61 147.69L1064.09 155.189ZM1057.72 144.515C1057.83 144.724 1057.87 144.964 1057.84 145.188C1057.82 145.413 1057.72 145.603 1057.57 145.722C1057.42 145.841 1057.23 145.879 1057.04 145.828C1056.84 145.777 1056.66 145.641 1056.53 145.449L1052.05 137.95C1051.98 137.846 1051.93 137.728 1051.9 137.604C1051.86 137.481 1051.85 137.353 1051.86 137.23C1051.87 137.107 1051.9 136.991 1051.94 136.889C1051.99 136.787 1052.06 136.702 1052.14 136.638C1052.22 136.574 1052.32 136.532 1052.42 136.517C1052.52 136.501 1052.62 136.512 1052.72 136.547C1052.83 136.583 1052.92 136.643 1053.01 136.723C1053.1 136.804 1053.18 136.904 1053.24 137.016L1057.72 144.515ZM1051.34 133.838C1051.41 133.942 1051.46 134.059 1051.5 134.183C1051.53 134.307 1051.54 134.434 1051.53 134.557C1051.53 134.68 1051.5 134.796 1051.45 134.898C1051.4 135 1051.33 135.086 1051.25 135.15C1051.17 135.214 1051.08 135.255 1050.98 135.271C1050.88 135.286 1050.77 135.276 1050.67 135.241C1050.57 135.205 1050.47 135.145 1050.38 135.064C1050.29 134.984 1050.22 134.884 1050.16 134.771L1045.68 127.273C1045.57 127.064 1045.52 126.823 1045.55 126.599C1045.58 126.375 1045.67 126.184 1045.82 126.066C1045.97 125.947 1046.17 125.909 1046.36 125.96C1046.55 126.011 1046.73 126.146 1046.86 126.339L1051.34 133.838ZM1044.96 123.164C1045.07 123.373 1045.12 123.614 1045.09 123.838C1045.06 124.062 1044.96 124.253 1044.81 124.371C1044.66 124.49 1044.47 124.528 1044.28 124.477C1044.09 124.426 1043.91 124.291 1043.78 124.098L1039.3 116.596C1039.23 116.492 1039.17 116.374 1039.14 116.25C1039.11 116.127 1039.09 115.999 1039.1 115.876C1039.11 115.753 1039.14 115.637 1039.19 115.535C1039.23 115.433 1039.3 115.347 1039.38 115.283C1039.46 115.219 1039.56 115.178 1039.66 115.163C1039.76 115.147 1039.86 115.157 1039.97 115.193C1040.07 115.228 1040.17 115.288 1040.25 115.369C1040.34 115.45 1040.42 115.549 1040.48 115.662L1044.96 123.164ZM1038.58 112.487C1038.69 112.696 1038.74 112.937 1038.71 113.161C1038.68 113.385 1038.58 113.576 1038.43 113.694C1038.28 113.813 1038.09 113.851 1037.9 113.8C1037.71 113.749 1037.53 113.614 1037.4 113.421L1032.92 105.922C1032.81 105.713 1032.76 105.473 1032.79 105.249C1032.82 105.024 1032.92 104.834 1033.07 104.715C1033.22 104.596 1033.41 104.559 1033.6 104.609C1033.79 104.66 1033.97 104.796 1034.1 104.988L1038.58 112.487ZM1032.2 101.81C1032.27 101.914 1032.33 102.032 1032.36 102.155C1032.39 102.279 1032.41 102.407 1032.4 102.53C1032.39 102.653 1032.36 102.769 1032.31 102.871C1032.27 102.973 1032.2 103.058 1032.12 103.122C1032.04 103.186 1031.94 103.227 1031.84 103.243C1031.74 103.259 1031.64 103.248 1031.54 103.213C1031.43 103.177 1031.33 103.117 1031.25 103.037C1031.16 102.956 1031.08 102.856 1031.02 102.744L1026.54 95.2449C1026.43 95.0363 1026.39 94.7956 1026.41 94.5715C1026.44 94.3473 1026.54 94.1566 1026.69 94.0379C1026.84 93.9192 1027.03 93.8814 1027.22 93.9322C1027.41 93.983 1027.59 94.1185 1027.72 94.3114L1032.2 101.81ZM1025.83 91.1365C1025.94 91.3451 1025.98 91.5859 1025.95 91.81C1025.93 92.0341 1025.83 92.2249 1025.68 92.3436C1025.53 92.4623 1025.34 92.5001 1025.15 92.4493C1024.95 92.3985 1024.77 92.263 1024.64 92.0701L1020.16 84.5713C1020.09 84.4673 1020.04 84.3498 1020.01 84.226C1019.97 84.1022 1019.96 83.9749 1019.97 83.8519C1019.98 83.7288 1020.01 83.6128 1020.05 83.5108C1020.1 83.4088 1020.17 83.3232 1020.25 83.2591C1020.33 83.1951 1020.42 83.154 1020.53 83.1384C1020.63 83.1229 1020.73 83.1332 1020.83 83.1687C1020.94 83.2042 1021.03 83.2641 1021.12 83.3448C1021.21 83.4255 1021.29 83.5252 1021.35 83.6378L1025.83 91.1365Z" fill="#C6C9FE"/>
<path d="M1018.5 109.269L1018.08 108.582L986.784 133.729L987.2 134.415L1018.5 109.269Z" fill="black"/>
<path d="M1019.37 110.708L1018.96 110.021L987.659 135.168L988.076 135.855L1019.37 110.708Z" fill="black"/>
<path d="M1020.25 112.146L1019.83 111.459L988.534 136.606L988.951 137.292L1020.25 112.146Z" fill="black"/>
<path d="M1021.11 113.585L1020.7 112.898L989.401 138.045L989.817 138.732L1021.11 113.585Z" fill="black"/>
<path d="M1022.86 116.401L1021.61 114.336L990.276 139.543L991.527 141.608L1022.86 116.401Z" fill="black"/>
<path d="M1025.49 120.719L1024.24 118.654L992.902 143.861L994.153 145.926L1025.49 120.719Z" fill="black"/>
<path d="M1027.23 123.659L1026.82 122.973L995.519 148.119L995.936 148.806L1027.23 123.659Z" fill="black"/>
<path d="M1028.11 125.095L1027.69 124.408L996.394 149.555L996.811 150.241L1028.11 125.095Z" fill="black"/>
<path d="M1028.98 126.536L1028.57 125.85L997.27 150.996L997.686 151.683L1028.98 126.536Z" fill="black"/>
<path d="M1030.72 129.352L1029.47 127.287L998.136 152.494L999.387 154.559L1030.72 129.352Z" fill="black"/>
<path d="M1033.35 133.669L1032.1 131.604L1000.76 156.811L1002.01 158.876L1033.35 133.669Z" fill="black"/>
<path d="M1035.09 136.609L1034.68 135.922L1003.38 161.068L1003.8 161.755L1035.09 136.609Z" fill="black"/>
<path d="M1035.97 138.046L1035.55 137.359L1004.25 162.506L1004.67 163.193L1035.97 138.046Z" fill="black"/>
<path d="M1036.84 139.486L1036.43 138.799L1005.13 163.945L1005.55 164.632L1036.84 139.486Z" fill="black"/>
<path d="M1038.58 142.301L1037.33 140.236L1006 165.443L1007.25 167.508L1038.58 142.301Z" fill="black"/>
<path d="M1041.21 146.618L1039.96 144.553L1008.62 169.76L1009.87 171.825L1041.21 146.618Z" fill="black"/>
<path d="M1042.95 149.558L1042.54 148.871L1011.24 174.018L1011.66 174.704L1042.95 149.558Z" fill="black"/>
<path d="M1043.83 150.995L1043.41 150.309L1012.11 175.455L1012.53 176.142L1043.83 150.995Z" fill="black"/>
<path d="M1044.7 152.435L1044.29 151.748L1012.99 176.895L1013.41 177.581L1044.7 152.435Z" fill="black"/>
<path d="M1046.45 155.251L1045.2 153.186L1013.87 178.393L1015.12 180.458L1046.45 155.251Z" fill="black"/>
<path d="M1049.07 159.569L1047.82 157.504L1016.48 182.711L1017.73 184.776L1049.07 159.569Z" fill="black"/>
<path d="M1050.81 162.507L1050.4 161.82L1019.1 186.967L1019.52 187.654L1050.81 162.507Z" fill="black"/>
<path d="M1051.69 163.944L1051.27 163.258L1019.97 188.404L1020.39 189.091L1051.69 163.944Z" fill="black"/>
<path d="M1052.56 165.386L1052.15 164.699L1020.85 189.846L1021.27 190.532L1052.56 165.386Z" fill="black"/>
<path d="M1054.31 168.2L1053.06 166.135L1021.73 191.342L1022.98 193.407L1054.31 168.2Z" fill="black"/>
<path d="M1056.93 172.518L1055.68 170.453L1024.34 195.66L1025.59 197.725L1056.93 172.518Z" fill="black"/>
<path d="M1058.67 175.458L1058.26 174.771L1026.96 199.918L1027.38 200.605L1058.67 175.458Z" fill="black"/>
<path d="M1059.55 176.894L1059.13 176.207L1027.83 201.354L1028.25 202.04L1059.55 176.894Z" fill="black"/>
<path d="M1060.42 178.335L1060.01 177.648L1028.71 202.795L1029.13 203.482L1060.42 178.335Z" fill="black"/>
<path d="M1062.17 181.151L1060.92 179.086L1029.59 204.293L1030.84 206.358L1062.17 181.151Z" fill="black"/>
<path d="M1064.79 185.467L1063.54 183.402L1032.2 208.609L1033.45 210.674L1064.79 185.467Z" fill="black"/>
<path d="M1066.54 188.407L1066.13 187.721L1034.83 212.867L1035.24 213.554L1066.54 188.407Z" fill="black"/>
<path d="M1067.41 189.845L1066.99 189.158L1035.69 214.305L1036.11 214.991L1067.41 189.845Z" fill="black"/>
<path d="M1068.28 191.284L1067.87 190.598L1036.57 215.744L1036.99 216.431L1068.28 191.284Z" fill="black"/>
<path d="M1070.03 194.1L1068.78 192.035L1037.44 217.242L1038.7 219.307L1070.03 194.1Z" fill="black"/>
<path d="M1072.65 198.419L1071.4 196.354L1040.06 221.561L1041.31 223.626L1072.65 198.419Z" fill="black"/>
<path d="M1074.4 201.357L1073.99 200.67L1042.69 225.816L1043.1 226.503L1074.4 201.357Z" fill="black"/>
<path d="M1076.14 204.172L1074.89 202.107L1043.55 227.314L1044.81 229.379L1076.14 204.172Z" fill="black"/>
<path d="M1077.02 205.671L1076.6 204.984L1045.3 230.131L1045.72 230.818L1077.02 205.671Z" fill="black"/>
<path fill-rule="evenodd" clip-rule="evenodd" d="M262.006 198.929C365.894 191.95 469.892 188.29 573.895 189.115C594.793 189.28 615.615 189.822 636.422 190.362C661.36 191.011 686.278 191.658 711.282 191.658C713.109 191.658 714.385 191.651 715.151 191.644C715.534 191.641 715.789 191.638 715.921 191.637L715.953 191.636L715.995 191.636L716.012 191.635L716.016 191.635L716.019 191.635L716.02 191.635L716.022 191.635L716.033 191.635L716.042 191.635L716.074 191.635C718.087 194.547 716.205 197.802 716.104 197.81L716.083 197.81L716.078 197.81L716.074 197.811L716.064 197.811L716.062 197.811L716.06 197.811L716.034 197.811L716.003 197.812C715.586 197.819 713.285 197.865 709.413 198.015C661.628 199.868 613.862 203.84 566.105 208.222C598.117 208.037 630.101 208.011 662.04 208.011C684.826 208.011 696.274 208.062 698.45 208.152C698.587 208.158 698.715 208.165 698.815 208.175C698.848 208.178 698.949 208.187 699.059 208.212C699.142 208.234 699.431 208.351 699.635 208.476C700.524 209.699 700.447 213.028 699.605 214.089C699.415 214.202 699.144 214.31 699.065 214.33C699.021 214.34 698.952 214.353 698.918 214.358C698.855 214.367 698.793 214.373 698.744 214.377C698.64 214.385 698.507 214.393 698.355 214.4C697.744 214.428 696.59 214.457 694.944 214.488C691.642 214.551 686.291 214.621 679.163 214.698C650.647 215.004 593.62 215.413 525.192 215.822C511.031 215.906 496.381 215.991 481.395 216.075C350.966 227.821 220.512 237.002 89.9951 245.3C78.9746 247.055 67.962 248.909 56.9581 250.868C56.6254 250.927 56.2554 250.996 55.8545 251.075C64.3825 251.153 72.9141 250.982 81.4684 250.811C88.2535 250.676 95.0528 250.54 101.876 250.527C110.027 250.512 118.179 250.504 126.33 250.496C205.038 250.418 283.732 250.34 362.274 243.991C381.167 242.463 400.063 241.04 418.958 239.644C425.971 238.885 432.961 238.161 439.918 237.441C441.05 237.323 442.182 237.206 443.313 237.089C445.218 236.891 462.698 235.785 474.068 235.145C476.917 234.985 479.392 234.854 481.153 234.773C482.032 234.732 482.741 234.704 483.232 234.692C483.474 234.685 483.68 234.682 483.831 234.685C483.9 234.686 483.993 234.688 484.084 234.697L484.086 234.697C484.117 234.701 484.231 234.712 484.364 234.75C484.395 234.759 484.631 234.821 484.897 235.021C485.065 235.162 485.48 235.676 485.695 236.087C485.935 236.846 485.977 238.51 485.775 239.292C485.585 239.72 485.204 240.276 485.046 240.436C484.946 240.521 484.777 240.642 484.707 240.684C484.577 240.759 484.469 240.797 484.429 240.81C484.392 240.823 484.357 240.834 484.327 240.842C484.279 240.855 484.241 240.863 484.22 240.868C484.178 240.877 484.134 240.885 484.09 240.892C484.048 240.899 484.006 240.905 483.967 240.911C483.8 240.934 483.568 240.961 483.275 240.991C482.685 241.052 481.793 241.134 480.56 241.238C478.093 241.446 474.236 241.747 468.654 242.164C458.624 242.912 448.595 243.648 438.568 244.384C432.12 244.858 425.673 245.331 419.226 245.807C372.328 250.883 324.723 257.481 279.446 274.895C288.697 273.815 297.938 272.019 307.212 270.216C313.221 269.048 319.244 267.878 325.293 266.897C326.414 266.715 327.42 267.943 327.54 269.639C327.66 271.334 326.849 272.856 325.728 273.038C319.864 273.988 313.94 275.139 307.98 276.297C295.031 278.812 281.914 281.36 268.884 281.957C266.98 282.044 265.597 282.008 264.768 281.76C264.554 281.696 264.231 281.578 263.909 281.325C263.651 281.122 262.867 280.414 262.715 278.848C262.565 277.305 263.164 276.295 263.354 276.004C263.6 275.629 263.867 275.382 264.035 275.239C264.675 274.693 265.699 274.178 266.655 273.736C267.681 273.261 268.895 272.755 270.069 272.265L270.081 272.26C291.619 263.271 313.719 256.875 336.027 252.068C266.165 256.533 196.209 256.603 126.343 256.672C118.187 256.68 110.033 256.688 101.881 256.703C95.1639 256.715 88.4199 256.85 81.6616 256.985C67.4194 257.269 53.1139 257.554 38.8636 256.701C38.4519 256.676 38.0638 256.631 37.7334 256.545C37.5717 256.503 37.3587 256.435 37.1378 256.312C36.9838 256.227 36.4955 255.945 36.1138 255.206C35.8894 254.772 35.6951 254.162 35.6678 253.414C35.6411 252.684 35.7834 252.084 35.935 251.673C36.1991 250.958 36.5769 250.575 36.7076 250.446C37.0302 250.129 37.3988 249.919 37.6511 249.787C38.5004 249.341 39.9199 248.842 41.5585 248.342C31.7474 248.952 21.9359 249.557 12.124 250.159C10.9976 250.229 10.0474 248.903 10.0017 247.199C9.956 245.495 10.8321 244.058 11.9584 243.989C37.8743 242.398 63.7866 240.785 89.6959 239.138C155.948 228.592 222.48 221.615 289.124 217.002C220.294 217.277 157.413 217.457 114.609 217.457C111.526 217.457 109.195 217.422 107.555 217.353C106.737 217.319 106.073 217.276 105.565 217.223C105.136 217.178 104.616 217.11 104.227 216.941C104.132 216.899 103.873 216.782 103.599 216.513C103.42 216.336 102.448 215.286 102.682 213.325C102.778 212.513 103.058 211.975 103.235 211.698C103.415 211.417 103.593 211.243 103.697 211.152C103.904 210.969 104.094 210.87 104.188 210.824C104.546 210.649 105.028 210.537 105.45 210.452C106.398 210.26 107.886 210.05 109.807 209.825C117.519 208.92 132.914 207.684 151.345 206.346C177.202 204.47 209.111 202.391 234.349 200.746C245.109 200.045 254.657 199.423 262.006 198.929ZM176.551 233.467C246.547 225.388 316.784 220.69 387.074 217.96C316.915 223.667 246.743 228.748 176.551 233.467ZM491.071 209.012C473.328 209.297 455.582 209.664 437.834 210.135C344.479 210.624 244.129 211.049 169.975 211.211C191.555 209.717 215.017 208.188 234.508 206.917C245.274 206.216 254.829 205.593 262.187 205.099C366.018 198.123 469.948 194.466 573.874 195.29C593.183 195.443 612.557 195.922 631.946 196.423C598.412 198.979 564.895 202.124 531.409 205.265C518.939 206.435 506.473 207.605 494.013 208.743C493.032 208.833 492.051 208.922 491.071 209.012ZM266.04 280.618C266.041 280.618 266.042 280.617 266.043 280.616C266.029 280.628 266.027 280.629 266.04 280.618ZM38.4131 250.455C38.4131 250.455 38.4153 250.455 38.4195 250.457C38.4151 250.456 38.413 250.455 38.4131 250.455Z" fill="white"/>
<g clip-path="url(#clip1_227_8600)">
<path d="M791.168 76.2813L726.281 8L658 72.8872L722.887 141.169L791.168 76.2813Z" fill="#FFEFD1"/>
<path d="M727.604 17.937L726.069 16.3223L724.454 17.8568L725.989 19.4715L727.604 17.937Z" fill="black"/>
<path d="M729.138 19.5518L727.604 17.937L725.989 19.4715L727.523 21.0863L729.138 19.5518Z" fill="black"/>
<path d="M730.673 21.1666L729.138 19.5518L727.523 21.0863L729.058 22.701L730.673 21.1666Z" fill="black"/>
<path d="M732.207 22.7813L730.673 21.1666L729.058 22.701L730.592 24.3158L732.207 22.7813Z" fill="black"/>
<path d="M733.742 24.3961L732.207 22.7813L730.592 24.3158L732.127 25.9306L733.742 24.3961Z" fill="black"/>
<path d="M735.276 26.0108L733.742 24.3961L732.127 25.9306L733.661 27.5453L735.276 26.0108Z" fill="black"/>
<path d="M736.811 27.6256L735.276 26.0108L733.661 27.5453L735.196 29.1601L736.811 27.6256Z" fill="black"/>
<path d="M739.88 30.8551L738.345 29.2404L736.73 30.7749L738.265 32.3896L739.88 30.8551Z" fill="black"/>
<path d="M742.949 34.0846L741.414 32.4699L739.799 34.0044L741.334 35.6191L742.949 34.0846Z" fill="black"/>
<path d="M746.018 37.3142L744.483 35.6994L742.868 37.2339L744.403 38.8487L746.018 37.3142Z" fill="black"/>
<path d="M750.621 42.1585L749.087 40.5437L747.472 42.0782L749.006 43.6929L750.621 42.1585Z" fill="black"/>
<path d="M753.69 45.388L752.156 43.7732L750.541 45.3077L752.075 46.9225L753.69 45.388Z" fill="black"/>
<path d="M755.225 47.0027L753.69 45.388L752.075 46.9225L753.61 48.5372L755.225 47.0027Z" fill="black"/>
<path d="M759.828 51.847L758.293 50.2323L756.679 51.7668L758.213 53.3815L759.828 51.847Z" fill="black"/>
<path d="M761.362 53.4618L759.828 51.847L758.213 53.3815L759.748 54.9963L761.362 53.4618Z" fill="black"/>
<path d="M765.966 58.3061L764.431 56.6913L762.817 58.2258L764.351 59.8406L765.966 58.3061Z" fill="black"/>
<path d="M767.5 59.9208L765.966 58.3061L764.351 59.8406L765.886 61.4553L767.5 59.9208Z" fill="black"/>
<path d="M769.035 61.5356L767.5 59.9208L765.886 61.4553L767.42 63.0701L769.035 61.5356Z" fill="black"/>
<path d="M770.569 63.1504L769.035 61.5356L767.42 63.0701L768.955 64.6848L770.569 63.1504Z" fill="black"/>
<path d="M773.638 66.3799L772.104 64.7651L770.489 66.2996L772.024 67.9144L773.638 66.3799Z" fill="black"/>
<path d="M775.173 67.9946L773.638 66.3799L772.024 67.9144L773.558 69.5291L775.173 67.9946Z" fill="black"/>
<path d="M776.707 69.6094L775.173 67.9946L773.558 69.5291L775.093 71.1439L776.707 69.6094Z" fill="black"/>
<path d="M778.242 71.2242L776.707 69.6094L775.093 71.1439L776.627 72.7587L778.242 71.2242Z" fill="black"/>
<path d="M779.776 72.8389L778.242 71.2242L776.627 72.7587L778.162 74.3734L779.776 72.8389Z" fill="black"/>
<path d="M781.311 74.4537L779.776 72.8389L778.162 74.3734L779.696 75.9882L781.311 74.4537Z" fill="black"/>
<path d="M782.845 76.0684L781.311 74.4537L779.696 75.9882L781.231 77.6029L782.845 76.0684Z" fill="black"/>
<path d="M725.989 19.4715L724.454 17.8568L722.84 19.3913L724.374 21.006L725.989 19.4715Z" fill="black"/>
<path d="M735.196 29.1601L733.661 27.5453L732.047 29.0798L733.581 30.6946L735.196 29.1601Z" fill="black"/>
<path d="M739.799 34.0044L738.265 32.3896L736.65 33.9241L738.185 35.5389L739.799 34.0044Z" fill="black"/>
<path d="M744.403 38.8487L742.868 37.2339L741.254 38.7684L742.788 40.3832L744.403 38.8487Z" fill="black"/>
<path d="M745.937 40.4634L744.403 38.8487L742.788 40.3832L744.323 41.9979L745.937 40.4634Z" fill="black"/>
<path d="M750.541 45.3077L749.006 43.6929L747.391 45.2274L748.926 46.8422L750.541 45.3077Z" fill="black"/>
<path d="M752.075 46.9225L750.541 45.3077L748.926 46.8422L750.46 48.457L752.075 46.9225Z" fill="black"/>
<path d="M755.144 50.152L753.61 48.5372L751.995 50.0717L753.529 51.6865L755.144 50.152Z" fill="black"/>
<path d="M759.748 54.9963L758.213 53.3815L756.598 54.916L758.133 56.5308L759.748 54.9963Z" fill="black"/>
<path d="M761.282 56.611L759.748 54.9963L758.133 56.5308L759.667 58.1455L761.282 56.611Z" fill="black"/>
<path d="M762.817 58.2258L761.282 56.611L759.667 58.1455L761.202 59.7603L762.817 58.2258Z" fill="black"/>
<path d="M765.886 61.4553L764.351 59.8406L762.736 61.3751L764.271 62.9898L765.886 61.4553Z" fill="black"/>
<path d="M772.024 67.9144L770.489 66.2996L768.874 67.8341L770.409 69.4489L772.024 67.9144Z" fill="black"/>
<path d="M781.231 77.6029L779.696 75.9882L778.081 77.5227L779.616 79.1374L781.231 77.6029Z" fill="black"/>
<path d="M724.374 21.006L722.84 19.3913L721.225 20.9258L722.759 22.5405L724.374 21.006Z" fill="black"/>
<path d="M727.443 24.2355L725.909 22.6208L724.294 24.1553L725.828 25.77L727.443 24.2355Z" fill="black"/>
<path d="M728.978 25.8503L727.443 24.2355L725.828 25.77L727.363 27.3848L728.978 25.8503Z" fill="black"/>
<path d="M730.512 27.4651L728.978 25.8503L727.363 27.3848L728.897 28.9996L730.512 27.4651Z" fill="black"/>
<path d="M733.581 30.6946L732.047 29.0798L730.432 30.6143L731.966 32.2291L733.581 30.6946Z" fill="black"/>
<path d="M738.185 35.5389L736.65 33.9241L735.035 35.4586L736.57 37.0734L738.185 35.5389Z" fill="black"/>
<path d="M741.254 38.7684L739.719 37.1536L738.104 38.6881L739.639 40.3029L741.254 38.7684Z" fill="black"/>
<path d="M744.323 41.9979L742.788 40.3832L741.173 41.9177L742.708 43.5324L744.323 41.9979Z" fill="black"/>
<path d="M748.926 46.8422L747.391 45.2274L745.777 46.7619L747.311 48.3767L748.926 46.8422Z" fill="black"/>
<path d="M750.46 48.457L748.926 46.8422L747.311 48.3767L748.846 49.9915L750.46 48.457Z" fill="black"/>
<path d="M753.529 51.6865L751.995 50.0717L750.38 51.6062L751.915 53.221L753.529 51.6865Z" fill="black"/>
<path d="M758.133 56.5308L756.598 54.916L754.984 56.4505L756.518 58.0653L758.133 56.5308Z" fill="black"/>
<path d="M759.667 58.1455L758.133 56.5308L756.518 58.0653L758.053 59.68L759.667 58.1455Z" fill="black"/>
<path d="M762.736 61.3751L761.202 59.7603L759.587 61.2948L761.122 62.9096L762.736 61.3751Z" fill="black"/>
<path d="M767.34 66.2193L765.805 64.6046L764.191 66.1391L765.725 67.7538L767.34 66.2193Z" fill="black"/>
<path d="M770.409 69.4489L768.874 67.8341L767.26 69.3686L768.794 70.9834L770.409 69.4489Z" fill="black"/>
<path d="M773.478 72.6784L771.943 71.0636L770.329 72.5981L771.863 74.2129L773.478 72.6784Z" fill="black"/>
<path d="M775.012 74.2931L773.478 72.6784L771.863 74.2129L773.398 75.8276L775.012 74.2931Z" fill="black"/>
<path d="M776.547 75.9079L775.012 74.2931L773.398 75.8276L774.932 77.4424L776.547 75.9079Z" fill="black"/>
<path d="M779.616 79.1374L778.081 77.5227L776.467 79.0572L778.001 80.6719L779.616 79.1374Z" fill="black"/>
<path d="M722.759 22.5405L721.225 20.9258L719.61 22.4602L721.145 24.075L722.759 22.5405Z" fill="black"/>
<path d="M725.828 25.77L724.294 24.1553L722.679 25.6898L724.214 27.3045L725.828 25.77Z" fill="black"/>
<path d="M727.363 27.3848L725.828 25.77L724.214 27.3045L725.748 28.9193L727.363 27.3848Z" fill="black"/>
<path d="M728.897 28.9996L727.363 27.3848L725.748 28.9193L727.283 30.5341L728.897 28.9996Z" fill="black"/>
<path d="M731.966 32.2291L730.432 30.6143L728.817 32.1488L730.352 33.7636L731.966 32.2291Z" fill="black"/>
<path d="M735.035 35.4586L733.501 33.8438L731.886 35.3783L733.421 36.9931L735.035 35.4586Z" fill="black"/>
<path d="M745.777 46.7619L744.242 45.1472L742.627 46.6817L744.162 48.2964L745.777 46.7619Z" fill="black"/>
<path d="M748.846 49.9915L747.311 48.3767L745.696 49.9112L747.231 51.526L748.846 49.9915Z" fill="black"/>
<path d="M753.449 54.8357L751.915 53.221L750.3 54.7555L751.834 56.3702L753.449 54.8357Z" fill="black"/>
<path d="M754.984 56.4505L753.449 54.8357L751.834 56.3702L753.369 57.985L754.984 56.4505Z" fill="black"/>
<path d="M762.656 64.5243L761.122 62.9096L759.507 64.444L761.041 66.0588L762.656 64.5243Z" fill="black"/>
<path d="M768.794 70.9834L767.26 69.3686L765.645 70.9031L767.179 72.5179L768.794 70.9834Z" fill="black"/>
<path d="M771.863 74.2129L770.329 72.5981L768.714 74.1326L770.248 75.7474L771.863 74.2129Z" fill="black"/>
<path d="M773.398 75.8276L771.863 74.2129L770.248 75.7474L771.783 77.3621L773.398 75.8276Z" fill="black"/>
<path d="M774.932 77.4424L773.398 75.8276L771.783 77.3621L773.317 78.9769L774.932 77.4424Z" fill="black"/>
<path d="M778.001 80.6719L776.467 79.0572L774.852 80.5917L776.386 82.2064L778.001 80.6719Z" fill="black"/>
<path d="M721.145 24.075L719.61 22.4602L717.995 23.9947L719.53 25.6095L721.145 24.075Z" fill="black"/>
<path d="M724.214 27.3045L722.679 25.6898L721.064 27.2243L722.599 28.839L724.214 27.3045Z" fill="black"/>
<path d="M725.748 28.9193L724.214 27.3045L722.599 28.839L724.133 30.4538L725.748 28.9193Z" fill="black"/>
<path d="M727.283 30.5341L725.748 28.9193L724.133 30.4538L725.668 32.0686L727.283 30.5341Z" fill="black"/>
<path d="M730.352 33.7636L728.817 32.1488L727.202 33.6833L728.737 35.2981L730.352 33.7636Z" fill="black"/>
<path d="M733.421 36.9931L731.886 35.3783L730.271 36.9128L731.806 38.5276L733.421 36.9931Z" fill="black"/>
<path d="M736.489 40.2226L734.955 38.6079L733.34 40.1424L734.875 41.7571L736.489 40.2226Z" fill="black"/>
<path d="M741.093 45.0669L739.558 43.4521L737.944 44.9866L739.478 46.6014L741.093 45.0669Z" fill="black"/>
<path d="M742.627 46.6817L741.093 45.0669L739.478 46.6014L741.013 48.2162L742.627 46.6817Z" fill="black"/>
<path d="M744.162 48.2964L742.627 46.6817L741.013 48.2162L742.547 49.8309L744.162 48.2964Z" fill="black"/>
<path d="M747.231 51.526L745.696 49.9112L744.082 51.4457L745.616 53.0605L747.231 51.526Z" fill="black"/>
<path d="M751.834 56.3702L750.3 54.7555L748.685 56.29L750.22 57.9047L751.834 56.3702Z" fill="black"/>
<path d="M756.438 61.2145L754.903 59.5998L753.289 61.1343L754.823 62.749L756.438 61.2145Z" fill="black"/>
<path d="M757.972 62.8293L756.438 61.2145L754.823 62.749L756.358 64.3638L757.972 62.8293Z" fill="black"/>
<path d="M761.041 66.0588L759.507 64.444L757.892 65.9785L759.427 67.5933L761.041 66.0588Z" fill="black"/>
<path d="M762.576 67.6736L761.041 66.0588L759.427 67.5933L760.961 69.2081L762.576 67.6736Z" fill="black"/>
<path d="M764.11 69.2883L762.576 67.6736L760.961 69.2081L762.496 70.8228L764.11 69.2883Z" fill="black"/>
<path d="M767.179 72.5179L765.645 70.9031L764.03 72.4376L765.565 74.0524L767.179 72.5179Z" fill="black"/>
<path d="M770.248 75.7474L768.714 74.1326L767.099 75.6671L768.634 77.2819L770.248 75.7474Z" fill="black"/>
<path d="M771.783 77.3621L770.248 75.7474L768.634 77.2819L770.168 78.8966L771.783 77.3621Z" fill="black"/>
<path d="M773.317 78.9769L771.783 77.3621L770.168 78.8966L771.703 80.5114L773.317 78.9769Z" fill="black"/>
<path d="M776.386 82.2064L774.852 80.5917L773.237 82.1262L774.772 83.7409L776.386 82.2064Z" fill="black"/>
<path d="M719.53 25.6095L717.995 23.9947L716.381 25.5292L717.915 27.144L719.53 25.6095Z" fill="black"/>
<path d="M728.737 35.2981L727.202 33.6833L725.587 35.2178L727.122 36.8326L728.737 35.2981Z" fill="black"/>
<path d="M731.806 38.5276L730.271 36.9128L728.656 38.4473L730.191 40.0621L731.806 38.5276Z" fill="black"/>
<path d="M734.875 41.7571L733.34 40.1424L731.725 41.6769L733.26 43.2916L734.875 41.7571Z" fill="black"/>
<path d="M736.409 43.3719L734.875 41.7571L733.26 43.2916L734.794 44.9064L736.409 43.3719Z" fill="black"/>
<path d="M737.944 44.9866L736.409 43.3719L734.794 44.9064L736.329 46.5211L737.944 44.9866Z" fill="black"/>
<path d="M739.478 46.6014L737.944 44.9866L736.329 46.5211L737.863 48.1359L739.478 46.6014Z" fill="black"/>
<path d="M742.547 49.8309L741.013 48.2162L739.398 49.7507L740.932 51.3654L742.547 49.8309Z" fill="black"/>
<path d="M745.616 53.0605L744.082 51.4457L742.467 52.9802L744.001 54.595L745.616 53.0605Z" fill="black"/>
<path d="M751.754 59.5195L750.22 57.9047L748.605 59.4392L750.139 61.054L751.754 59.5195Z" fill="black"/>
<path d="M753.289 61.1343L751.754 59.5195L750.139 61.054L751.674 62.6688L753.289 61.1343Z" fill="black"/>
<path d="M757.892 65.9785L756.358 64.3638L754.743 65.8983L756.277 67.513L757.892 65.9785Z" fill="black"/>
<path d="M759.427 67.5933L757.892 65.9785L756.277 67.513L757.812 69.1278L759.427 67.5933Z" fill="black"/>
<path d="M762.496 70.8228L760.961 69.2081L759.346 70.7426L760.881 72.3573L762.496 70.8228Z" fill="black"/>
<path d="M765.565 74.0524L764.03 72.4376L762.415 73.9721L763.95 75.5869L765.565 74.0524Z" fill="black"/>
<path d="M774.772 83.7409L773.237 82.1262L771.622 83.6607L773.157 85.2754L774.772 83.7409Z" fill="black"/>
<path d="M717.915 27.144L716.381 25.5292L714.766 27.0637L716.3 28.6785L717.915 27.144Z" fill="black"/>
<path d="M719.45 28.7588L717.915 27.144L716.3 28.6785L717.835 30.2933L719.45 28.7588Z" fill="black"/>
<path d="M720.984 30.3735L719.45 28.7588L717.835 30.2933L719.369 31.908L720.984 30.3735Z" fill="black"/>
<path d="M722.519 31.9883L720.984 30.3735L719.369 31.908L720.904 33.5228L722.519 31.9883Z" fill="black"/>
<path d="M724.053 33.603L722.519 31.9883L720.904 33.5228L722.438 35.1375L724.053 33.603Z" fill="black"/>
<path d="M725.587 35.2178L724.053 33.603L722.438 35.1375L723.973 36.7523L725.587 35.2178Z" fill="black"/>
<path d="M727.122 36.8326L725.587 35.2178L723.973 36.7523L725.507 38.3671L727.122 36.8326Z" fill="black"/>
<path d="M730.191 40.0621L728.656 38.4473L727.042 39.9818L728.576 41.5966L730.191 40.0621Z" fill="black"/>
<path d="M733.26 43.2916L731.725 41.6769L730.111 43.2114L731.645 44.8261L733.26 43.2916Z" fill="black"/>
<path d="M736.329 46.5211L734.794 44.9064L733.18 46.4409L734.714 48.0556L736.329 46.5211Z" fill="black"/>
<path d="M739.398 49.7507L737.863 48.1359L736.249 49.6704L737.783 51.2852L739.398 49.7507Z" fill="black"/>
<path d="M742.467 52.9802L740.932 51.3654L739.318 52.8999L740.852 54.5147L742.467 52.9802Z" fill="black"/>
<path d="M745.536 56.2097L744.001 54.595L742.387 56.1294L743.921 57.7442L745.536 56.2097Z" fill="black"/>
<path d="M748.605 59.4392L747.07 57.8245L745.456 59.359L746.99 60.9737L748.605 59.4392Z" fill="black"/>
<path d="M751.674 62.6688L750.139 61.054L748.525 62.5885L750.059 64.2033L751.674 62.6688Z" fill="black"/>
<path d="M754.743 65.8983L753.208 64.2835L751.594 65.818L753.128 67.4328L754.743 65.8983Z" fill="black"/>
<path d="M757.812 69.1278L756.277 67.513L754.663 69.0475L756.197 70.6623L757.812 69.1278Z" fill="black"/>
<path d="M760.881 72.3573L759.346 70.7426L757.732 72.2771L759.266 73.8918L760.881 72.3573Z" fill="black"/>
<path d="M763.95 75.5869L762.415 73.9721L760.801 75.5066L762.335 77.1213L763.95 75.5869Z" fill="black"/>
<path d="M765.484 77.2016L763.95 75.5869L762.335 77.1213L763.87 78.7361L765.484 77.2016Z" fill="black"/>
<path d="M767.019 78.8164L765.484 77.2016L763.87 78.7361L765.404 80.3509L767.019 78.8164Z" fill="black"/>
<path d="M768.553 80.4311L767.019 78.8164L765.404 80.3509L766.939 81.9656L768.553 80.4311Z" fill="black"/>
<path d="M770.088 82.0459L768.553 80.4311L766.939 81.9656L768.473 83.5804L770.088 82.0459Z" fill="black"/>
<path d="M771.622 83.6607L770.088 82.0459L768.473 83.5804L770.008 85.1952L771.622 83.6607Z" fill="black"/>
<path d="M773.157 85.2754L771.622 83.6607L770.008 85.1952L771.542 86.8099L773.157 85.2754Z" fill="black"/>
<path d="M728.576 41.5966L727.042 39.9818L725.427 41.5163L726.961 43.1311L728.576 41.5966Z" fill="black"/>
<path d="M731.645 44.8261L730.111 43.2114L728.496 44.7458L730.03 46.3606L731.645 44.8261Z" fill="black"/>
<path d="M734.714 48.0556L733.18 46.4409L731.565 47.9754L733.099 49.5901L734.714 48.0556Z" fill="black"/>
<path d="M736.249 49.6704L734.714 48.0556L733.099 49.5901L734.634 51.2049L736.249 49.6704Z" fill="black"/>
<path d="M740.852 54.5147L739.318 52.8999L737.703 54.4344L739.237 56.0492L740.852 54.5147Z" fill="black"/>
<path d="M746.99 60.9737L745.456 59.359L743.841 60.8935L745.375 62.5082L746.99 60.9737Z" fill="black"/>
<path d="M748.525 62.5885L746.99 60.9737L745.375 62.5082L746.91 64.123L748.525 62.5885Z" fill="black"/>
<path d="M756.197 70.6623L754.663 69.0475L753.048 70.582L754.582 72.1968L756.197 70.6623Z" fill="black"/>
<path d="M757.732 72.2771L756.197 70.6623L754.582 72.1968L756.117 73.8116L757.732 72.2771Z" fill="black"/>
<path d="M759.266 73.8918L757.732 72.2771L756.117 73.8116L757.651 75.4263L759.266 73.8918Z" fill="black"/>
<path d="M714.685 30.213L713.151 28.5982L711.536 30.1327L713.071 31.7475L714.685 30.213Z" fill="black"/>
<path d="M716.22 31.8278L714.685 30.213L713.071 31.7475L714.605 33.3622L716.22 31.8278Z" fill="black"/>
<path d="M717.754 33.4425L716.22 31.8278L714.605 33.3622L716.14 34.977L717.754 33.4425Z" fill="black"/>
<path d="M720.823 36.672L719.289 35.0573L717.674 36.5918L719.209 38.2065L720.823 36.672Z" fill="black"/>
<path d="M723.892 39.9016L722.358 38.2868L720.743 39.8213L722.278 41.4361L723.892 39.9016Z" fill="black"/>
<path d="M726.961 43.1311L725.427 41.5163L723.812 43.0508L725.347 44.6656L726.961 43.1311Z" fill="black"/>
<path d="M730.03 46.3606L728.496 44.7458L726.881 46.2803L728.416 47.8951L730.03 46.3606Z" fill="black"/>
<path d="M736.168 52.8197L734.634 51.2049L733.019 52.7394L734.554 54.3541L736.168 52.8197Z" fill="black"/>
<path d="M739.237 56.0492L737.703 54.4344L736.088 55.9689L737.623 57.5837L739.237 56.0492Z" fill="black"/>
<path d="M740.772 57.6639L739.237 56.0492L737.623 57.5837L739.157 59.1984L740.772 57.6639Z" fill="black"/>
<path d="M743.841 60.8935L742.306 59.2787L740.692 60.8132L742.226 62.428L743.841 60.8935Z" fill="black"/>
<path d="M745.375 62.5082L743.841 60.8935L742.226 62.428L743.761 64.0427L745.375 62.5082Z" fill="black"/>
<path d="M746.91 64.123L745.375 62.5082L743.761 64.0427L745.295 65.6575L746.91 64.123Z" fill="black"/>
<path d="M753.048 70.582L751.513 68.9673L749.899 70.5018L751.433 72.1165L753.048 70.582Z" fill="black"/>
<path d="M756.117 73.8116L754.582 72.1968L752.968 73.7313L754.502 75.3461L756.117 73.8116Z" fill="black"/>
<path d="M757.651 75.4263L756.117 73.8116L754.502 75.3461L756.037 76.9608L757.651 75.4263Z" fill="black"/>
<path d="M759.186 77.0411L757.651 75.4263L756.037 76.9608L757.571 78.5756L759.186 77.0411Z" fill="black"/>
<path d="M760.72 78.6558L759.186 77.0411L757.571 78.5756L759.106 80.1903L760.72 78.6558Z" fill="black"/>
<path d="M762.255 80.2706L760.72 78.6558L759.106 80.1903L760.64 81.8051L762.255 80.2706Z" fill="black"/>
<path d="M763.789 81.8854L762.255 80.2706L760.64 81.8051L762.175 83.4199L763.789 81.8854Z" fill="black"/>
<path d="M765.324 83.5001L763.789 81.8854L762.175 83.4199L763.709 85.0346L765.324 83.5001Z" fill="black"/>
<path d="M769.927 88.3444L768.393 86.7296L766.778 88.2641L768.313 89.8789L769.927 88.3444Z" fill="black"/>
<path d="M714.605 33.3622L713.071 31.7475L711.456 33.282L712.99 34.8967L714.605 33.3622Z" fill="black"/>
<path d="M717.674 36.5918L716.14 34.977L714.525 36.5115L716.059 38.1263L717.674 36.5918Z" fill="black"/>
<path d="M719.209 38.2065L717.674 36.5918L716.059 38.1263L717.594 39.741L719.209 38.2065Z" fill="black"/>
<path d="M723.812 43.0508L722.278 41.4361L720.663 42.9706L722.197 44.5853L723.812 43.0508Z" fill="black"/>
<path d="M725.347 44.6656L723.812 43.0508L722.197 44.5853L723.732 46.2001L725.347 44.6656Z" fill="black"/>
<path d="M726.881 46.2803L725.347 44.6656L723.732 46.2001L725.266 47.8148L726.881 46.2803Z" fill="black"/>
<path d="M728.416 47.8951L726.881 46.2803L725.266 47.8148L726.801 49.4296L728.416 47.8951Z" fill="black"/>
<path d="M729.95 49.5099L728.416 47.8951L726.801 49.4296L728.335 51.0444L729.95 49.5099Z" fill="black"/>
<path d="M733.019 52.7394L731.485 51.1246L729.87 52.6591L731.404 54.2739L733.019 52.7394Z" fill="black"/>
<path d="M737.623 57.5837L736.088 55.9689L734.473 57.5034L736.008 59.1182L737.623 57.5837Z" fill="black"/>
<path d="M739.157 59.1984L737.623 57.5837L736.008 59.1182L737.542 60.7329L739.157 59.1984Z" fill="black"/>
<path d="M740.692 60.8132L739.157 59.1984L737.542 60.7329L739.077 62.3477L740.692 60.8132Z" fill="black"/>
<path d="M742.226 62.428L740.692 60.8132L739.077 62.3477L740.611 63.9625L742.226 62.428Z" fill="black"/>
<path d="M743.761 64.0427L742.226 62.428L740.611 63.9625L742.146 65.5772L743.761 64.0427Z" fill="black"/>
<path d="M745.295 65.6575L743.761 64.0427L742.146 65.5772L743.68 67.192L745.295 65.6575Z" fill="black"/>
<path d="M746.83 67.2722L745.295 65.6575L743.68 67.192L745.215 68.8067L746.83 67.2722Z" fill="black"/>
<path d="M749.899 70.5018L748.364 68.887L746.749 70.4215L748.284 72.0363L749.899 70.5018Z" fill="black"/>
<path d="M752.968 73.7313L751.433 72.1165L749.818 73.651L751.353 75.2658L752.968 73.7313Z" fill="black"/>
<path d="M754.502 75.3461L752.968 73.7313L751.353 75.2658L752.887 76.8805L754.502 75.3461Z" fill="black"/>
<path d="M762.175 83.4199L760.64 81.8051L759.025 83.3396L760.56 84.9544L762.175 83.4199Z" fill="black"/>
<path d="M711.456 33.282L709.921 31.6672L708.307 33.2017L709.841 34.8165L711.456 33.282Z" fill="black"/>
<path d="M717.594 39.741L716.059 38.1263L714.445 39.6608L715.979 41.2755L717.594 39.741Z" fill="black"/>
<path d="M720.663 42.9706L719.128 41.3558L717.514 42.8903L719.048 44.505L720.663 42.9706Z" fill="black"/>
<path d="M725.266 47.8148L723.732 46.2001L722.117 47.7346L723.652 49.3493L725.266 47.8148Z" fill="black"/>
<path d="M726.801 49.4296L725.266 47.8148L723.652 49.3493L725.186 50.9641L726.801 49.4296Z" fill="black"/>
<path d="M729.87 52.6591L728.335 51.0444L726.721 52.5789L728.255 54.1936L729.87 52.6591Z" fill="black"/>
<path d="M732.939 55.8886L731.404 54.2739L729.79 55.8084L731.324 57.4231L732.939 55.8886Z" fill="black"/>
<path d="M734.473 57.5034L732.939 55.8886L731.324 57.4231L732.859 59.0379L734.473 57.5034Z" fill="black"/>
<path d="M736.008 59.1182L734.473 57.5034L732.859 59.0379L734.393 60.6527L736.008 59.1182Z" fill="black"/>
<path d="M737.542 60.7329L736.008 59.1182L734.393 60.6527L735.928 62.2674L737.542 60.7329Z" fill="black"/>
<path d="M740.611 63.9625L739.077 62.3477L737.462 63.8822L738.997 65.4969L740.611 63.9625Z" fill="black"/>
<path d="M743.68 67.192L742.146 65.5772L740.531 67.1117L742.066 68.7265L743.68 67.192Z" fill="black"/>
<path d="M745.215 68.8067L743.68 67.192L742.066 68.7265L743.6 70.3412L745.215 68.8067Z" fill="black"/>
<path d="M746.749 70.4215L745.215 68.8067L743.6 70.3412L745.135 71.956L746.749 70.4215Z" fill="black"/>
<path d="M748.284 72.0363L746.749 70.4215L745.135 71.956L746.669 73.5708L748.284 72.0363Z" fill="black"/>
<path d="M749.818 73.651L748.284 72.0363L746.669 73.5708L748.204 75.1855L749.818 73.651Z" fill="black"/>
<path d="M751.353 75.2658L749.818 73.651L748.204 75.1855L749.738 76.8003L751.353 75.2658Z" fill="black"/>
<path d="M754.422 78.4953L752.887 76.8805L751.273 78.415L752.807 80.0298L754.422 78.4953Z" fill="black"/>
<path d="M759.025 83.3396L757.491 81.7248L755.876 83.2593L757.411 84.8741L759.025 83.3396Z" fill="black"/>
<path d="M763.629 88.1839L762.094 86.5691L760.48 88.1036L762.014 89.7184L763.629 88.1839Z" fill="black"/>
<path d="M766.698 91.4134L765.163 89.7986L763.549 91.3331L765.083 92.9479L766.698 91.4134Z" fill="black"/>
<path d="M714.445 39.6608L712.91 38.046L711.295 39.5805L712.83 41.1953L714.445 39.6608Z" fill="black"/>
<path d="M717.514 42.8903L715.979 41.2755L714.364 42.81L715.899 44.4248L717.514 42.8903Z" fill="black"/>
<path d="M722.117 47.7346L720.583 46.1198L718.968 47.6543L720.502 49.2691L722.117 47.7346Z" fill="black"/>
<path d="M723.652 49.3493L722.117 47.7346L720.502 49.2691L722.037 50.8838L723.652 49.3493Z" fill="black"/>
<path d="M731.324 57.4231L729.79 55.8084L728.175 57.3429L729.709 58.9576L731.324 57.4231Z" fill="black"/>
<path d="M740.531 67.1117L738.997 65.4969L737.382 67.0314L738.916 68.6462L740.531 67.1117Z" fill="black"/>
<path d="M742.066 68.7265L740.531 67.1117L738.916 68.6462L740.451 70.261L742.066 68.7265Z" fill="black"/>
<path d="M748.204 75.1855L746.669 73.5708L745.054 75.1053L746.589 76.72L748.204 75.1855Z" fill="black"/>
<path d="M749.738 76.8003L748.204 75.1855L746.589 76.72L748.123 78.3348L749.738 76.8003Z" fill="black"/>
<path d="M754.342 81.6446L752.807 80.0298L751.192 81.5643L752.727 83.1791L754.342 81.6446Z" fill="black"/>
<path d="M757.411 84.8741L755.876 83.2593L754.261 84.7938L755.796 86.4086L757.411 84.8741Z" fill="black"/>
<path d="M762.014 89.7184L760.48 88.1036L758.865 89.6381L760.399 91.2529L762.014 89.7184Z" fill="black"/>
<path d="M763.549 91.3331L762.014 89.7184L760.399 91.2529L761.934 92.8676L763.549 91.3331Z" fill="black"/>
<path d="M765.083 92.9479L763.549 91.3331L761.934 92.8676L763.468 94.4824L765.083 92.9479Z" fill="black"/>
<path d="M709.761 37.9657L708.226 36.351L706.612 37.8855L708.146 39.5002L709.761 37.9657Z" fill="black"/>
<path d="M711.295 39.5805L709.761 37.9657L708.146 39.5002L709.681 41.115L711.295 39.5805Z" fill="black"/>
<path d="M714.364 42.81L712.83 41.1953L711.215 42.7298L712.75 44.3445L714.364 42.81Z" fill="black"/>
<path d="M715.899 44.4248L714.364 42.81L712.75 44.3445L714.284 45.9593L715.899 44.4248Z" fill="black"/>
<path d="M717.433 46.0395L715.899 44.4248L714.284 45.9593L715.819 47.574L717.433 46.0395Z" fill="black"/>
<path d="M723.571 52.4986L722.037 50.8838L720.422 52.4183L721.957 54.0331L723.571 52.4986Z" fill="black"/>
<path d="M725.106 54.1134L723.571 52.4986L721.957 54.0331L723.491 55.6478L725.106 54.1134Z" fill="black"/>
<path d="M731.244 60.5724L729.709 58.9576L728.095 60.4921L729.629 62.1069L731.244 60.5724Z" fill="black"/>
<path d="M732.778 62.1872L731.244 60.5724L729.629 62.1069L731.164 63.7217L732.778 62.1872Z" fill="black"/>
<path d="M734.313 63.8019L732.778 62.1872L731.164 63.7217L732.698 65.3364L734.313 63.8019Z" fill="black"/>
<path d="M735.847 65.4167L734.313 63.8019L732.698 65.3364L734.233 66.9512L735.847 65.4167Z" fill="black"/>
<path d="M738.916 68.6462L737.382 67.0314L735.767 68.5659L737.302 70.1807L738.916 68.6462Z" fill="black"/>
<path d="M741.985 71.8757L740.451 70.261L738.836 71.7955L740.371 73.4102L741.985 71.8757Z" fill="black"/>
<path d="M746.589 76.72L745.054 75.1053L743.44 76.6398L744.974 78.2545L746.589 76.72Z" fill="black"/>
<path d="M748.123 78.3348L746.589 76.72L744.974 78.2545L746.509 79.8693L748.123 78.3348Z" fill="black"/>
<path d="M749.658 79.9495L748.123 78.3348L746.509 79.8693L748.043 81.484L749.658 79.9495Z" fill="black"/>
<path d="M751.192 81.5643L749.658 79.9495L748.043 81.484L749.578 83.0988L751.192 81.5643Z" fill="black"/>
<path d="M757.33 88.0233L755.796 86.4086L754.181 87.9431L755.716 89.5578L757.33 88.0233Z" fill="black"/>
<path d="M758.865 89.6381L757.33 88.0233L755.716 89.5578L757.25 91.1726L758.865 89.6381Z" fill="black"/>
<path d="M760.399 91.2529L758.865 89.6381L757.25 91.1726L758.785 92.7874L760.399 91.2529Z" fill="black"/>
<path d="M706.612 37.8855L705.077 36.2707L703.462 37.8052L704.997 39.42L706.612 37.8855Z" fill="black"/>
<path d="M708.146 39.5002L706.612 37.8855L704.997 39.42L706.531 41.0347L708.146 39.5002Z" fill="black"/>
<path d="M711.215 42.7298L709.681 41.115L708.066 42.6495L709.6 44.2642L711.215 42.7298Z" fill="black"/>
<path d="M717.353 49.1888L715.819 47.574L714.204 49.1085L715.738 50.7233L717.353 49.1888Z" fill="black"/>
<path d="M721.957 54.0331L720.422 52.4183L718.807 53.9528L720.342 55.5676L721.957 54.0331Z" fill="black"/>
<path d="M725.026 57.2626L723.491 55.6478L721.876 57.1823L723.411 58.7971L725.026 57.2626Z" fill="black"/>
<path d="M728.095 60.4921L726.56 58.8774L724.945 60.4119L726.48 62.0266L728.095 60.4921Z" fill="black"/>
<path d="M729.629 62.1069L728.095 60.4921L726.48 62.0266L728.014 63.6414L729.629 62.1069Z" fill="black"/>
<path d="M735.767 68.5659L734.233 66.9512L732.618 68.4857L734.152 70.1004L735.767 68.5659Z" fill="black"/>
<path d="M738.836 71.7955L737.302 70.1807L735.687 71.7152L737.221 73.33L738.836 71.7955Z" fill="black"/>
<path d="M743.44 76.6398L741.905 75.025L740.29 76.5595L741.825 78.1742L743.44 76.6398Z" fill="black"/>
<path d="M748.043 81.484L746.509 79.8693L744.894 81.4038L746.428 83.0185L748.043 81.484Z" fill="black"/>
<path d="M749.578 83.0988L748.043 81.484L746.428 83.0185L747.963 84.6333L749.578 83.0988Z" fill="black"/>
<path d="M755.716 89.5578L754.181 87.9431L752.566 89.4776L754.101 91.0923L755.716 89.5578Z" fill="black"/>
<path d="M704.997 39.42L703.462 37.8052L701.848 39.3397L703.382 40.9545L704.997 39.42Z" fill="black"/>
<path d="M706.531 41.0347L704.997 39.42L703.382 40.9545L704.917 42.5692L706.531 41.0347Z" fill="black"/>
<path d="M711.135 45.879L709.6 44.2642L707.986 45.7987L709.52 47.4135L711.135 45.879Z" fill="black"/>
<path d="M714.204 49.1085L712.669 47.4938L711.055 49.0283L712.589 50.643L714.204 49.1085Z" fill="black"/>
<path d="M715.738 50.7233L714.204 49.1085L712.589 50.643L714.124 52.2578L715.738 50.7233Z" fill="black"/>
<path d="M717.273 52.3381L715.738 50.7233L714.124 52.2578L715.658 53.8726L717.273 52.3381Z" fill="black"/>
<path d="M726.48 62.0266L724.945 60.4119L723.331 61.9464L724.865 63.5611L726.48 62.0266Z" fill="black"/>
<path d="M728.014 63.6414L726.48 62.0266L724.865 63.5611L726.4 65.1759L728.014 63.6414Z" fill="black"/>
<path d="M731.083 66.8709L729.549 65.2562L727.934 66.7906L729.469 68.4054L731.083 66.8709Z" fill="black"/>
<path d="M734.152 70.1004L732.618 68.4857L731.003 70.0202L732.538 71.6349L734.152 70.1004Z" fill="black"/>
<path d="M735.687 71.7152L734.152 70.1004L732.538 71.6349L734.072 73.2497L735.687 71.7152Z" fill="black"/>
<path d="M740.29 76.5595L738.756 74.9447L737.141 76.4792L738.676 78.094L740.29 76.5595Z" fill="black"/>
<path d="M741.825 78.1742L740.29 76.5595L738.676 78.094L740.21 79.7087L741.825 78.1742Z" fill="black"/>
<path d="M746.428 83.0185L744.894 81.4038L743.279 82.9383L744.814 84.553L746.428 83.0185Z" fill="black"/>
<path d="M749.497 86.248L747.963 84.6333L746.348 86.1678L747.883 87.7825L749.497 86.248Z" fill="black"/>
<path d="M751.032 87.8628L749.497 86.248L747.883 87.7825L749.417 89.3973L751.032 87.8628Z" fill="black"/>
<path d="M757.17 94.3219L755.635 92.7071L754.021 94.2416L755.555 95.8564L757.17 94.3219Z" fill="black"/>
<path d="M758.704 95.9366L757.17 94.3219L755.555 95.8564L757.09 97.4711L758.704 95.9366Z" fill="black"/>
<path d="M711.055 49.0283L709.52 47.4135L707.905 48.948L709.44 50.5628L711.055 49.0283Z" fill="black"/>
<path d="M718.727 57.1021L717.193 55.4873L715.578 57.0218L717.112 58.6366L718.727 57.1021Z" fill="black"/>
<path d="M721.796 60.3316L720.262 58.7168L718.647 60.2513L720.181 61.8661L721.796 60.3316Z" fill="black"/>
<path d="M724.865 63.5611L723.331 61.9464L721.716 63.4809L723.25 65.0956L724.865 63.5611Z" fill="black"/>
<path d="M726.4 65.1759L724.865 63.5611L723.25 65.0956L724.785 66.7104L726.4 65.1759Z" fill="black"/>
<path d="M727.934 66.7906L726.4 65.1759L724.785 66.7104L726.319 68.3251L727.934 66.7906Z" fill="black"/>
<path d="M732.538 71.6349L731.003 70.0202L729.388 71.5547L730.923 73.1694L732.538 71.6349Z" fill="black"/>
<path d="M735.607 74.8645L734.072 73.2497L732.457 74.7842L733.992 76.3989L735.607 74.8645Z" fill="black"/>
<path d="M737.141 76.4792L735.607 74.8645L733.992 76.3989L735.526 78.0137L737.141 76.4792Z" fill="black"/>
<path d="M740.21 79.7087L738.676 78.094L737.061 79.6285L738.595 81.2432L740.21 79.7087Z" fill="black"/>
<path d="M743.279 82.9383L741.745 81.3235L740.13 82.858L741.664 84.4728L743.279 82.9383Z" fill="black"/>
<path d="M746.348 86.1678L744.814 84.553L743.199 86.0875L744.733 87.7023L746.348 86.1678Z" fill="black"/>
<path d="M747.883 87.7825L746.348 86.1678L744.733 87.7023L746.268 89.317L747.883 87.7825Z" fill="black"/>
<path d="M749.417 89.3973L747.883 87.7825L746.268 89.317L747.802 90.9318L749.417 89.3973Z" fill="black"/>
<path d="M752.486 92.6268L750.952 91.0121L749.337 92.5466L750.871 94.1613L752.486 92.6268Z" fill="black"/>
<path d="M757.09 97.4711L755.555 95.8564L753.94 97.3909L755.475 99.0056L757.09 97.4711Z" fill="black"/>
<path d="M701.767 42.489L700.233 40.8742L698.618 42.4087L700.153 44.0235L701.767 42.489Z" fill="black"/>
<path d="M703.302 44.1037L701.767 42.489L700.153 44.0235L701.687 45.6382L703.302 44.1037Z" fill="black"/>
<path d="M707.905 48.948L706.371 47.3332L704.756 48.8677L706.291 50.4825L707.905 48.948Z" fill="black"/>
<path d="M710.974 52.1775L709.44 50.5628L707.825 52.0973L709.36 53.712L710.974 52.1775Z" fill="black"/>
<path d="M715.578 57.0218L714.043 55.407L712.429 56.9415L713.963 58.5563L715.578 57.0218Z" fill="black"/>
<path d="M717.112 58.6366L715.578 57.0218L713.963 58.5563L715.498 60.1711L717.112 58.6366Z" fill="black"/>
<path d="M718.647 60.2513L717.112 58.6366L715.498 60.1711L717.032 61.7858L718.647 60.2513Z" fill="black"/>
<path d="M721.716 63.4809L720.181 61.8661L718.567 63.4006L720.101 65.0154L721.716 63.4809Z" fill="black"/>
<path d="M724.785 66.7104L723.25 65.0956L721.636 66.6301L723.17 68.2449L724.785 66.7104Z" fill="black"/>
<path d="M729.388 71.5547L727.854 69.9399L726.239 71.4744L727.774 73.0892L729.388 71.5547Z" fill="black"/>
<path d="M730.923 73.1694L729.388 71.5547L727.774 73.0892L729.308 74.7039L730.923 73.1694Z" fill="black"/>
<path d="M735.526 78.0137L733.992 76.3989L732.377 77.9334L733.912 79.5482L735.526 78.0137Z" fill="black"/>
<path d="M743.199 86.0875L741.664 84.4728L740.05 86.0073L741.584 87.622L743.199 86.0875Z" fill="black"/>
<path d="M750.871 94.1613L749.337 92.5466L747.722 94.0811L749.257 95.6958L750.871 94.1613Z" fill="black"/>
<path d="M700.153 44.0235L698.618 42.4087L697.003 43.9432L698.538 45.5579L700.153 44.0235Z" fill="black"/>
<path d="M704.756 48.8677L703.222 47.253L701.607 48.7875L703.141 50.4022L704.756 48.8677Z" fill="black"/>
<path d="M710.894 55.3268L709.36 53.712L707.745 55.2465L709.279 56.8613L710.894 55.3268Z" fill="black"/>
<path d="M717.032 61.7858L715.498 60.1711L713.883 61.7056L715.417 63.3203L717.032 61.7858Z" fill="black"/>
<path d="M718.567 63.4006L717.032 61.7858L715.417 63.3203L716.952 64.9351L718.567 63.4006Z" fill="black"/>
<path d="M724.705 69.8596L723.17 68.2449L721.555 69.7794L723.09 71.3941L724.705 69.8596Z" fill="black"/>
<path d="M732.377 77.9334L730.843 76.3187L729.228 77.8532L730.762 79.4679L732.377 77.9334Z" fill="black"/>
<path d="M736.981 82.7777L735.446 81.163L733.831 82.6975L735.366 84.3122L736.981 82.7777Z" fill="black"/>
<path d="M740.05 86.0073L738.515 84.3925L736.9 85.927L738.435 87.5417L740.05 86.0073Z" fill="black"/>
<path d="M744.653 90.8515L743.119 89.2368L741.504 90.7713L743.038 92.386L744.653 90.8515Z" fill="black"/>
<path d="M746.188 92.4663L744.653 90.8515L743.038 92.386L744.573 94.0008L746.188 92.4663Z" fill="black"/>
<path d="M750.791 97.3106L749.257 95.6958L747.642 97.2303L749.176 98.8451L750.791 97.3106Z" fill="black"/>
<path d="M752.325 98.9253L750.791 97.3106L749.176 98.8451L750.711 100.46L752.325 98.9253Z" fill="black"/>
<path d="M753.86 100.54L752.325 98.9253L750.711 100.46L752.245 102.075L753.86 100.54Z" fill="black"/>
<path d="M701.607 48.7875L700.072 47.1727L698.458 48.7072L699.992 50.322L701.607 48.7875Z" fill="black"/>
<path d="M703.141 50.4022L701.607 48.7875L699.992 50.322L701.527 51.9367L703.141 50.4022Z" fill="black"/>
<path d="M707.745 55.2465L706.21 53.6318L704.596 55.1663L706.13 56.781L707.745 55.2465Z" fill="black"/>
<path d="M709.279 56.8613L707.745 55.2465L706.13 56.781L707.665 58.3958L709.279 56.8613Z" fill="black"/>
<path d="M712.348 60.0908L710.814 58.476L709.199 60.0105L710.734 61.6253L712.348 60.0908Z" fill="black"/>
<path d="M713.883 61.7056L712.348 60.0908L710.734 61.6253L712.268 63.2401L713.883 61.7056Z" fill="black"/>
<path d="M715.417 63.3203L713.883 61.7056L712.268 63.2401L713.803 64.8548L715.417 63.3203Z" fill="black"/>
<path d="M720.021 68.1646L718.486 66.5498L716.872 68.0843L718.406 69.6991L720.021 68.1646Z" fill="black"/>
<path d="M723.09 71.3941L721.555 69.7794L719.941 71.3139L721.475 72.9286L723.09 71.3941Z" fill="black"/>
<path d="M730.762 79.4679L729.228 77.8532L727.613 79.3877L729.148 81.0024L730.762 79.4679Z" fill="black"/>
<path d="M733.831 82.6975L732.297 81.0827L730.682 82.6172L732.217 84.232L733.831 82.6975Z" fill="black"/>
<path d="M736.9 85.927L735.366 84.3122L733.751 85.8467L735.286 87.4615L736.9 85.927Z" fill="black"/>
<path d="M739.969 89.1565L738.435 87.5417L736.82 89.0762L738.354 90.691L739.969 89.1565Z" fill="black"/>
<path d="M741.504 90.7713L739.969 89.1565L738.354 90.691L739.889 92.3058L741.504 90.7713Z" fill="black"/>
<path d="M743.038 92.386L741.504 90.7713L739.889 92.3058L741.423 93.9205L743.038 92.386Z" fill="black"/>
<path d="M744.573 94.0008L743.038 92.386L741.423 93.9205L742.958 95.5353L744.573 94.0008Z" fill="black"/>
<path d="M747.642 97.2303L746.107 95.6156L744.492 97.1501L746.027 98.7648L747.642 97.2303Z" fill="black"/>
<path d="M753.78 103.689L752.245 102.075L750.63 103.609L752.165 105.224L753.78 103.689Z" fill="black"/>
<path d="M696.923 47.0924L695.389 45.4777L693.774 47.0122L695.308 48.6269L696.923 47.0924Z" fill="black"/>
<path d="M698.458 48.7072L696.923 47.0924L695.308 48.6269L696.843 50.2417L698.458 48.7072Z" fill="black"/>
<path d="M699.992 50.322L698.458 48.7072L696.843 50.2417L698.377 51.8565L699.992 50.322Z" fill="black"/>
<path d="M707.665 58.3958L706.13 56.781L704.515 58.3155L706.05 59.9303L707.665 58.3958Z" fill="black"/>
<path d="M709.199 60.0105L707.665 58.3958L706.05 59.9303L707.584 61.545L709.199 60.0105Z" fill="black"/>
<path d="M712.268 63.2401L710.734 61.6253L709.119 63.1598L710.653 64.7746L712.268 63.2401Z" fill="black"/>
<path d="M713.803 64.8548L712.268 63.2401L710.653 64.7746L712.188 66.3893L713.803 64.8548Z" fill="black"/>
<path d="M716.872 68.0843L715.337 66.4696L713.722 68.0041L715.257 69.6188L716.872 68.0843Z" fill="black"/>
<path d="M718.406 69.6991L716.872 68.0843L715.257 69.6188L716.791 71.2336L718.406 69.6991Z" fill="black"/>
<path d="M721.475 72.9286L719.941 71.3139L718.326 72.8484L719.86 74.4631L721.475 72.9286Z" fill="black"/>
<path d="M724.544 76.1582L723.01 74.5434L721.395 76.0779L722.929 77.6926L724.544 76.1582Z" fill="black"/>
<path d="M726.079 77.7729L724.544 76.1582L722.929 77.6926L724.464 79.3074L726.079 77.7729Z" fill="black"/>
<path d="M727.613 79.3877L726.079 77.7729L724.464 79.3074L725.998 80.9222L727.613 79.3877Z" fill="black"/>
<path d="M729.148 81.0024L727.613 79.3877L725.998 80.9222L727.533 82.5369L729.148 81.0024Z" fill="black"/>
<path d="M732.217 84.232L730.682 82.6172L729.067 84.1517L730.602 85.7665L732.217 84.232Z" fill="black"/>
<path d="M733.751 85.8467L732.217 84.232L730.602 85.7665L732.136 87.3812L733.751 85.8467Z" fill="black"/>
<path d="M735.286 87.4615L733.751 85.8467L732.136 87.3812L733.671 88.996L735.286 87.4615Z" fill="black"/>
<path d="M738.354 90.691L736.82 89.0762L735.205 90.6107L736.74 92.2255L738.354 90.691Z" fill="black"/>
<path d="M739.889 92.3058L738.354 90.691L736.74 92.2255L738.274 93.8403L739.889 92.3058Z" fill="black"/>
<path d="M741.423 93.9205L739.889 92.3058L738.274 93.8403L739.809 95.455L741.423 93.9205Z" fill="black"/>
<path d="M742.958 95.5353L741.423 93.9205L739.809 95.455L741.343 97.0698L742.958 95.5353Z" fill="black"/>
<path d="M752.165 105.224L750.63 103.609L749.016 105.144L750.55 106.758L752.165 105.224Z" fill="black"/>
<path d="M695.308 48.6269L693.774 47.0122L692.159 48.5467L693.694 50.1614L695.308 48.6269Z" fill="black"/>
<path d="M704.515 58.3155L702.981 56.7007L701.366 58.2352L702.901 59.85L704.515 58.3155Z" fill="black"/>
<path d="M706.05 59.9303L704.515 58.3155L702.901 59.85L704.435 61.4648L706.05 59.9303Z" fill="black"/>
<path d="M710.653 64.7746L709.119 63.1598L707.504 64.6943L709.039 66.309L710.653 64.7746Z" fill="black"/>
<path d="M712.188 66.3893L710.653 64.7746L709.039 66.309L710.573 67.9238L712.188 66.3893Z" fill="black"/>
<path d="M716.791 71.2336L715.257 69.6188L713.642 71.1533L715.177 72.7681L716.791 71.2336Z" fill="black"/>
<path d="M724.464 79.3074L722.929 77.6926L721.315 79.2271L722.849 80.8419L724.464 79.3074Z" fill="black"/>
<path d="M725.998 80.9222L724.464 79.3074L722.849 80.8419L724.384 82.4567L725.998 80.9222Z" fill="black"/>
<path d="M727.533 82.5369L725.998 80.9222L724.384 82.4567L725.918 84.0714L727.533 82.5369Z" fill="black"/>
<path d="M729.067 84.1517L727.533 82.5369L725.918 84.0714L727.452 85.6862L729.067 84.1517Z" fill="black"/>
<path d="M730.602 85.7665L729.067 84.1517L727.452 85.6862L728.987 87.301L730.602 85.7665Z" fill="black"/>
<path d="M732.136 87.3812L730.602 85.7665L728.987 87.301L730.521 88.9157L732.136 87.3812Z" fill="black"/>
<path d="M739.809 95.455L738.274 93.8403L736.659 95.3748L738.194 96.9895L739.809 95.455Z" fill="black"/>
<path d="M744.412 100.299L742.878 98.6845L741.263 100.219L742.797 101.834L744.412 100.299Z" fill="black"/>
<path d="M745.947 101.914L744.412 100.299L742.797 101.834L744.332 103.449L745.947 101.914Z" fill="black"/>
<path d="M693.694 50.1614L692.159 48.5467L690.544 50.0812L692.079 51.6959L693.694 50.1614Z" fill="black"/>
<path d="M695.228 51.7762L693.694 50.1614L692.079 51.6959L693.613 53.3107L695.228 51.7762Z" fill="black"/>
<path d="M696.763 53.391L695.228 51.7762L693.613 53.3107L695.148 54.9255L696.763 53.391Z" fill="black"/>
<path d="M698.297 55.0057L696.763 53.391L695.148 54.9255L696.682 56.5402L698.297 55.0057Z" fill="black"/>
<path d="M699.832 56.6205L698.297 55.0057L696.682 56.5402L698.217 58.155L699.832 56.6205Z" fill="black"/>
<path d="M705.97 63.0795L704.435 61.4648L702.82 62.9993L704.355 64.614L705.97 63.0795Z" fill="black"/>
<path d="M709.039 66.309L707.504 64.6943L705.889 66.2288L707.424 67.8435L709.039 66.309Z" fill="black"/>
<path d="M713.642 71.1533L712.108 69.5386L710.493 71.0731L712.027 72.6878L713.642 71.1533Z" fill="black"/>
<path d="M716.711 74.3829L715.177 72.7681L713.562 74.3026L715.096 75.9174L716.711 74.3829Z" fill="black"/>
<path d="M718.246 75.9976L716.711 74.3829L715.096 75.9174L716.631 77.5321L718.246 75.9976Z" fill="black"/>
<path d="M721.315 79.2271L719.78 77.6124L718.165 79.1469L719.7 80.7616L721.315 79.2271Z" fill="black"/>
<path d="M727.452 85.6862L725.918 84.0714L724.303 85.6059L725.838 87.2207L727.452 85.6862Z" fill="black"/>
<path d="M730.521 88.9157L728.987 87.301L727.372 88.8354L728.907 90.4502L730.521 88.9157Z" fill="black"/>
<path d="M738.194 96.9895L736.659 95.3748L735.045 96.9093L736.579 98.524L738.194 96.9895Z" fill="black"/>
<path d="M741.263 100.219L739.728 98.6043L738.114 100.139L739.648 101.754L741.263 100.219Z" fill="black"/>
<path d="M742.797 101.834L741.263 100.219L739.648 101.754L741.183 103.368L742.797 101.834Z" fill="black"/>
<path d="M744.332 103.449L742.797 101.834L741.183 103.368L742.717 104.983L744.332 103.449Z" fill="black"/>
<path d="M745.866 105.063L744.332 103.449L742.717 104.983L744.252 106.598L745.866 105.063Z" fill="black"/>
<path d="M692.079 51.6959L690.544 50.0812L688.93 51.6157L690.464 53.2304L692.079 51.6959Z" fill="black"/>
<path d="M693.613 53.3107L692.079 51.6959L690.464 53.2304L691.999 54.8452L693.613 53.3107Z" fill="black"/>
<path d="M699.751 59.7697L698.217 58.155L696.602 59.6895L698.137 61.3042L699.751 59.7697Z" fill="black"/>
<path d="M701.286 61.3845L699.751 59.7697L698.137 61.3042L699.671 62.919L701.286 61.3845Z" fill="black"/>
<path d="M702.82 62.9993L701.286 61.3845L699.671 62.919L701.206 64.5338L702.82 62.9993Z" fill="black"/>
<path d="M704.355 64.614L702.82 62.9993L701.206 64.5338L702.74 66.1485L704.355 64.614Z" fill="black"/>
<path d="M712.027 72.6878L710.493 71.0731L708.878 72.6076L710.413 74.2223L712.027 72.6878Z" fill="black"/>
<path d="M715.096 75.9174L713.562 74.3026L711.947 75.8371L713.482 77.4519L715.096 75.9174Z" fill="black"/>
<path d="M716.631 77.5321L715.096 75.9174L713.482 77.4519L715.016 79.0666L716.631 77.5321Z" fill="black"/>
<path d="M718.165 79.1469L716.631 77.5321L715.016 79.0666L716.55 80.6814L718.165 79.1469Z" fill="black"/>
<path d="M724.303 85.6059L722.769 83.9912L721.154 85.5257L722.688 87.1404L724.303 85.6059Z" fill="black"/>
<path d="M728.907 90.4502L727.372 88.8354L725.757 90.3699L727.292 91.9847L728.907 90.4502Z" fill="black"/>
<path d="M730.441 92.065L728.907 90.4502L727.292 91.9847L728.826 93.5995L730.441 92.065Z" fill="black"/>
<path d="M731.976 93.6797L730.441 92.065L728.826 93.5995L730.361 95.2142L731.976 93.6797Z" fill="black"/>
<path d="M735.045 96.9093L733.51 95.2945L731.895 96.829L733.43 98.4438L735.045 96.9093Z" fill="black"/>
<path d="M736.579 98.524L735.045 96.9093L733.43 98.4438L734.964 100.059L736.579 98.524Z" fill="black"/>
<path d="M742.717 104.983L741.183 103.368L739.568 104.903L741.102 106.518L742.717 104.983Z" fill="black"/>
<path d="M745.786 108.213L744.252 106.598L742.637 108.132L744.171 109.747L745.786 108.213Z" fill="black"/>
<path d="M747.321 109.827L745.786 108.213L744.171 109.747L745.706 111.362L747.321 109.827Z" fill="black"/>
<path d="M690.464 53.2304L688.93 51.6157L687.315 53.1502L688.849 54.7649L690.464 53.2304Z" fill="black"/>
<path d="M691.999 54.8452L690.464 53.2304L688.849 54.7649L690.384 56.3797L691.999 54.8452Z" fill="black"/>
<path d="M693.533 56.4599L691.999 54.8452L690.384 56.3797L691.918 57.9944L693.533 56.4599Z" fill="black"/>
<path d="M695.068 58.0747L693.533 56.4599L691.918 57.9944L693.453 59.6092L695.068 58.0747Z" fill="black"/>
<path d="M698.137 61.3042L696.602 59.6895L694.987 61.224L696.522 62.8387L698.137 61.3042Z" fill="black"/>
<path d="M701.206 64.5338L699.671 62.919L698.056 64.4535L699.591 66.0683L701.206 64.5338Z" fill="black"/>
<path d="M702.74 66.1485L701.206 64.5338L699.591 66.0683L701.125 67.683L702.74 66.1485Z" fill="black"/>
<path d="M705.809 69.378L704.275 67.7633L702.66 69.2978L704.194 70.9125L705.809 69.378Z" fill="black"/>
<path d="M707.344 70.9928L705.809 69.378L704.194 70.9125L705.729 72.5273L707.344 70.9928Z" fill="black"/>
<path d="M708.878 72.6076L707.344 70.9928L705.729 72.5273L707.263 74.1421L708.878 72.6076Z" fill="black"/>
<path d="M710.413 74.2223L708.878 72.6076L707.263 74.1421L708.798 75.7568L710.413 74.2223Z" fill="black"/>
<path d="M716.55 80.6814L715.016 79.0666L713.401 80.6011L714.936 82.2159L716.55 80.6814Z" fill="black"/>
<path d="M719.619 83.9109L718.085 82.2961L716.47 83.8306L718.005 85.4454L719.619 83.9109Z" fill="black"/>
<path d="M721.154 85.5257L719.619 83.9109L718.005 85.4454L719.539 87.0602L721.154 85.5257Z" fill="black"/>
<path d="M722.688 87.1404L721.154 85.5257L719.539 87.0602L721.074 88.6749L722.688 87.1404Z" fill="black"/>
<path d="M724.223 88.7552L722.688 87.1404L721.074 88.6749L722.608 90.2897L724.223 88.7552Z" fill="black"/>
<path d="M733.43 98.4438L731.895 96.829L730.281 98.3635L731.815 99.9782L733.43 98.4438Z" fill="black"/>
<path d="M736.499 101.673L734.964 100.059L733.35 101.593L734.884 103.208L736.499 101.673Z" fill="black"/>
<path d="M738.033 103.288L736.499 101.673L734.884 103.208L736.419 104.823L738.033 103.288Z" fill="black"/>
<path d="M690.384 56.3797L688.849 54.7649L687.235 56.2994L688.769 57.9142L690.384 56.3797Z" fill="black"/>
<path d="M698.056 64.4535L696.522 62.8387L694.907 64.3732L696.442 65.988L698.056 64.4535Z" fill="black"/>
<path d="M702.66 69.2978L701.125 67.683L699.511 69.2175L701.045 70.8323L702.66 69.2978Z" fill="black"/>
<path d="M705.729 72.5273L704.194 70.9125L702.579 72.447L704.114 74.0618L705.729 72.5273Z" fill="black"/>
<path d="M707.263 74.1421L705.729 72.5273L704.114 74.0618L705.648 75.6766L707.263 74.1421Z" fill="black"/>
<path d="M708.798 75.7568L707.263 74.1421L705.648 75.6766L707.183 77.2913L708.798 75.7568Z" fill="black"/>
<path d="M713.401 80.6011L711.867 78.9863L710.252 80.5208L711.786 82.1356L713.401 80.6011Z" fill="black"/>
<path d="M716.47 83.8306L714.936 82.2159L713.321 83.7504L714.855 85.3651L716.47 83.8306Z" fill="black"/>
<path d="M719.539 87.0602L718.005 85.4454L716.39 86.9799L717.924 88.5947L719.539 87.0602Z" fill="black"/>
<path d="M727.212 95.134L725.677 93.5192L724.062 95.0537L725.597 96.6685L727.212 95.134Z" fill="black"/>
<path d="M730.281 98.3635L728.746 96.7487L727.131 98.2832L728.666 99.898L730.281 98.3635Z" fill="black"/>
<path d="M731.815 99.9782L730.281 98.3635L728.666 99.898L730.2 101.513L731.815 99.9782Z" fill="black"/>
<path d="M736.419 104.823L734.884 103.208L733.269 104.742L734.804 106.357L736.419 104.823Z" fill="black"/>
<path d="M737.953 106.437L736.419 104.823L734.804 106.357L736.338 107.972L737.953 106.437Z" fill="black"/>
<path d="M741.022 109.667L739.488 108.052L737.873 109.587L739.407 111.201L741.022 109.667Z" fill="black"/>
<path d="M744.091 112.896L742.557 111.282L740.942 112.816L742.476 114.431L744.091 112.896Z" fill="black"/>
<path d="M687.235 56.2994L685.7 54.6847L684.085 56.2191L685.62 57.8339L687.235 56.2994Z" fill="black"/>
<path d="M688.769 57.9142L687.235 56.2994L685.62 57.8339L687.154 59.4487L688.769 57.9142Z" fill="black"/>
<path d="M690.304 59.5289L688.769 57.9142L687.154 59.4487L688.689 61.0634L690.304 59.5289Z" fill="black"/>
<path d="M691.838 61.1437L690.304 59.5289L688.689 61.0634L690.223 62.6782L691.838 61.1437Z" fill="black"/>
<path d="M693.373 62.7585L691.838 61.1437L690.223 62.6782L691.758 64.293L693.373 62.7585Z" fill="black"/>
<path d="M697.976 67.6028L696.442 65.988L694.827 67.5225L696.361 69.1372L697.976 67.6028Z" fill="black"/>
<path d="M708.717 78.9061L707.183 77.2913L705.568 78.8258L707.103 80.4406L708.717 78.9061Z" fill="black"/>
<path d="M711.786 82.1356L710.252 80.5208L708.637 82.0553L710.172 83.6701L711.786 82.1356Z" fill="black"/>
<path d="M716.39 86.9799L714.855 85.3651L713.241 86.8996L714.775 88.5144L716.39 86.9799Z" fill="black"/>
<path d="M725.597 96.6685L724.062 95.0537L722.448 96.5882L723.982 98.203L725.597 96.6685Z" fill="black"/>
<path d="M727.131 98.2832L725.597 96.6685L723.982 98.203L725.517 99.8177L727.131 98.2832Z" fill="black"/>
<path d="M730.2 101.513L728.666 99.898L727.051 101.432L728.586 103.047L730.2 101.513Z" fill="black"/>
<path d="M734.804 106.357L733.269 104.742L731.655 106.277L733.189 107.892L734.804 106.357Z" fill="black"/>
<path d="M736.338 107.972L734.804 106.357L733.189 107.892L734.724 109.506L736.338 107.972Z" fill="black"/>
<path d="M737.873 109.587L736.338 107.972L734.724 109.506L736.258 111.121L737.873 109.587Z" fill="black"/>
<path d="M739.407 111.201L737.873 109.587L736.258 111.121L737.793 112.736L739.407 111.201Z" fill="black"/>
<path d="M694.827 67.5225L693.292 65.9077L691.678 67.4422L693.212 69.057L694.827 67.5225Z" fill="black"/>
<path d="M696.361 69.1372L694.827 67.5225L693.212 69.057L694.746 70.6717L696.361 69.1372Z" fill="black"/>
<path d="M702.499 75.5963L700.965 73.9815L699.35 75.516L700.884 77.1308L702.499 75.5963Z" fill="black"/>
<path d="M705.568 78.8258L704.034 77.2111L702.419 78.7455L703.953 80.3603L705.568 78.8258Z" fill="black"/>
<path d="M707.103 80.4406L705.568 78.8258L703.953 80.3603L705.488 81.9751L707.103 80.4406Z" fill="black"/>
<path d="M710.172 83.6701L708.637 82.0553L707.022 83.5898L708.557 85.2046L710.172 83.6701Z" fill="black"/>
<path d="M711.706 85.2849L710.172 83.6701L708.557 85.2046L710.091 86.8194L711.706 85.2849Z" fill="black"/>
<path d="M713.241 86.8996L711.706 85.2849L710.091 86.8194L711.626 88.4341L713.241 86.8996Z" fill="black"/>
<path d="M714.775 88.5144L713.241 86.8996L711.626 88.4341L713.16 90.0489L714.775 88.5144Z" fill="black"/>
<path d="M716.31 90.1291L714.775 88.5144L713.16 90.0489L714.695 91.6636L716.31 90.1291Z" fill="black"/>
<path d="M717.844 91.7439L716.31 90.1291L714.695 91.6636L716.229 93.2784L717.844 91.7439Z" fill="black"/>
<path d="M719.379 93.3587L717.844 91.7439L716.229 93.2784L717.764 94.8932L719.379 93.3587Z" fill="black"/>
<path d="M720.913 94.9734L719.379 93.3587L717.764 94.8932L719.298 96.5079L720.913 94.9734Z" fill="black"/>
<path d="M722.448 96.5882L720.913 94.9734L719.298 96.5079L720.833 98.1227L722.448 96.5882Z" fill="black"/>
<path d="M725.517 99.8177L723.982 98.203L722.367 99.7374L723.902 101.352L725.517 99.8177Z" fill="black"/>
<path d="M728.586 103.047L727.051 101.432L725.436 102.967L726.971 104.582L728.586 103.047Z" fill="black"/>
<path d="M736.258 111.121L734.724 109.506L733.109 111.041L734.643 112.656L736.258 111.121Z" fill="black"/>
<path d="M687.074 62.5979L685.54 60.9832L683.925 62.5177L685.459 64.1324L687.074 62.5979Z" fill="black"/>
<path d="M696.281 72.2865L694.746 70.6717L693.132 72.2062L694.666 73.821L696.281 72.2865Z" fill="black"/>
<path d="M697.815 73.9013L696.281 72.2865L694.666 73.821L696.201 75.4358L697.815 73.9013Z" fill="black"/>
<path d="M699.35 75.516L697.815 73.9013L696.201 75.4358L697.735 77.0505L699.35 75.516Z" fill="black"/>
<path d="M702.419 78.7455L700.884 77.1308L699.27 78.6653L700.804 80.28L702.419 78.7455Z" fill="black"/>
<path d="M703.953 80.3603L702.419 78.7455L700.804 80.28L702.339 81.8948L703.953 80.3603Z" fill="black"/>
<path d="M705.488 81.9751L703.953 80.3603L702.339 81.8948L703.873 83.5096L705.488 81.9751Z" fill="black"/>
<path d="M707.022 83.5898L705.488 81.9751L703.873 83.5096L705.408 85.1243L707.022 83.5898Z" fill="black"/>
<path d="M710.091 86.8194L708.557 85.2046L706.942 86.7391L708.477 88.3539L710.091 86.8194Z" fill="black"/>
<path d="M711.626 88.4341L710.091 86.8194L708.477 88.3539L710.011 89.9686L711.626 88.4341Z" fill="black"/>
<path d="M713.16 90.0489L711.626 88.4341L710.011 89.9686L711.546 91.5834L713.16 90.0489Z" fill="black"/>
<path d="M716.229 93.2784L714.695 91.6636L713.08 93.1981L714.615 94.8129L716.229 93.2784Z" fill="black"/>
<path d="M717.764 94.8932L716.229 93.2784L714.615 94.8129L716.149 96.4277L717.764 94.8932Z" fill="black"/>
<path d="M722.367 99.7374L720.833 98.1227L719.218 99.6572L720.753 101.272L722.367 99.7374Z" fill="black"/>
<path d="M723.902 101.352L722.367 99.7374L720.753 101.272L722.287 102.887L723.902 101.352Z" fill="black"/>
<path d="M728.505 106.196L726.971 104.582L725.356 106.116L726.891 107.731L728.505 106.196Z" fill="black"/>
<path d="M731.574 109.426L730.04 107.811L728.425 109.346L729.96 110.961L731.574 109.426Z" fill="black"/>
<path d="M733.109 111.041L731.574 109.426L729.96 110.961L731.494 112.575L733.109 111.041Z" fill="black"/>
<path d="M683.925 62.5177L682.39 60.9029L680.775 62.4374L682.31 64.0522L683.925 62.5177Z" fill="black"/>
<path d="M688.528 67.3619L686.994 65.7472L685.379 67.2817L686.913 68.8964L688.528 67.3619Z" fill="black"/>
<path d="M691.597 70.5915L690.063 68.9767L688.448 70.5112L689.982 72.126L691.597 70.5915Z" fill="black"/>
<path d="M693.132 72.2062L691.597 70.5915L689.982 72.126L691.517 73.7407L693.132 72.2062Z" fill="black"/>
<path d="M694.666 73.821L693.132 72.2062L691.517 73.7407L693.051 75.3555L694.666 73.821Z" fill="black"/>
<path d="M702.339 81.8948L700.804 80.28L699.189 81.8145L700.724 83.4293L702.339 81.8948Z" fill="black"/>
<path d="M710.011 89.9686L708.477 88.3539L706.862 89.8883L708.396 91.5031L710.011 89.9686Z" fill="black"/>
<path d="M711.546 91.5834L710.011 89.9686L708.396 91.5031L709.931 93.1179L711.546 91.5834Z" fill="black"/>
<path d="M713.08 93.1981L711.546 91.5834L709.931 93.1179L711.465 94.7326L713.08 93.1981Z" fill="black"/>
<path d="M716.149 96.4277L714.615 94.8129L713 96.3474L714.534 97.9622L716.149 96.4277Z" fill="black"/>
<path d="M717.684 98.0424L716.149 96.4277L714.534 97.9622L716.069 99.5769L717.684 98.0424Z" fill="black"/>
<path d="M719.218 99.6572L717.684 98.0424L716.069 99.5769L717.603 101.192L719.218 99.6572Z" fill="black"/>
<path d="M720.753 101.272L719.218 99.6572L717.603 101.192L719.138 102.806L720.753 101.272Z" fill="black"/>
<path d="M723.822 104.501L722.287 102.887L720.672 104.421L722.207 106.036L723.822 104.501Z" fill="black"/>
<path d="M725.356 106.116L723.822 104.501L722.207 106.036L723.741 107.651L725.356 106.116Z" fill="black"/>
<path d="M726.891 107.731L725.356 106.116L723.741 107.651L725.276 109.265L726.891 107.731Z" fill="black"/>
<path d="M728.425 109.346L726.891 107.731L725.276 109.265L726.81 110.88L728.425 109.346Z" fill="black"/>
<path d="M729.96 110.961L728.425 109.346L726.81 110.88L728.345 112.495L729.96 110.961Z" fill="black"/>
<path d="M731.494 112.575L729.96 110.961L728.345 112.495L729.879 114.11L731.494 112.575Z" fill="black"/>
<path d="M734.563 115.805L733.029 114.19L731.414 115.725L732.948 117.339L734.563 115.805Z" fill="black"/>
<path d="M737.632 119.034L736.098 117.42L734.483 118.954L736.017 120.569L737.632 119.034Z" fill="black"/>
<path d="M693.051 75.3555L691.517 73.7407L689.902 75.2752L691.437 76.89L693.051 75.3555Z" fill="black"/>
<path d="M700.724 83.4293L699.189 81.8145L697.575 83.349L699.109 84.9638L700.724 83.4293Z" fill="black"/>
<path d="M702.258 85.0441L700.724 83.4293L699.109 84.9638L700.644 86.5786L702.258 85.0441Z" fill="black"/>
<path d="M703.793 86.6588L702.258 85.0441L700.644 86.5786L702.178 88.1933L703.793 86.6588Z" fill="black"/>
<path d="M706.862 89.8883L705.327 88.2736L703.713 89.8081L705.247 91.4228L706.862 89.8883Z" fill="black"/>
<path d="M709.931 93.1179L708.396 91.5031L706.782 93.0376L708.316 94.6524L709.931 93.1179Z" fill="black"/>
<path d="M711.465 94.7326L709.931 93.1179L708.316 94.6524L709.851 96.2671L711.465 94.7326Z" fill="black"/>
<path d="M713 96.3474L711.465 94.7326L709.851 96.2671L711.385 97.8819L713 96.3474Z" fill="black"/>
<path d="M717.603 101.192L716.069 99.5769L714.454 101.111L715.989 102.726L717.603 101.192Z" fill="black"/>
<path d="M720.672 104.421L719.138 102.806L717.523 104.341L719.058 105.956L720.672 104.421Z" fill="black"/>
<path d="M722.207 106.036L720.672 104.421L719.058 105.956L720.592 107.57L722.207 106.036Z" fill="black"/>
<path d="M723.741 107.651L722.207 106.036L720.592 107.57L722.127 109.185L723.741 107.651Z" fill="black"/>
<path d="M729.879 114.11L728.345 112.495L726.73 114.029L728.265 115.644L729.879 114.11Z" fill="black"/>
<path d="M732.948 117.339L731.414 115.725L729.799 117.259L731.334 118.874L732.948 117.339Z" fill="black"/>
<path d="M736.017 120.569L734.483 118.954L732.868 120.489L734.403 122.103L736.017 120.569Z" fill="black"/>
<path d="M679.161 63.9719L677.626 62.3571L676.011 63.8916L677.546 65.5064L679.161 63.9719Z" fill="black"/>
<path d="M680.695 65.5867L679.161 63.9719L677.546 65.5064L679.08 67.1212L680.695 65.5867Z" fill="black"/>
<path d="M682.23 67.2014L680.695 65.5867L679.08 67.1212L680.615 68.7359L682.23 67.2014Z" fill="black"/>
<path d="M683.764 68.8162L682.23 67.2014L680.615 68.7359L682.149 70.3507L683.764 68.8162Z" fill="black"/>
<path d="M685.299 70.4309L683.764 68.8162L682.149 70.3507L683.684 71.9654L685.299 70.4309Z" fill="black"/>
<path d="M686.833 72.0457L685.299 70.4309L683.684 71.9654L685.218 73.5802L686.833 72.0457Z" fill="black"/>
<path d="M688.368 73.6605L686.833 72.0457L685.218 73.5802L686.753 75.195L688.368 73.6605Z" fill="black"/>
<path d="M692.971 78.5047L691.437 76.89L689.822 78.4245L691.356 80.0392L692.971 78.5047Z" fill="black"/>
<path d="M694.506 80.1195L692.971 78.5047L691.356 80.0392L692.891 81.654L694.506 80.1195Z" fill="black"/>
<path d="M697.575 83.349L696.04 81.7343L694.425 83.2688L695.96 84.8835L697.575 83.349Z" fill="black"/>
<path d="M702.178 88.1933L700.644 86.5786L699.029 88.1131L700.563 89.7278L702.178 88.1933Z" fill="black"/>
<path d="M703.713 89.8081L702.178 88.1933L700.563 89.7278L702.098 91.3426L703.713 89.8081Z" fill="black"/>
<path d="M705.247 91.4228L703.713 89.8081L702.098 91.3426L703.632 92.9573L705.247 91.4228Z" fill="black"/>
<path d="M706.782 93.0376L705.247 91.4228L703.632 92.9573L705.167 94.5721L706.782 93.0376Z" fill="black"/>
<path d="M709.851 96.2671L708.316 94.6524L706.701 96.1869L708.236 97.8016L709.851 96.2671Z" fill="black"/>
<path d="M714.454 101.111L712.92 99.4966L711.305 101.031L712.839 102.646L714.454 101.111Z" fill="black"/>
<path d="M715.989 102.726L714.454 101.111L712.839 102.646L714.374 104.261L715.989 102.726Z" fill="black"/>
<path d="M719.058 105.956L717.523 104.341L715.908 105.875L717.443 107.49L719.058 105.956Z" fill="black"/>
<path d="M722.127 109.185L720.592 107.57L718.977 109.105L720.512 110.72L722.127 109.185Z" fill="black"/>
<path d="M725.196 112.415L723.661 110.8L722.046 112.334L723.581 113.949L725.196 112.415Z" fill="black"/>
<path d="M728.265 115.644L726.73 114.029L725.115 115.564L726.65 117.179L728.265 115.644Z" fill="black"/>
<path d="M729.799 117.259L728.265 115.644L726.65 117.179L728.184 118.794L729.799 117.259Z" fill="black"/>
<path d="M732.868 120.489L731.334 118.874L729.719 120.408L731.253 122.023L732.868 120.489Z" fill="black"/>
<path d="M677.546 65.5064L676.011 63.8916L674.397 65.4261L675.931 67.0409L677.546 65.5064Z" fill="black"/>
<path d="M686.753 75.195L685.218 73.5802L683.604 75.1147L685.138 76.7295L686.753 75.195Z" fill="black"/>
<path d="M691.356 80.0392L689.822 78.4245L688.207 79.959L689.742 81.5737L691.356 80.0392Z" fill="black"/>
<path d="M694.425 83.2688L692.891 81.654L691.276 83.1885L692.811 84.8033L694.425 83.2688Z" fill="black"/>
<path d="M700.563 89.7278L699.029 88.1131L697.414 89.6475L698.949 91.2623L700.563 89.7278Z" fill="black"/>
<path d="M703.632 92.9573L702.098 91.3426L700.483 92.8771L702.018 94.4918L703.632 92.9573Z" fill="black"/>
<path d="M705.167 94.5721L703.632 92.9573L702.018 94.4918L703.552 96.1066L705.167 94.5721Z" fill="black"/>
<path d="M706.701 96.1869L705.167 94.5721L703.552 96.1066L705.087 97.7214L706.701 96.1869Z" fill="black"/>
<path d="M708.236 97.8016L706.701 96.1869L705.087 97.7214L706.621 99.3361L708.236 97.8016Z" fill="black"/>
<path d="M711.305 101.031L709.77 99.4164L708.156 100.951L709.69 102.566L711.305 101.031Z" fill="black"/>
<path d="M712.839 102.646L711.305 101.031L709.69 102.566L711.225 104.18L712.839 102.646Z" fill="black"/>
<path d="M718.977 109.105L717.443 107.49L715.828 109.025L717.363 110.639L718.977 109.105Z" fill="black"/>
<path d="M720.512 110.72L718.977 109.105L717.363 110.639L718.897 112.254L720.512 110.72Z" fill="black"/>
<path d="M726.65 117.179L725.115 115.564L723.501 117.098L725.035 118.713L726.65 117.179Z" fill="black"/>
<path d="M732.788 123.638L731.253 122.023L729.639 123.558L731.173 125.172L732.788 123.638Z" fill="black"/>
<path d="M675.931 67.0409L674.397 65.4261L672.782 66.9606L674.316 68.5754L675.931 67.0409Z" fill="black"/>
<path d="M679 70.2704L677.466 68.6556L675.851 70.1901L677.385 71.8049L679 70.2704Z" fill="black"/>
<path d="M680.535 71.8852L679 70.2704L677.385 71.8049L678.92 73.4197L680.535 71.8852Z" fill="black"/>
<path d="M682.069 73.4999L680.535 71.8852L678.92 73.4197L680.454 75.0344L682.069 73.4999Z" fill="black"/>
<path d="M685.138 76.7295L683.604 75.1147L681.989 76.6492L683.523 78.264L685.138 76.7295Z" fill="black"/>
<path d="M688.207 79.959L686.673 78.3442L685.058 79.8787L686.592 81.4935L688.207 79.959Z" fill="black"/>
<path d="M689.742 81.5737L688.207 79.959L686.592 81.4935L688.127 83.1082L689.742 81.5737Z" fill="black"/>
<path d="M691.276 83.1885L689.742 81.5737L688.127 83.1082L689.661 84.723L691.276 83.1885Z" fill="black"/>
<path d="M695.88 88.0328L694.345 86.418L692.73 87.9525L694.265 89.5673L695.88 88.0328Z" fill="black"/>
<path d="M697.414 89.6475L695.88 88.0328L694.265 89.5673L695.799 91.182L697.414 89.6475Z" fill="black"/>
<path d="M700.483 92.8771L698.949 91.2623L697.334 92.7968L698.868 94.4116L700.483 92.8771Z" fill="black"/>
<path d="M705.087 97.7214L703.552 96.1066L701.937 97.6411L703.472 99.2559L705.087 97.7214Z" fill="black"/>
<path d="M706.621 99.3361L705.087 97.7214L703.472 99.2559L705.006 100.871L706.621 99.3361Z" fill="black"/>
<path d="M708.156 100.951L706.621 99.3361L705.006 100.871L706.541 102.485L708.156 100.951Z" fill="black"/>
<path d="M711.225 104.18L709.69 102.566L708.075 104.1L709.61 105.715L711.225 104.18Z" fill="black"/>
<path d="M712.759 105.795L711.225 104.18L709.61 105.715L711.144 107.33L712.759 105.795Z" fill="black"/>
<path d="M714.294 107.41L712.759 105.795L711.144 107.33L712.679 108.944L714.294 107.41Z" fill="black"/>
<path d="M718.897 112.254L717.363 110.639L715.748 112.174L717.282 113.789L718.897 112.254Z" fill="black"/>
<path d="M720.432 113.869L718.897 112.254L717.282 113.789L718.817 115.403L720.432 113.869Z" fill="black"/>
<path d="M721.966 115.484L720.432 113.869L718.817 115.403L720.351 117.018L721.966 115.484Z" fill="black"/>
<path d="M723.501 117.098L721.966 115.484L720.351 117.018L721.886 118.633L723.501 117.098Z" fill="black"/>
<path d="M725.035 118.713L723.501 117.098L721.886 118.633L723.42 120.248L725.035 118.713Z" fill="black"/>
<path d="M728.104 121.943L726.57 120.328L724.955 121.863L726.489 123.477L728.104 121.943Z" fill="black"/>
<path d="M729.639 123.558L728.104 121.943L726.489 123.477L728.024 125.092L729.639 123.558Z" fill="black"/>
<path d="M674.316 68.5754L672.782 66.9606L671.167 68.4951L672.702 70.1099L674.316 68.5754Z" fill="black"/>
<path d="M677.385 71.8049L675.851 70.1901L674.236 71.7246L675.771 73.3394L677.385 71.8049Z" fill="black"/>
<path d="M678.92 73.4197L677.385 71.8049L675.771 73.3394L677.305 74.9542L678.92 73.4197Z" fill="black"/>
<path d="M680.454 75.0344L678.92 73.4197L677.305 74.9542L678.84 76.5689L680.454 75.0344Z" fill="black"/>
<path d="M683.523 78.264L681.989 76.6492L680.374 78.1837L681.909 79.7984L683.523 78.264Z" fill="black"/>
<path d="M688.127 83.1082L686.592 81.4935L684.978 83.028L686.512 84.6427L688.127 83.1082Z" fill="black"/>
<path d="M689.661 84.723L688.127 83.1082L686.512 84.6427L688.047 86.2575L689.661 84.723Z" fill="black"/>
<path d="M691.196 86.3378L689.661 84.723L688.047 86.2575L689.581 87.8723L691.196 86.3378Z" fill="black"/>
<path d="M692.73 87.9525L691.196 86.3378L689.581 87.8723L691.116 89.487L692.73 87.9525Z" fill="black"/>
<path d="M694.265 89.5673L692.73 87.9525L691.116 89.487L692.65 91.1018L694.265 89.5673Z" fill="black"/>
<path d="M695.799 91.182L694.265 89.5673L692.65 91.1018L694.185 92.7165L695.799 91.182Z" fill="black"/>
<path d="M697.334 92.7968L695.799 91.182L694.185 92.7165L695.719 94.3313L697.334 92.7968Z" fill="black"/>
<path d="M703.472 99.2559L701.937 97.6411L700.323 99.1756L701.857 100.79L703.472 99.2559Z" fill="black"/>
<path d="M708.075 104.1L706.541 102.485L704.926 104.02L706.461 105.635L708.075 104.1Z" fill="black"/>
<path d="M709.61 105.715L708.075 104.1L706.461 105.635L707.995 107.249L709.61 105.715Z" fill="black"/>
<path d="M715.748 112.174L714.213 110.559L712.599 112.094L714.133 113.708L715.748 112.174Z" fill="black"/>
<path d="M724.955 121.863L723.42 120.248L721.806 121.782L723.34 123.397L724.955 121.863Z" fill="black"/>
<path d="M726.489 123.477L724.955 121.863L723.34 123.397L724.875 125.012L726.489 123.477Z" fill="black"/>
<path d="M672.702 70.1099L671.167 68.4951L669.552 70.0296L671.087 71.6444L672.702 70.1099Z" fill="black"/>
<path d="M675.771 73.3394L674.236 71.7246L672.621 73.2591L674.156 74.8739L675.771 73.3394Z" fill="black"/>
<path d="M677.305 74.9542L675.771 73.3394L674.156 74.8739L675.69 76.4887L677.305 74.9542Z" fill="black"/>
<path d="M678.84 76.5689L677.305 74.9542L675.69 76.4887L677.225 78.1034L678.84 76.5689Z" fill="black"/>
<path d="M681.909 79.7984L680.374 78.1837L678.759 79.7182L680.294 81.3329L681.909 79.7984Z" fill="black"/>
<path d="M684.978 83.028L683.443 81.4132L681.828 82.9477L683.363 84.5625L684.978 83.028Z" fill="black"/>
<path d="M689.581 87.8723L688.047 86.2575L686.432 87.792L687.966 89.4067L689.581 87.8723Z" fill="black"/>
<path d="M694.185 92.7165L692.65 91.1018L691.035 92.6363L692.57 94.251L694.185 92.7165Z" fill="black"/>
<path d="M695.719 94.3313L694.185 92.7165L692.57 94.251L694.104 95.8658L695.719 94.3313Z" fill="black"/>
<path d="M697.254 95.9461L695.719 94.3313L694.104 95.8658L695.639 97.4806L697.254 95.9461Z" fill="black"/>
<path d="M700.323 99.1756L698.788 97.5608L697.173 99.0953L698.708 100.71L700.323 99.1756Z" fill="black"/>
<path d="M704.926 104.02L703.392 102.405L701.777 103.94L703.311 105.554L704.926 104.02Z" fill="black"/>
<path d="M707.995 107.249L706.461 105.635L704.846 107.169L706.38 108.784L707.995 107.249Z" fill="black"/>
<path d="M714.133 113.708L712.599 112.094L710.984 113.628L712.518 115.243L714.133 113.708Z" fill="black"/>
<path d="M715.668 115.323L714.133 113.708L712.518 115.243L714.053 116.858L715.668 115.323Z" fill="black"/>
<path d="M717.202 116.938L715.668 115.323L714.053 116.858L715.587 118.472L717.202 116.938Z" fill="black"/>
<path d="M723.34 123.397L721.806 121.782L720.191 123.317L721.725 124.932L723.34 123.397Z" fill="black"/>
<path d="M726.409 126.627L724.875 125.012L723.26 126.546L724.794 128.161L726.409 126.627Z" fill="black"/>
<path d="M671.087 71.6444L669.552 70.0296L667.938 71.5641L669.472 73.1789L671.087 71.6444Z" fill="black"/>
<path d="M680.294 81.3329L678.759 79.7182L677.145 81.2527L678.679 82.8674L680.294 81.3329Z" fill="black"/>
<path d="M683.363 84.5625L681.828 82.9477L680.214 84.4822L681.748 86.097L683.363 84.5625Z" fill="black"/>
<path d="M684.897 86.1772L683.363 84.5625L681.748 86.097L683.283 87.7117L684.897 86.1772Z" fill="black"/>
<path d="M687.966 89.4067L686.432 87.792L684.817 89.3265L686.352 90.9412L687.966 89.4067Z" fill="black"/>
<path d="M692.57 94.251L691.035 92.6363L689.421 94.1708L690.955 95.7855L692.57 94.251Z" fill="black"/>
<path d="M704.846 107.169L703.311 105.554L701.697 107.089L703.231 108.704L704.846 107.169Z" fill="black"/>
<path d="M707.915 110.399L706.38 108.784L704.766 110.318L706.3 111.933L707.915 110.399Z" fill="black"/>
<path d="M710.984 113.628L709.449 112.013L707.835 113.548L709.369 115.163L710.984 113.628Z" fill="black"/>
<path d="M715.587 118.472L714.053 116.858L712.438 118.392L713.973 120.007L715.587 118.472Z" fill="black"/>
<path d="M721.725 124.932L720.191 123.317L718.576 124.851L720.111 126.466L721.725 124.932Z" fill="black"/>
<path d="M723.26 126.546L721.725 124.932L720.111 126.466L721.645 128.081L723.26 126.546Z" fill="black"/>
<path d="M724.794 128.161L723.26 126.546L721.645 128.081L723.18 129.696L724.794 128.161Z" fill="black"/>
<path d="M669.472 73.1789L667.938 71.5641L666.323 73.0986L667.857 74.7134L669.472 73.1789Z" fill="black"/>
<path d="M671.007 74.7936L669.472 73.1789L667.857 74.7134L669.392 76.3281L671.007 74.7936Z" fill="black"/>
<path d="M672.541 76.4084L671.007 74.7936L669.392 76.3281L670.926 77.9429L672.541 76.4084Z" fill="black"/>
<path d="M674.076 78.0232L672.541 76.4084L670.926 77.9429L672.461 79.5576L674.076 78.0232Z" fill="black"/>
<path d="M675.61 79.6379L674.076 78.0232L672.461 79.5576L673.995 81.1724L675.61 79.6379Z" fill="black"/>
<path d="M677.145 81.2527L675.61 79.6379L673.995 81.1724L675.53 82.7872L677.145 81.2527Z" fill="black"/>
<path d="M678.679 82.8674L677.145 81.2527L675.53 82.7872L677.064 84.4019L678.679 82.8674Z" fill="black"/>
<path d="M681.748 86.097L680.214 84.4822L678.599 86.0167L680.133 87.6315L681.748 86.097Z" fill="black"/>
<path d="M684.817 89.3265L683.283 87.7117L681.668 89.2462L683.202 90.861L684.817 89.3265Z" fill="black"/>
<path d="M686.352 90.9412L684.817 89.3265L683.202 90.861L684.737 92.4757L686.352 90.9412Z" fill="black"/>
<path d="M687.886 92.556L686.352 90.9412L684.737 92.4757L686.271 94.0905L687.886 92.556Z" fill="black"/>
<path d="M690.955 95.7855L689.421 94.1708L687.806 95.7053L689.34 97.32L690.955 95.7855Z" fill="black"/>
<path d="M694.024 99.0151L692.49 97.4003L690.875 98.9348L692.409 100.55L694.024 99.0151Z" fill="black"/>
<path d="M697.093 102.245L695.559 100.63L693.944 102.164L695.478 103.779L697.093 102.245Z" fill="black"/>
<path d="M698.628 103.859L697.093 102.245L695.478 103.779L697.013 105.394L698.628 103.859Z" fill="black"/>
<path d="M703.231 108.704L701.697 107.089L700.082 108.623L701.616 110.238L703.231 108.704Z" fill="black"/>
<path d="M709.369 115.163L707.835 113.548L706.22 115.082L707.754 116.697L709.369 115.163Z" fill="black"/>
<path d="M715.507 121.622L713.973 120.007L712.358 121.541L713.892 123.156L715.507 121.622Z" fill="black"/>
<path d="M717.042 123.236L715.507 121.622L713.892 123.156L715.427 124.771L717.042 123.236Z" fill="black"/>
<path d="M718.576 124.851L717.042 123.236L715.427 124.771L716.961 126.386L718.576 124.851Z" fill="black"/>
<path d="M721.645 128.081L720.111 126.466L718.496 128L720.03 129.615L721.645 128.081Z" fill="black"/>
<path d="M723.18 129.696L721.645 128.081L720.03 129.615L721.565 131.23L723.18 129.696Z" fill="black"/>
<path d="M724.714 131.31L723.18 129.696L721.565 131.23L723.099 132.845L724.714 131.31Z" fill="black"/>
</g>
</g>
<defs>
<clipPath id="clip0_227_8600">
<rect width="1246" height="284" fill="white"/>
</clipPath>
<clipPath id="clip1_227_8600">
<rect width="94.195" height="94.195" fill="white" transform="translate(726.281 8) rotate(46.46)"/>
</clipPath>
</defs>
</svg>
