<svg width="344" height="246" viewBox="0 0 344 246" fill="none" xmlns="http://www.w3.org/2000/svg">
<ellipse cx="88.5" cy="59" rx="57.5" ry="59" fill="#E2F9FF"/>
<ellipse cx="157.5" cy="62" rx="49.5" ry="51" fill="#FFF6E2"/>
<rect x="89" y="40" width="164" height="97" fill="#03036B"/>
<path d="M98.5 43.3805C98.5 37.7259 103.409 33.3233 109.03 33.9366L132.229 36.4678L158.03 39.283C162.85 39.8089 166.5 43.8791 166.5 48.727V114.814C166.5 121.191 160.341 125.757 154.239 123.903L135.355 118.167C133.587 117.63 131.733 117.436 129.892 117.595L108.818 119.417C103.269 119.897 98.5 115.522 98.5 109.953V43.3805Z" fill="#F7F7F7" stroke="#03036B" stroke-width="5"/>
<path d="M243.5 43.3805C243.5 37.7259 238.591 33.3233 232.97 33.9366L183.97 39.283C179.15 39.8089 175.5 43.8791 175.5 48.727V114.814C175.5 121.191 181.659 125.757 187.761 123.903L206.645 118.167C208.413 117.63 210.267 117.436 212.108 117.595L233.182 119.417C238.731 119.897 243.5 115.522 243.5 109.953V43.3805Z" fill="#FACC14" stroke="#03036B" stroke-width="5"/>
<path d="M245.781 92.3545L257.658 101.584" stroke="#4C4595" stroke-width="4"/>
<path d="M252.088 104.666L259.267 95.4286L280.381 111.837C282.932 113.82 283.393 117.494 281.41 120.045C279.428 122.596 275.753 123.057 273.202 121.075L252.088 104.666Z" fill="#FACC14"/>
<path d="M116 53L152 58.1316M116 62.2368L143.892 66" stroke="#03036B" stroke-width="5" stroke-linecap="round"/>
<path d="M250 77.5C250 89.9655 240.112 100 228 100C215.888 100 206 89.9655 206 77.5C206 65.0345 215.888 55 228 55C240.112 55 250 65.0345 250 77.5Z" fill="white" stroke="#4C4595" stroke-width="4"/>
<path fill-rule="evenodd" clip-rule="evenodd" d="M228.189 98C237.567 95.4256 244.472 86.6711 244.472 76.2675C244.472 69.3001 241.375 63.0724 236.513 58.9453C243.301 62.2231 248 69.2996 248 77.5009C248 88.7579 239.148 97.8958 228.189 98Z" fill="#CAF3FF"/>
<path d="M222 82C222.284 81.6667 223.498 81 226.085 81C228.672 81 229.773 81.6667 230 82" stroke="#363636" stroke-width="2" stroke-linecap="round"/>
<circle cx="230.5" cy="73.5" r="2.5" fill="#363636"/>
<circle cx="222.5" cy="73.5" r="2.5" fill="#363636"/>
<path d="M10.8906 178.438C10.8906 181.625 13.4219 184.625 17.7031 185.812L16.3594 188.094C13.0938 187.188 10.7031 185.219 9.45312 182.688C8.21875 185.453 5.76562 187.609 2.45312 188.625L1.01562 186.281C5.29688 185.062 7.95312 181.938 7.95312 178.438V178.125H1.85938V175.75H7.95312V172.531H10.9219V175.75H16.9844V178.125H10.8906V178.438ZM23.0781 172.656V179.375H27.1406V181.844H23.0781V188.812H20.1094V172.656H23.0781ZM23.5156 190.219V192.594H15.8594C16.3906 195.203 19.9844 197.594 24.6719 198.281L23.5781 200.562C19.3281 199.906 15.8281 197.953 14.2031 195.281C12.5938 197.938 9.125 199.859 4.89062 200.531L3.79688 198.25C8.5 197.594 12.0469 195.281 12.6094 192.594H4.92188V190.219H23.5156ZM41.4844 173.125C47.7969 173.125 51.4844 174.812 51.4844 177.938C51.4844 181.062 47.7969 182.781 41.4844 182.781C35.1719 182.781 31.4844 181.062 31.4844 177.938C31.4844 174.812 35.1719 173.125 41.4844 173.125ZM41.4844 175.312C37.0156 175.312 34.5469 176.281 34.5781 177.938C34.5469 179.656 37.0156 180.562 41.4844 180.562C45.9531 180.562 48.4219 179.656 48.4219 177.938C48.4219 176.281 45.9531 175.312 41.4844 175.312ZM54.2656 184.5V186.875H28.7344V184.5H54.2656ZM51.0469 189.031V195.594H34.7344V198.094H51.8281V200.375H31.8281V193.438H48.1094V191.25H31.7969V189.031H51.0469ZM78.5469 175.125C78.5156 178.844 83.0781 182.344 88.5781 183.062L87.4219 185.5C82.8438 184.766 78.8125 182.391 77.0156 179.094C75.1719 182.406 71.1562 184.766 66.6094 185.5L65.4219 183.062C70.9219 182.344 75.4219 178.875 75.4531 175.125V173.594H78.5469V175.125ZM89.7344 188.25V190.688H78.3594V200.656H75.4531V190.688H64.2031V188.25H89.7344ZM105.641 189.062V192.312H110.016V189.062H112.766V200.312H102.859V189.062H105.641ZM105.641 198H110.016V194.562H105.641V198ZM120.891 191.156C120.891 194.094 122.516 197.062 125.984 198.281L124.453 200.531C121.922 199.562 120.281 197.734 119.422 195.5C118.484 197.688 116.828 199.531 114.422 200.531L112.922 198.281C116.297 196.906 117.953 193.938 117.953 191.156V188.875H120.891V191.156ZM107.422 173.844C111.109 173.844 113.953 175.938 114.578 179.062H120.047V172.656H123.016V187.5H120.047V181.5H114.609C114 184.719 111.141 186.812 107.422 186.812C103.141 186.812 100.078 184.188 100.078 180.312C100.078 176.5 103.141 173.844 107.422 173.844ZM107.422 176.312C104.766 176.312 102.922 177.938 102.922 180.312C102.922 182.719 104.766 184.375 107.422 184.406C110.016 184.375 111.859 182.719 111.859 180.312C111.859 177.938 110.016 176.312 107.422 176.312ZM149.984 180.844V183.219H130.703V173.656H133.641V180.844H149.984ZM152.922 186.75V189.125H127.297V186.75H152.922ZM150.172 197.562V200H130.484V191.781H133.453V197.562H150.172ZM187.016 172.656V200.656H184.172V172.656H187.016ZM181.484 173.281V199.219H178.672V185.812H175.172V183.156H178.672V173.281H181.484ZM175.922 176.094V178.531H173.766V191.031C174.719 190.969 175.641 190.859 176.484 190.75L176.703 192.906C172.266 193.781 166.453 193.906 162.828 193.906L162.484 191.406L165.234 191.375V178.531H163.078V176.094H175.922ZM167.922 191.344C168.938 191.312 169.984 191.281 171.016 191.219V178.531H167.922V191.344ZM213.641 172.656V200.719H210.672V172.656H213.641ZM198.672 174.75C202.828 174.75 205.891 178.562 205.891 184.562C205.891 190.594 202.828 194.406 198.672 194.406C194.453 194.406 191.422 190.594 191.422 184.562C191.422 178.562 194.453 174.75 198.672 174.75ZM198.672 177.406C196.078 177.406 194.297 180.156 194.297 184.562C194.297 189 196.078 191.75 198.672 191.75C201.234 191.75 203.016 189 203.016 184.562C203.016 180.156 201.234 177.406 198.672 177.406ZM228.422 180.906C228.422 185.594 231.484 190.438 235.797 192.281L234.172 194.594C230.875 193.141 228.25 190.062 226.953 186.312C225.656 190.312 223.016 193.719 219.766 195.312L218.047 192.969C222.266 191 225.391 185.719 225.422 180.906V177.938H219.016V175.469H234.797V177.938H228.422V180.906ZM241.297 172.656V200.656H238.328V172.656H241.297ZM276.797 172.656V187.688H273.828V172.656H276.797ZM261.391 189.031V192.188H273.859V189.031H276.797V200.312H258.484V189.031H261.391ZM261.391 197.875H273.859V194.531H261.391V197.875ZM261.609 173.938C265.891 173.938 269.047 176.594 269.047 180.438C269.047 184.281 265.891 186.938 261.609 186.906C257.328 186.938 254.141 184.281 254.141 180.438C254.141 176.594 257.328 173.938 261.609 173.938ZM261.609 176.438C258.953 176.406 257.047 178.062 257.047 180.438C257.047 182.844 258.953 184.469 261.609 184.469C264.234 184.469 266.141 182.844 266.141 180.438C266.141 178.062 264.234 176.406 261.609 176.438ZM304.484 172.656V200.656H301.516V172.656H304.484ZM285.891 175.375V190.969C289.969 190.938 294.266 190.609 298.766 189.688L299.172 192.188C294.203 193.188 289.703 193.531 285.297 193.531H282.953V175.375H285.891ZM330.703 172.656V183.5H335.203V185.938H330.703V200.719H327.734V172.656H330.703ZM323.172 175.344V177.75H313.047V191.281C317.75 191.266 321.281 191.062 325.266 190.344L325.641 192.844C321.266 193.625 317.547 193.781 312.328 193.75H310.078V175.344H323.172ZM339.734 198.219C338.516 198.219 337.484 197.219 337.516 196C337.484 194.781 338.516 193.781 339.734 193.781C340.922 193.781 341.953 194.781 341.953 196C341.953 197.219 340.922 198.219 339.734 198.219Z" fill="black"/>
<path d="M36.209 225.219V234.535H34.6855V225.219H36.209ZM26.4824 235.414V237.523H34.6855V235.414H36.209V242.348H24.959V235.414H26.4824ZM26.4824 241.098H34.6855V238.754H26.4824V241.098ZM26.834 226.078C29.4707 226.059 31.3848 227.68 31.3848 230.062C31.3848 232.426 29.4707 234.047 26.834 234.047C24.1973 234.047 22.2832 232.426 22.2832 230.062C22.2832 227.68 24.1973 226.059 26.834 226.078ZM26.834 227.367C25.0566 227.348 23.7676 228.48 23.7871 230.062C23.7676 231.645 25.0566 232.777 26.834 232.777C28.5918 232.777 29.8809 231.645 29.8809 230.062C29.8809 228.48 28.5918 227.348 26.834 227.367ZM47.4004 226.293V231.156H41.4238V233.852C44.6855 233.852 46.3652 233.803 48.416 233.422L48.5723 234.691C46.4043 235.043 44.6465 235.102 41.1309 235.102H39.9004V229.984H45.877V227.523H39.8613V226.293H47.4004ZM53.5527 225.238V235.902H52.0098V232.68H48.5527V231.41H52.0098V229.066H48.5527V227.816H52.0098V225.238H53.5527ZM53.5527 236.84V242.621H52.0098V238.09H41.8535V236.84H53.5527ZM70.0176 225.238V230.961H72.6348V232.25H70.0176V238.246H68.4941V225.238H70.0176ZM66.834 227.367V228.617H56.4824V227.367H60.8965V225.238H62.4199V227.367H66.834ZM61.6582 229.574C64.1387 229.574 65.8184 230.844 65.8379 232.816C65.8184 234.77 64.1387 236.02 61.6582 236.02C59.1582 236.02 57.459 234.77 57.4785 232.816C57.459 230.844 59.1582 229.574 61.6582 229.574ZM61.6582 230.785C60.0176 230.785 58.9238 231.586 58.9434 232.816C58.9238 234.047 60.0176 234.828 61.6582 234.809C63.2793 234.828 64.373 234.047 64.3926 232.816C64.373 231.586 63.2793 230.785 61.6582 230.785ZM70.8184 240.922V242.211H59.1582V237.211H60.6621V240.922H70.8184ZM87.5176 227.68C87.498 230.004 90.6035 231.977 93.6309 232.426L93.0645 233.637C90.3496 233.178 87.7129 231.732 86.6582 229.633C85.6035 231.732 82.957 233.178 80.291 233.637L79.6855 232.426C82.6934 231.977 85.7988 230.004 85.7988 227.68V227.562H80.2324V226.312H93.0645V227.562H87.5176V227.68ZM94.5684 235.121V236.391H87.3809V242.582H85.877V236.391H78.748V235.121H94.5684ZM111.932 239.047V240.316H96.0332V239.047H103.143V234.789H104.646V239.047H111.932ZM104.686 227.738C104.686 230.648 108.123 233.188 111.15 233.715L110.467 234.984C107.82 234.447 105.027 232.65 103.904 230.141C102.762 232.641 99.9883 234.447 97.3418 234.984L96.6582 233.715C99.6855 233.188 103.084 230.648 103.084 227.738V226.41H104.686V227.738ZM129.197 233.285V234.496H113.299V233.285H129.197ZM127.205 235.883V239.574H116.775V241.234H127.771V242.348H115.232V238.52H125.682V237.035H115.213V235.883H127.205ZM127.146 225.746V229.34H116.893V230.863H127.459V231.977H115.369V228.285H125.604V226.859H115.311V225.746H127.146ZM149.061 225.219V232.094H151.971V233.383H149.061V242.621H147.537V225.219H149.061ZM144.49 226.918V228.188H137.908V236.977C141.053 236.977 143.279 236.83 145.857 236.352L146.053 237.68C143.338 238.168 141.053 238.266 137.752 238.266H136.385V226.918H144.49ZM159.08 229.887C159.061 233.051 161.229 236.254 163.787 237.406L162.85 238.617C160.877 237.65 159.168 235.609 158.338 233.129C157.527 235.756 155.818 237.943 153.787 238.969L152.811 237.68C155.389 236.488 157.537 233.188 157.557 229.887V226.723H159.08V229.887ZM167.225 225.219V242.621H165.682V225.219H167.225ZM188.787 225.238V230.961H191.404V232.25H188.787V238.246H187.264V225.238H188.787ZM185.604 227.367V228.617H175.252V227.367H179.666V225.238H181.189V227.367H185.604ZM180.428 229.574C182.908 229.574 184.588 230.844 184.607 232.816C184.588 234.77 182.908 236.02 180.428 236.02C177.928 236.02 176.229 234.77 176.248 232.816C176.229 230.844 177.928 229.574 180.428 229.574ZM180.428 230.785C178.787 230.785 177.693 231.586 177.713 232.816C177.693 234.047 178.787 234.828 180.428 234.809C182.049 234.828 183.143 234.047 183.162 232.816C183.143 231.586 182.049 230.785 180.428 230.785ZM189.588 240.922V242.211H177.928V237.211H179.432V240.922H189.588ZM206.893 225.238V238.09H205.35V231.41H201.248V235.121H193.377V226.391H194.9V229.477H199.744V226.391H201.248V230.121H205.35V225.238H206.893ZM207.283 240.922V242.211H195.662V236.82H197.205V240.922H207.283ZM194.9 233.852H199.744V230.688H194.9V233.852ZM228.357 225.238V230.492H230.955V231.781H228.357V236.879H226.814V225.238H228.357ZM214.725 235.102C216.111 235.102 217.732 235.102 219.432 235.043V233.773C217.41 233.598 216.111 232.65 216.111 231.215C216.111 229.633 217.732 228.656 220.174 228.656C222.635 228.656 224.236 229.633 224.256 231.215C224.236 232.641 222.967 233.588 220.955 233.773V234.984C222.576 234.906 224.217 234.779 225.74 234.555L225.877 235.668C222.107 236.332 217.947 236.352 214.9 236.352L214.725 235.102ZM228.357 237.738V242.582H226.814V238.969H216.854V237.738H228.357ZM225.213 226.82V227.992H215.154V226.82H219.432V225.082H220.955V226.82H225.213ZM220.174 229.75C218.572 229.73 217.576 230.297 217.576 231.215C217.576 232.113 218.572 232.738 220.174 232.719C221.775 232.738 222.791 232.113 222.791 231.215C222.791 230.297 221.775 229.73 220.174 229.75ZM246.424 225.238V237.934H244.9V225.238H246.424ZM246.971 240.922V242.211H235.213V236.645H236.736V240.922H246.971ZM237.049 226.449C239.646 226.449 241.6 228.207 241.6 230.707C241.6 233.246 239.646 234.984 237.049 234.984C234.451 234.984 232.498 233.246 232.498 230.707C232.498 228.207 234.451 226.449 237.049 226.449ZM237.049 227.797C235.291 227.797 233.982 229.008 234.002 230.707C233.982 232.445 235.291 233.637 237.049 233.637C238.768 233.637 240.096 232.445 240.096 230.707C240.096 229.008 238.768 227.797 237.049 227.797ZM258.045 228.227V229.477H249.334V228.227H252.947V225.746H254.471V228.227H258.045ZM253.689 230.648C255.877 230.648 257.439 232.289 257.459 234.594C257.439 236.918 255.877 238.578 253.689 238.578C251.521 238.578 249.959 236.918 249.959 234.594C249.959 232.289 251.521 230.648 253.689 230.648ZM253.689 231.938C252.322 231.957 251.326 233.07 251.326 234.594C251.326 236.137 252.322 237.25 253.689 237.23C255.076 237.25 256.092 236.137 256.092 234.594C256.092 233.07 255.076 231.957 253.689 231.938ZM264.158 225.219V242.582H262.693V233.812H260.389V241.723H258.943V225.648H260.389V232.543H262.693V225.219H264.158ZM280.447 227.68C280.428 230.004 283.533 231.977 286.561 232.426L285.994 233.637C283.279 233.178 280.643 231.732 279.588 229.633C278.533 231.732 275.887 233.178 273.221 233.637L272.615 232.426C275.623 231.977 278.729 230.004 278.729 227.68V227.562H273.162V226.312H285.994V227.562H280.447V227.68ZM287.498 235.121V236.391H280.311V242.582H278.807V236.391H271.678V235.121H287.498ZM294.119 230.16C294.119 232.914 295.467 235.902 297.771 237.27L296.893 238.461C295.223 237.445 294.021 235.59 293.416 233.48C292.771 235.785 291.482 237.768 289.744 238.832L288.768 237.68C291.17 236.273 292.635 233.188 292.635 230.219V226.859H294.119V230.16ZM303.846 225.219V242.582H302.361V225.219H303.846ZM300.252 225.59V241.703H298.807V232.758H295.857V231.449H298.807V225.59H300.252ZM322.146 239.066V240.355H306.248V239.066H310.193V234.379C308.709 233.607 307.811 232.357 307.811 230.785C307.811 228.09 310.447 226.332 314.158 226.312C317.869 226.332 320.506 228.09 320.506 230.785C320.506 232.328 319.637 233.568 318.201 234.34V239.066H322.146ZM314.158 227.582C311.307 227.562 309.295 228.852 309.295 230.785C309.295 232.719 311.307 234.027 314.158 234.027C316.99 234.027 319.021 232.719 319.021 230.785C319.021 228.852 316.99 227.562 314.158 227.582ZM311.697 239.066H316.658V234.926C315.906 235.131 315.066 235.238 314.158 235.238C313.27 235.238 312.439 235.141 311.697 234.945V239.066Z" fill="#ABA9A5"/>
</svg>
