<svg width="205" height="74" viewBox="0 0 205 74" fill="none" xmlns="http://www.w3.org/2000/svg">
<g opacity="0.75" filter="url(#filter0_diiii_287_4602)">
<path fill-rule="evenodd" clip-rule="evenodd" d="M35.6562 65.5399C35.4899 65.5446 35.3231 65.548 35.1561 65.5499C18.8648 65.7408 5.50336 52.6889 5.31246 36.3976C5.12155 20.1064 18.1735 6.7449 34.4648 6.554C44.5634 6.43566 53.5362 11.4059 58.944 19.0819C61.7552 17.88 64.8442 17.1988 68.0914 17.1608C81.3453 17.0055 92.2157 27.624 92.371 40.8779C92.5263 54.1318 81.9079 65.0021 68.654 65.1575L68.654 65.1575L35.6563 65.5442L35.6562 65.5399Z" fill="url(#paint0_linear_287_4602)"/>
</g>
<path d="M81.6274 26.084C74.625 18.6701 66.5039 20.9632 63.3186 23.0365L87.6741 43.6536C88.5762 40.8862 88.6299 33.4979 81.6274 26.084Z" fill="url(#paint1_linear_287_4602)"/>
<path d="M56.6492 62.48C56.6492 62.8267 56.4492 63 56.0492 63H45.6092C45.2092 63 45.0092 62.8267 45.0092 62.48C45.0092 62.1867 45.1959 61.9333 45.5692 61.72L47.3692 60.56L45.1692 53.84H37.0092L34.6092 60.56L37.2092 61.72C37.5826 61.8533 37.7692 62.0933 37.7692 62.44C37.7692 62.8133 37.5692 63 37.1692 63H29.0492C28.6492 63 28.4492 62.8133 28.4492 62.44C28.4492 62.0933 28.6359 61.8533 29.0092 61.72L31.9292 60.4L40.6092 37.04C40.8759 36.2933 41.1692 35.5867 41.4892 34.92C41.8892 34.12 42.3959 33.72 43.0092 33.72C43.6226 33.72 44.1292 34.12 44.5292 34.92C44.9559 35.8533 45.2626 36.56 45.4492 37.04L54.0892 60.4L56.0892 61.72C56.4626 61.9333 56.6492 62.1867 56.6492 62.48ZM37.7292 51.76H44.4892L41.2492 41.92L37.7292 51.76ZM72.7108 43C73.8308 43 74.7241 43.3067 75.3908 43.92C76.0574 44.5333 76.3908 45.3067 76.3908 46.24C76.3908 47.0933 76.0841 47.8267 75.4708 48.44C74.8841 49.0267 74.1774 49.32 73.3508 49.32C72.3908 49.32 71.5641 48.9067 70.8708 48.08C70.5774 47.7067 70.1908 47.52 69.7108 47.52C69.2308 47.4933 68.8041 47.6267 68.4308 47.92C67.3641 48.6933 66.8308 49.8533 66.8308 51.4V60.92L68.3908 61.72C68.7641 61.88 68.9508 62.12 68.9508 62.44C68.9508 62.8133 68.7508 63 68.3508 63H59.3908C58.9908 63 58.7908 62.8133 58.7908 62.44C58.7908 62.12 58.9774 61.88 59.3508 61.72L60.9108 60.92V46.16H59.5108C59.0308 46.16 58.7908 45.96 58.7908 45.56C58.7908 45.1867 59.0041 44.9467 59.4308 44.84L65.8708 43.04C66.1374 42.96 66.3641 42.9733 66.5508 43.08C66.7374 43.1867 66.8308 43.3867 66.8308 43.68V47.28C67.5241 46 68.4041 44.9733 69.4708 44.2C70.5641 43.4 71.6441 43 72.7108 43ZM91.3398 59.6C91.5798 59.8133 91.5532 60.16 91.2598 60.64C90.6998 61.4667 89.7798 62.1733 88.4998 62.76C87.2198 63.3467 85.8998 63.64 84.5398 63.64C82.9665 63.64 81.8332 63.2933 81.1398 62.6C80.4732 61.88 80.1398 60.8133 80.1398 59.4V45.72H77.3798V43.6H80.1398V39.72L85.0198 37.44C85.2598 37.3067 85.4865 37.2933 85.6998 37.4C85.9132 37.5067 86.0198 37.72 86.0198 38.04V43.6H91.0598V45.72H86.0198V58.56C86.0198 59.84 86.4332 60.48 87.2598 60.48C88.2732 60.48 89.3665 60.2 90.5398 59.64C90.9132 59.4533 91.1798 59.44 91.3398 59.6ZM117.275 54.76C117.622 54.8667 117.769 55.0933 117.715 55.44L116.835 62.32C116.782 62.5867 116.715 62.7733 116.635 62.88C116.555 62.96 116.395 63 116.155 63H95.3155C94.9155 63 94.7155 62.8133 94.7155 62.44C94.7155 62.12 94.9021 61.88 95.2755 61.72L96.9955 60.84V36.52L95.2755 35.64C94.9021 35.48 94.7155 35.24 94.7155 34.92C94.7155 34.5467 94.9155 34.36 95.3155 34.36H104.995C105.395 34.36 105.595 34.5467 105.595 34.92C105.595 35.24 105.409 35.48 105.035 35.64L103.315 36.52V60.88H113.115L116.475 55.04C116.609 54.8267 116.809 54.72 117.075 54.72L117.155 54.76C117.209 54.76 117.249 54.76 117.275 54.76ZM129.719 61.72C130.092 61.88 130.279 62.12 130.279 62.44C130.279 62.8133 130.079 63 129.679 63H120.719C120.319 63 120.119 62.8133 120.119 62.44C120.119 62.12 120.306 61.88 120.679 61.72L122.239 60.92V46.16H120.839C120.359 46.16 120.119 45.96 120.119 45.56C120.119 45.1867 120.332 44.9467 120.759 44.84L127.199 43.04C127.839 42.88 128.159 43.0933 128.159 43.68V60.92L129.719 61.72ZM127.319 38.44C126.706 39.0533 125.932 39.36 124.999 39.36C124.066 39.36 123.279 39.0533 122.639 38.44C122.026 37.8267 121.719 37.0533 121.719 36.12C121.719 35.1867 122.026 34.4133 122.639 33.8C123.279 33.16 124.066 32.84 124.999 32.84C125.932 32.84 126.706 33.16 127.319 33.8C127.959 34.4133 128.279 35.1867 128.279 36.12C128.279 37.0533 127.959 37.8267 127.319 38.44ZM145.455 43C147.775 43 149.735 43.9067 151.335 45.72C152.962 47.5067 153.775 49.8533 153.775 52.76C153.775 56.3067 153.028 59.0133 151.535 60.88C150.068 62.72 147.948 63.64 145.175 63.64C144.108 63.64 143.188 63.48 142.415 63.16C141.668 62.84 141.188 62.52 140.975 62.2L140.615 61.72C140.428 62.5733 139.802 63 138.735 63H133.375C132.975 63 132.775 62.8133 132.775 62.44C132.775 62.12 132.962 61.88 133.335 61.72L134.895 60.92V35.2H133.495C133.015 35.2 132.775 35 132.775 34.6C132.775 34.2267 132.988 33.9867 133.415 33.88L139.855 32.04C140.122 31.9867 140.348 32.0133 140.535 32.12C140.722 32.2267 140.815 32.4267 140.815 32.72V44.88C140.948 44.7467 141.135 44.5733 141.375 44.36C141.642 44.1467 142.175 43.8667 142.975 43.52C143.802 43.1733 144.628 43 145.455 43ZM143.895 61.08C145.255 61.08 146.255 60.32 146.895 58.8C147.535 57.28 147.855 55.2533 147.855 52.72C147.855 50.5333 147.468 48.8533 146.695 47.68C145.948 46.5067 145.015 45.92 143.895 45.92C142.642 45.92 141.615 46.4 140.815 47.36V56.8C140.815 59.6533 141.842 61.08 143.895 61.08ZM170.562 43C171.682 43 172.576 43.3067 173.242 43.92C173.909 44.5333 174.242 45.3067 174.242 46.24C174.242 47.0933 173.936 47.8267 173.322 48.44C172.736 49.0267 172.029 49.32 171.202 49.32C170.242 49.32 169.416 48.9067 168.722 48.08C168.429 47.7067 168.042 47.52 167.562 47.52C167.082 47.4933 166.656 47.6267 166.282 47.92C165.216 48.6933 164.682 49.8533 164.682 51.4V60.92L166.242 61.72C166.616 61.88 166.802 62.12 166.802 62.44C166.802 62.8133 166.602 63 166.202 63H157.242C156.842 63 156.642 62.8133 156.642 62.44C156.642 62.12 156.829 61.88 157.202 61.72L158.762 60.92V46.16H157.362C156.882 46.16 156.642 45.96 156.642 45.56C156.642 45.1867 156.856 44.9467 157.282 44.84L163.722 43.04C163.989 42.96 164.216 42.9733 164.402 43.08C164.589 43.1867 164.682 43.3867 164.682 43.68V47.28C165.376 46 166.256 44.9733 167.322 44.2C168.416 43.4 169.496 43 170.562 43ZM178.791 45.84C180.765 43.9467 183.125 43 185.871 43C188.618 43 190.978 43.9467 192.951 45.84C194.925 47.7067 195.911 50.2 195.911 53.32C195.911 56.44 194.925 58.9467 192.951 60.84C190.978 62.7067 188.618 63.64 185.871 63.64C183.125 63.64 180.765 62.7067 178.791 60.84C176.845 58.9467 175.871 56.44 175.871 53.32C175.871 50.2 176.845 47.7067 178.791 45.84ZM182.831 59.52C183.551 60.9867 184.565 61.72 185.871 61.72C187.178 61.72 188.191 60.9867 188.911 59.52C189.631 58.0533 189.991 55.9867 189.991 53.32C189.991 50.6533 189.631 48.5867 188.911 47.12C188.191 45.6267 187.178 44.88 185.871 44.88C184.565 44.88 183.551 45.6133 182.831 47.08C182.138 48.5467 181.791 50.6267 181.791 53.32C181.791 55.9867 182.138 58.0533 182.831 59.52Z" fill="black"/>
<defs>
<filter id="filter0_diiii_287_4602" x="1.31055" y="1.552" width="95.0625" height="72" filterUnits="userSpaceOnUse" color-interpolation-filters="sRGB">
<feFlood flood-opacity="0" result="BackgroundImageFix"/>
<feColorMatrix in="SourceAlpha" type="matrix" values="0 0 0 0 0 0 0 0 0 0 0 0 0 0 0 0 0 0 127 0" result="hardAlpha"/>
<feOffset dy="4"/>
<feGaussianBlur stdDeviation="2"/>
<feComposite in2="hardAlpha" operator="out"/>
<feColorMatrix type="matrix" values="0 0 0 0 0 0 0 0 0 0 0 0 0 0 0 0 0 0 0.25 0"/>
<feBlend mode="normal" in2="BackgroundImageFix" result="effect1_dropShadow_287_4602"/>
<feBlend mode="normal" in="SourceGraphic" in2="effect1_dropShadow_287_4602" result="shape"/>
<feColorMatrix in="SourceAlpha" type="matrix" values="0 0 0 0 0 0 0 0 0 0 0 0 0 0 0 0 0 0 127 0" result="hardAlpha"/>
<feOffset dx="-2"/>
<feGaussianBlur stdDeviation="2"/>
<feComposite in2="hardAlpha" operator="arithmetic" k2="-1" k3="1"/>
<feColorMatrix type="matrix" values="0 0 0 0 0.958996 0 0 0 0 0.958996 0 0 0 0 0.958996 0 0 0 0.8 0"/>
<feBlend mode="plus-lighter" in2="shape" result="effect2_innerShadow_287_4602"/>
<feColorMatrix in="SourceAlpha" type="matrix" values="0 0 0 0 0 0 0 0 0 0 0 0 0 0 0 0 0 0 127 0" result="hardAlpha"/>
<feOffset dx="2" dy="1"/>
<feGaussianBlur stdDeviation="2.5"/>
<feComposite in2="hardAlpha" operator="arithmetic" k2="-1" k3="1"/>
<feColorMatrix type="matrix" values="0 0 0 0 1 0 0 0 0 1 0 0 0 0 1 0 0 0 0.25 0"/>
<feBlend mode="lighten" in2="effect2_innerShadow_287_4602" result="effect3_innerShadow_287_4602"/>
<feColorMatrix in="SourceAlpha" type="matrix" values="0 0 0 0 0 0 0 0 0 0 0 0 0 0 0 0 0 0 127 0" result="hardAlpha"/>
<feOffset dx="-2" dy="-6"/>
<feGaussianBlur stdDeviation="2.5"/>
<feComposite in2="hardAlpha" operator="arithmetic" k2="-1" k3="1"/>
<feColorMatrix type="matrix" values="0 0 0 0 0.254902 0 0 0 0 0.192157 0 0 0 0 0.301961 0 0 0 0.2 0"/>
<feBlend mode="darken" in2="effect3_innerShadow_287_4602" result="effect4_innerShadow_287_4602"/>
<feColorMatrix in="SourceAlpha" type="matrix" values="0 0 0 0 0 0 0 0 0 0 0 0 0 0 0 0 0 0 127 0" result="hardAlpha"/>
<feOffset dy="-1"/>
<feGaussianBlur stdDeviation="5"/>
<feComposite in2="hardAlpha" operator="arithmetic" k2="-1" k3="1"/>
<feColorMatrix type="matrix" values="0 0 0 0 0.835294 0 0 0 0 0.788235 0 0 0 0 0.87451 0 0 0 0.3 0"/>
<feBlend mode="darken" in2="effect4_innerShadow_287_4602" result="effect5_innerShadow_287_4602"/>
</filter>
<linearGradient id="paint0_linear_287_4602" x1="77.2219" y1="6.05297" x2="25.2181" y2="69.6643" gradientUnits="userSpaceOnUse">
<stop offset="0.0607025" stop-color="#0017FF"/>
<stop offset="0.444148" stop-color="#3E4FFF"/>
<stop offset="1" stop-color="#EF96FF"/>
</linearGradient>
<linearGradient id="paint1_linear_287_4602" x1="83.9614" y1="16.2453" x2="71.8252" y2="29.2726" gradientUnits="userSpaceOnUse">
<stop stop-color="white"/>
<stop offset="0.229517" stop-color="white"/>
<stop offset="1" stop-color="#5969FF"/>
</linearGradient>
</defs>
</svg>
