<svg width="134" height="83" viewBox="0 0 134 83" fill="none" xmlns="http://www.w3.org/2000/svg">
<ellipse cx="34.7072" cy="35.6126" rx="34.7072" ry="35.6126" fill="#F1F1F1"/>
<ellipse cx="76.3559" cy="37.4234" rx="29.8784" ry="30.7838" fill="#F6F6F6"/>
<rect x="35.009" y="24.1436" width="98.991" height="58.5495" fill="#C2C2C2"/>
<path d="M80.7973 33.678V62.886C80.7973 69.2633 74.6383 73.8294 68.5362 71.9759L64.1551 70.6451C62.3871 70.108 60.5327 69.9139 58.6919 70.073L52.0525 70.647C46.5036 71.1268 41.7343 66.7519 41.7343 61.1824V31.4889C41.7343 25.8343 46.6434 21.4317 52.2647 22.045L60.9946 22.9975L72.3278 24.2341C77.147 24.7599 80.7973 28.8302 80.7973 33.678Z" fill="#F7F7F7" stroke="#DADADA" stroke-width="5"/>
<path d="M116.69 21.5479L96.627 23.737C91.5541 24.2906 87.7117 28.575 87.7117 33.678V62.8859C87.7117 69.5989 94.1949 74.4053 100.618 72.4543L104.999 71.1235C106.706 70.605 108.497 70.4175 110.274 70.5712L116.913 71.1452C122.754 71.6502 127.775 67.0451 127.775 61.1824V31.4889C127.775 25.5367 122.607 20.9023 116.69 21.5479Z" fill="#EFEFEF" stroke="#E7E7E7" stroke-width="4"/>
<path d="M51.3063 31.9912L73.036 35.0887M51.3063 37.5666L68.1419 39.8381" stroke="#6E6E78" stroke-width="3" stroke-linecap="round"/>
<path d="M105.576 42.8341C105.747 42.6329 106.48 42.2305 108.042 42.2305C109.604 42.2305 110.268 42.6329 110.405 42.8341" stroke="#363636" stroke-width="2" stroke-linecap="round"/>
<circle cx="102.495" cy="36.3948" r="1.50901" fill="#363636"/>
<circle cx="113.512" cy="36.3948" r="1.50901" fill="#363636"/>
</svg>
