<svg width="23" height="22" viewBox="0 0 23 22" fill="none" xmlns="http://www.w3.org/2000/svg">
<path d="M7.18742 20.1663C6.26103 20.1663 5.4704 19.8531 4.81554 19.2268C4.16068 18.6004 3.83325 17.8441 3.83325 16.958V5.04134C3.83325 4.15523 4.16068 3.39898 4.81554 2.77259C5.4704 2.1462 6.26103 1.83301 7.18742 1.83301H17.2499C17.777 1.83301 18.2282 2.01252 18.6036 2.37155C18.9789 2.73058 19.1666 3.16217 19.1666 3.66634V15.1476C19.1666 15.2698 19.1147 15.3806 19.0109 15.4799C18.907 15.5792 18.7194 15.69 18.4478 15.8122C18.2242 15.9191 18.0485 16.0719 17.9208 16.2705C17.793 16.4691 17.7291 16.6983 17.7291 16.958C17.7291 17.2177 17.793 17.4507 17.9208 17.657C18.0485 17.8632 18.2242 18.0122 18.4478 18.1038C18.6714 18.1955 18.8471 18.3215 18.9749 18.482C19.1027 18.6424 19.1666 18.8143 19.1666 18.9976V19.2268C19.1666 19.4865 19.0747 19.708 18.8911 19.8913C18.7074 20.0747 18.4798 20.1663 18.2083 20.1663H7.18742ZM8.62492 13.7497C8.89645 13.7497 9.12405 13.6618 9.30773 13.4861C9.49141 13.3104 9.58325 13.0927 9.58325 12.833V4.58301C9.58325 4.32329 9.49141 4.10558 9.30773 3.92988C9.12405 3.75419 8.89645 3.66634 8.62492 3.66634C8.35339 3.66634 8.12579 3.75419 7.94211 3.92988C7.75843 4.10558 7.66659 4.32329 7.66659 4.58301V12.833C7.66659 13.0927 7.75843 13.3104 7.94211 13.4861C8.12579 13.6618 8.35339 13.7497 8.62492 13.7497ZM7.18742 18.333H16.1239C16.028 18.1191 15.9522 17.9014 15.8963 17.6799C15.8404 17.4584 15.8124 17.2177 15.8124 16.958C15.8124 16.7136 15.8364 16.4768 15.8843 16.2476C15.9322 16.0184 16.0121 15.7969 16.1239 15.583H7.18742C6.77214 15.583 6.42874 15.7167 6.15721 15.984C5.88568 16.2514 5.74992 16.5761 5.74992 16.958C5.74992 17.3552 5.88568 17.6837 6.15721 17.9434C6.42874 18.2031 6.77214 18.333 7.18742 18.333Z" fill="#FACC14"/>
</svg>
