<svg width="30" height="30" viewBox="0 0 30 30" fill="none" xmlns="http://www.w3.org/2000/svg">
<path fill-rule="evenodd" clip-rule="evenodd" d="M6 4C4.89544 4 4 4.89544 4 6V24C4 25.1046 4.89544 26 6 26H24C25.1046 26 26 25.1046 26 24V17C26 16.4477 25.5522 16 25 16C24.4478 16 24 16.4477 24 17V24H6V6H13C13.5523 6 14 5.55228 14 5C14 4.44772 13.5523 4 13 4H6ZM25.7072 4.2929C25.803 4.38878 25.8754 4.49928 25.9242 4.61722C25.9722 4.73338 25.9992 4.8606 26 4.994V5V11C26 11.5523 25.5522 12 25 12C24.4478 12 24 11.5523 24 11V7.41422L13.7071 17.7071C13.3166 18.0976 12.6834 18.0976 12.2929 17.7071C11.9024 17.3166 11.9024 16.6834 12.2929 16.2929L22.5858 6H19C18.4477 6 18 5.55228 18 5C18 4.44772 18.4477 4 19 4H24.9998C25.1354 4 25.2648 4.02698 25.3828 4.07588C25.5008 4.12468 25.6112 4.19702 25.7072 4.2929Z" fill="#61605D"/>
</svg>
