<svg width="21" height="21" viewBox="0 0 21 21" fill="none" xmlns="http://www.w3.org/2000/svg">
<path d="M14.2146 11.162C15.2359 10.3585 15.9813 9.25668 16.3472 8.00983C16.713 6.76298 16.6812 5.43308 16.2561 4.20517C15.8309 2.97726 15.0336 1.91238 13.9751 1.1587C12.9166 0.405015 11.6495 0 10.35 0C9.0506 0 7.78349 0.405015 6.72496 1.1587C5.66643 1.91238 4.86914 2.97726 4.444 4.20517C4.01887 5.43308 3.98703 6.76298 4.35291 8.00983C4.71879 9.25668 5.46421 10.3585 6.48545 11.162C4.73553 11.8631 3.20867 13.0259 2.06763 14.5265C0.926594 16.0271 0.214161 17.8092 0.00628317 19.6828C-0.00876413 19.8196 0.00327956 19.958 0.0417263 20.0902C0.0801731 20.2223 0.14427 20.3456 0.230358 20.4529C0.404219 20.6698 0.657099 20.8087 0.933367 20.8391C1.20963 20.8694 1.48666 20.7888 1.7035 20.615C1.92034 20.4411 2.05923 20.1882 2.08962 19.912C2.31835 17.8757 3.28929 15.9951 4.81693 14.6295C6.34457 13.2638 8.3218 12.5089 10.3709 12.5089C12.4199 12.5089 14.3972 13.2638 15.9248 14.6295C17.4524 15.9951 18.4234 17.8757 18.6521 19.912C18.6804 20.1679 18.8026 20.4043 18.9949 20.5755C19.1873 20.7467 19.4363 20.8406 19.6938 20.8391H19.8084C20.0814 20.8076 20.331 20.6696 20.5027 20.4549C20.6744 20.2403 20.7543 19.9665 20.725 19.6932C20.5162 17.8143 19.7999 16.0276 18.653 14.5247C17.5061 13.0218 15.9718 11.8593 14.2146 11.162ZM10.35 10.4224C9.52594 10.4224 8.72036 10.178 8.03516 9.72018C7.34995 9.26234 6.8159 8.6116 6.50053 7.85024C6.18517 7.08888 6.10266 6.2511 6.26343 5.44285C6.4242 4.63459 6.82104 3.89216 7.40375 3.30945C7.98647 2.72673 8.7289 2.32989 9.53716 2.16912C10.3454 2.00835 11.1832 2.09086 11.9445 2.40623C12.7059 2.72159 13.3567 3.25564 13.8145 3.94085C14.2723 4.62605 14.5167 5.43164 14.5167 6.25572C14.5167 7.36079 14.0777 8.4206 13.2963 9.202C12.5149 9.9834 11.4551 10.4224 10.35 10.4224Z" fill="#333333"/>
</svg>
