<svg width="12" height="12" viewBox="0 0 12 12" fill="none" xmlns="http://www.w3.org/2000/svg">
<path fill-rule="evenodd" clip-rule="evenodd" d="M0 6C0 4.4087 0.632141 2.88258 1.75736 1.75736C2.88258 0.632141 4.4087 0 6 0C7.5913 0 9.11742 0.632141 10.2426 1.75736C11.3679 2.88258 12 4.4087 12 6C12 7.5913 11.3679 9.11742 10.2426 10.2426C9.11742 11.3679 7.5913 12 6 12C4.4087 12 2.88258 11.3679 1.75736 10.2426C0.632141 9.11742 2.37122e-08 7.5913 0 6ZM4.11857 7.40057C4.11857 7.25849 4.06213 7.12223 3.96166 7.02176C3.8612 6.9213 3.72494 6.86486 3.58286 6.86486C3.44078 6.86486 3.30452 6.9213 3.20405 7.02176C3.10358 7.12223 3.04714 7.25849 3.04714 7.40057C3.04687 7.74282 3.14729 8.07758 3.33589 8.36317C3.52449 8.64876 3.79294 8.87256 4.10781 9.00669C4.42267 9.14082 4.77004 9.17937 5.10665 9.11752C5.44326 9.05567 5.75424 8.89616 6.00086 8.65886C6.24746 8.89582 6.55828 9.05506 6.89467 9.11678C7.23106 9.17849 7.57816 9.13996 7.89282 9.00596C8.20748 8.87197 8.47581 8.64843 8.66443 8.36315C8.85306 8.07787 8.95366 7.74343 8.95371 7.40143C8.95371 7.33108 8.93986 7.26142 8.91294 7.19642C8.88601 7.13142 8.84655 7.07237 8.79681 7.02262C8.74706 6.97288 8.68801 6.93342 8.62301 6.90649C8.55801 6.87957 8.48835 6.86571 8.418 6.86571C8.34765 6.86571 8.27799 6.87957 8.21299 6.90649C8.148 6.93342 8.08894 6.97288 8.03919 7.02262C7.98945 7.07237 7.94999 7.13142 7.92307 7.19642C7.89614 7.26142 7.88229 7.33108 7.88229 7.40143C7.88229 7.57988 7.8114 7.75103 7.68521 7.87721C7.55903 8.0034 7.38788 8.07429 7.20943 8.07429C7.03098 8.07429 6.85983 8.0034 6.73365 7.87721C6.60746 7.75103 6.53657 7.57988 6.53657 7.40143C6.53657 7.25935 6.48013 7.12309 6.37966 7.02262C6.2792 6.92216 6.14294 6.86571 6.00086 6.86571C5.85878 6.86571 5.72252 6.92216 5.62205 7.02262C5.52158 7.12309 5.46514 7.25935 5.46514 7.40143C5.46514 7.48979 5.44774 7.57729 5.41392 7.65892C5.38011 7.74055 5.33055 7.81473 5.26807 7.87721C5.20559 7.93969 5.13141 7.98925 5.04978 8.02307C4.96814 8.05688 4.88065 8.07429 4.79229 8.07429C4.70392 8.07429 4.61643 8.05688 4.53479 8.02307C4.45316 7.98925 4.37898 7.93969 4.3165 7.87721C4.25402 7.81473 4.20446 7.74055 4.17065 7.65892C4.13683 7.57729 4.11943 7.48979 4.11943 7.40143L4.11857 7.40057ZM8.16086 4.42971C8.388 4.42971 8.57229 4.548 8.62629 4.63543C8.66315 4.69537 8.71146 4.74746 8.76845 4.78873C8.82545 4.83 8.89002 4.85964 8.95847 4.87595C9.02692 4.89227 9.09791 4.89494 9.16739 4.88382C9.23688 4.8727 9.30349 4.84801 9.36343 4.81114C9.42337 4.77428 9.47546 4.72597 9.51673 4.66897C9.558 4.61198 9.58764 4.54741 9.60395 4.47896C9.62027 4.41051 9.62294 4.33952 9.61182 4.27004C9.6007 4.20055 9.57601 4.13394 9.53914 4.074C9.24771 3.6 8.67086 3.35829 8.16086 3.35829C7.65086 3.35829 7.074 3.6 6.78257 4.074C6.74571 4.13394 6.72101 4.20055 6.70989 4.27004C6.69877 4.33952 6.70144 4.41051 6.71776 4.47896C6.75071 4.6172 6.83723 4.73669 6.95829 4.81114C7.07934 4.88559 7.22501 4.90891 7.36325 4.87595C7.50149 4.843 7.62098 4.75648 7.69543 4.63543C7.74943 4.548 7.93372 4.42971 8.16086 4.42971ZM3.37543 4.63543C3.42943 4.548 3.61371 4.42971 3.84086 4.42971C4.068 4.42971 4.25229 4.548 4.30629 4.63543C4.38074 4.75648 4.50022 4.843 4.63847 4.87595C4.77671 4.90891 4.92238 4.88559 5.04343 4.81114C5.16448 4.73669 5.251 4.6172 5.28395 4.47896C5.31691 4.34072 5.29359 4.19505 5.21914 4.074C4.92771 3.6 4.35086 3.35829 3.84086 3.35829C3.33086 3.35829 2.75486 3.6 2.46257 4.074C2.42571 4.13394 2.40101 4.20055 2.38989 4.27004C2.37877 4.33952 2.38144 4.41051 2.39776 4.47896C2.41408 4.54741 2.44372 4.61198 2.48499 4.66897C2.52626 4.72597 2.57835 4.77428 2.63829 4.81114C2.69822 4.84801 2.76484 4.8727 2.83432 4.88382C2.90381 4.89494 2.9748 4.89227 3.04325 4.87595C3.1117 4.85964 3.17626 4.83 3.23326 4.78873C3.29026 4.74746 3.33856 4.69537 3.37543 4.63543Z" fill="white"/>
</svg>
