<svg width="21" height="20" viewBox="0 0 21 20" fill="none" xmlns="http://www.w3.org/2000/svg">
<path d="M17.8676 3.81574C17.4286 3.39622 16.907 3.06335 16.3327 2.83623C15.7583 2.6091 15.1426 2.49219 14.5207 2.49219C13.8988 2.49219 13.2831 2.6091 12.7087 2.83623C12.1344 3.06335 11.6128 3.39622 11.1738 3.81574L10.5001 4.46574L9.82633 3.81574C9.38736 3.39622 8.86575 3.06335 8.29142 2.83623C7.71709 2.6091 7.10133 2.49219 6.47945 2.49219C5.85757 2.49219 5.24181 2.6091 4.66748 2.83623C4.09315 3.06335 3.57154 3.39622 3.13258 3.81574C1.27758 5.5824 1.16383 8.56574 3.50008 10.8324L10.5001 17.4991L17.5001 10.8324C19.8363 8.56574 19.7226 5.5824 17.8676 3.81574Z" stroke="#090808" stroke-width="2" stroke-linecap="round" stroke-linejoin="round"/>
</svg>
