<svg width="23" height="23" viewBox="0 0 23 23" fill="none" xmlns="http://www.w3.org/2000/svg">
<path d="M19.5692 4.38927C19.0885 3.90682 18.5172 3.52402 17.8882 3.26283C17.2591 3.00164 16.5847 2.86719 15.9036 2.86719C15.2225 2.86719 14.5481 3.00164 13.9191 3.26283C13.2901 3.52402 12.7188 3.90682 12.238 4.38927L11.5001 5.13677L10.7622 4.38927C10.2814 3.90682 9.71011 3.52402 9.08108 3.26283C8.45205 3.00164 7.77764 2.86719 7.09654 2.86719C6.41544 2.86719 5.74103 3.00164 5.112 3.26283C4.48297 3.52402 3.91169 3.90682 3.43092 4.38927C1.39925 6.42093 1.27467 9.85177 3.83342 12.4584L11.5001 20.1251L19.1667 12.4584C21.7255 9.85177 21.6009 6.42093 19.5692 4.38927Z" stroke="#6472FC" stroke-width="2" stroke-linecap="round" stroke-linejoin="round"/>
</svg>
