<svg width="23" height="21" viewBox="0 0 23 21" fill="none" xmlns="http://www.w3.org/2000/svg">
<path d="M19.5692 3.38927C19.0885 2.90682 18.5172 2.52402 17.8882 2.26283C17.2591 2.00164 16.5847 1.86719 15.9036 1.86719C15.2225 1.86719 14.5481 2.00164 13.9191 2.26283C13.2901 2.52402 12.7188 2.90682 12.238 3.38927L11.5001 4.13677L10.7622 3.38927C10.2814 2.90682 9.71011 2.52402 9.08108 2.26283C8.45205 2.00164 7.77764 1.86719 7.09654 1.86719C6.41544 1.86719 5.74103 2.00164 5.112 2.26283C4.48297 2.52402 3.91169 2.90682 3.43092 3.38927C1.39925 5.42093 1.27467 8.85177 3.83342 11.4584L11.5001 19.1251L19.1667 11.4584C21.7255 8.85177 21.6009 5.42093 19.5692 3.38927Z" fill="#6472FC" stroke="#6472FC" stroke-width="2" stroke-linecap="round" stroke-linejoin="round"/>
</svg>
