<svg width="18" height="20" viewBox="0 0 18 20" fill="none" xmlns="http://www.w3.org/2000/svg">
<path d="M11.2349 17C12.0999 17 12.5569 18.024 11.9799 18.668C11.6048 19.0871 11.1455 19.4223 10.632 19.6518C10.1185 19.8813 9.56239 20 8.99995 20C8.4375 20 7.88138 19.8813 7.3679 19.6518C6.85441 19.4223 6.3951 19.0871 6.01995 18.668C5.46795 18.052 5.86195 17.089 6.65395 17.007L6.76395 17.001L11.2349 17ZM8.99995 0C10.3579 0 11.5059 0.903 11.8749 2.141L11.9209 2.312L11.9289 2.355C13.0315 2.97671 13.971 3.85086 14.6705 4.9058C15.3699 5.96073 15.8094 7.16641 15.9529 8.424L15.9809 8.711L15.9999 9V11.931L16.0209 12.067C16.1579 12.8038 16.5656 13.4627 17.1639 13.914L17.3309 14.031L17.4929 14.13C18.3529 14.617 18.0529 15.896 17.1159 15.994L16.9999 16H0.999947C-0.0280527 16 -0.387053 14.636 0.506947 14.13C0.887977 13.9144 1.21719 13.618 1.47149 13.2616C1.72578 12.9052 1.89899 12.4974 1.97895 12.067L1.99995 11.924L2.00095 8.954C2.06192 7.64788 2.44211 6.37661 3.10823 5.25147C3.77436 4.12632 4.70611 3.18161 5.82195 2.5L6.06995 2.354L6.07995 2.311C6.22101 1.71283 6.54238 1.17241 7.0006 0.762846C7.45881 0.353278 8.03176 0.0943209 8.64195 0.0209999L8.82395 0.00399995L8.99995 0Z" fill="#333333"/>
</svg>
