<svg width="32" height="26" viewBox="0 0 32 26" fill="none" xmlns="http://www.w3.org/2000/svg">
<path opacity="0.5" d="M16.3464 22.3109L10.5327 28.3312C9.70025 29.1929 9.284 29.6246 8.92941 29.7726C8.12775 30.1118 7.23512 29.8219 6.8127 29.0819C6.6277 28.7582 6.56912 28.1724 6.45504 27.0007C6.38875 26.3378 6.35637 26.0079 6.2577 25.7304C6.15261 25.4282 5.98304 25.1526 5.76075 24.9226C5.53845 24.6926 5.26877 24.5137 4.97041 24.3984C4.7037 24.2951 4.38458 24.2612 3.74479 24.1933C2.6132 24.0746 2.04741 24.0145 1.73291 23.8233C1.01912 23.3855 0.736996 22.462 1.06537 21.6311C1.21029 21.2657 1.62654 20.834 2.45904 19.9722L6.2577 16.0394L8.16629 14.1309L16.3464 22.3109ZM16.3464 22.3109L24.5265 14.1309L26.435 16.0394L30.2337 19.9707C31.0662 20.834 31.4825 21.2657 31.6274 21.6295C31.9557 22.462 31.6736 23.3855 30.9598 23.8233C30.6453 24.0145 30.0811 24.0746 28.948 24.1933C28.3097 24.2612 27.989 24.2951 27.7223 24.3984C27.1226 24.6281 26.6586 25.1106 26.435 25.7304C26.3364 26.0079 26.304 26.3378 26.2377 26.9992C26.1221 28.1708 26.065 28.7566 25.88 29.0819C25.4576 29.8219 24.565 30.1133 23.7618 29.7726C23.4103 29.6246 22.994 29.1929 22.1615 28.3312L16.3464 22.3109Z" fill="#9747FF"/>
<path fill-rule="evenodd" clip-rule="evenodd" d="M16.3459 22.2064C19.208 22.2064 21.9529 21.0694 23.9767 19.0456C26.0006 17.0217 27.1375 14.2768 27.1375 11.4147C27.1375 8.55259 26.0006 5.80768 23.9767 3.78385C21.9529 1.76002 19.208 0.623047 16.3459 0.623047C13.4837 0.623047 10.7388 1.76002 8.71501 3.78385C6.69118 5.80768 5.5542 8.55259 5.5542 11.4147C5.5542 14.2768 6.69118 17.0217 8.71501 19.0456C10.7388 21.0694 13.4837 22.2064 16.3459 22.2064ZM16.3459 6.78971C15.908 6.78971 15.6151 7.31388 15.0293 8.36684L14.8782 8.63817C14.7117 8.93726 14.6284 9.08526 14.499 9.18392C14.3679 9.28259 14.206 9.31959 13.8823 9.39205L13.5894 9.45988C12.4516 9.71734 11.8827 9.8453 11.7471 10.28C11.6114 10.7148 11.9999 11.1696 12.7754 12.0761L12.9758 12.3104C13.1962 12.5679 13.3072 12.6958 13.3566 12.8562C13.4059 13.0165 13.3889 13.1876 13.3566 13.5314L13.3257 13.8444C13.2086 15.0546 13.15 15.6605 13.503 15.9287C13.8576 16.197 14.391 15.9518 15.4563 15.4616L15.7307 15.3352C16.0344 15.1964 16.1855 15.127 16.3459 15.127C16.5062 15.127 16.6573 15.1964 16.961 15.3352L17.2354 15.4616C18.3007 15.9534 18.8341 16.197 19.1887 15.9287C19.5433 15.6605 19.4832 15.0546 19.366 13.8444L19.3352 13.5314C19.3028 13.1876 19.2858 13.0165 19.3352 12.8562C19.3845 12.6958 19.4955 12.5679 19.716 12.3104L19.9164 12.0761C20.6918 11.1696 21.0803 10.7163 20.9447 10.28C20.809 9.8453 20.2401 9.71734 19.1024 9.45988L18.8094 9.39205C18.4857 9.31959 18.3238 9.28413 18.1928 9.18392C18.0633 9.08526 17.98 8.93726 17.8135 8.63817L17.6624 8.36684C17.0766 7.31388 16.7837 6.78971 16.3459 6.78971Z" fill="#9747FF"/>
</svg>
