<svg width="55" height="55" viewBox="0 0 55 55" fill="none" xmlns="http://www.w3.org/2000/svg">
<g clip-path="url(#clip0_246_7994)">
<path d="M29.6867 1.8209C29.2227 2.2334 25.6133 9.39629 25.6133 9.39629L22.9277 20.2287L33.3777 19.2705C33.3777 19.2705 42.0703 3.10566 42.2465 2.73184C42.5602 2.05293 42.7277 1.77363 41.5289 1.77363C40.3301 1.76934 30.1207 1.43418 29.6867 1.8209Z" fill="#176CC7"/>
<path d="M35.0964 18.6011C34.5765 18.3218 19.2624 18.0812 18.9015 18.6011C18.5749 19.0738 18.6222 21.2351 18.7812 21.5144C18.9402 21.7937 24.0878 24.1871 24.0878 24.1871L24.0835 25.0593C24.0835 25.0593 24.3671 25.7425 27.2374 25.7425C30.1077 25.7425 30.4042 25.1625 30.4042 25.1625L30.43 24.2816C30.43 24.2816 34.9374 22.03 35.1737 21.8324C35.4144 21.6304 35.6163 18.8804 35.0964 18.6011ZM30.3784 22.1804C30.3784 22.1804 30.3655 21.5789 30.0691 21.4285C29.7726 21.2781 24.9988 21.3039 24.5948 21.3254C24.1909 21.3468 24.1909 22.0687 24.1909 22.0687L20.9253 20.4789V20.1609L33.0855 20.2468L33.107 20.6078L30.3784 22.1804Z" fill="#FCC417"/>
<path d="M25.4641 21.9863C25.0602 21.9863 24.8281 22.4074 24.8281 23.1336C24.8281 23.8125 25.0602 24.384 25.5715 24.341C25.9926 24.3066 26.1387 23.6621 26.1 23.0906C26.0613 22.4117 25.9754 21.9863 25.4641 21.9863Z" fill="#FDFFFF"/>
<path d="M12.4531 38.9812C12.4531 49.2766 21.7602 53.8613 27.9477 53.6422C34.7711 53.3973 42.9437 48.0777 42.4496 38.2551C41.9812 28.948 34.1523 24.5351 27.3719 24.5824C19.4914 24.6383 12.4531 29.9879 12.4531 38.9812Z" fill="#FCC417"/>
<path d="M23.9985 33.0938C23.775 33.4246 23.977 36.325 24.1102 36.4539C24.368 36.7118 26.3274 35.7879 26.3274 35.7879L26.2543 43.5438C26.2543 43.5438 24.8149 43.5266 24.6645 43.5825C24.368 43.6942 24.4067 46.6848 24.6258 46.8309C24.8449 46.977 30.7188 47.0543 30.9422 46.7578C31.1656 46.4614 31.1098 43.8446 31.0067 43.7243C30.8219 43.5008 29.4168 43.591 29.4168 43.591C29.4168 43.591 29.5371 32.17 29.4985 31.8047C29.4598 31.4395 29.0559 31.2118 28.5746 31.3235C28.0934 31.4352 24.1403 32.8789 23.9985 33.0938Z" fill="#FA912C"/>
<path d="M10.9622 1.59831C10.6915 1.84753 21.0427 20.2811 21.0427 20.2811C21.0427 20.2811 22.7787 20.5046 26.6544 20.5389C30.5302 20.5733 32.4509 20.3155 32.4509 20.3155C32.4509 20.3155 24.4029 1.78308 23.9216 1.59831C23.6853 1.50378 20.497 1.4694 17.3818 1.43503C14.2622 1.39636 11.2201 1.35769 10.9622 1.59831Z" fill="#2E9DF4"/>
<path d="M29.6867 0.820899C29.2227 1.2334 25.6133 8.39629 25.6133 8.39629L22.9277 19.2287L33.3777 18.2705C33.3777 18.2705 42.0703 2.10566 42.2465 1.73184C42.5602 1.05293 42.7277 0.773633 41.5289 0.773633C40.3301 0.769336 30.1207 0.43418 29.6867 0.820899Z" fill="#176CC7"/>
<path d="M35.0969 17.6011C34.577 17.3218 19.2629 17.0812 18.902 17.6011C18.5754 18.0738 18.7602 20.5531 18.8848 20.8496C19.1082 21.3652 24.0539 23.6125 24.0539 23.6125L23.9594 24.6351C23.9594 24.6351 24.3633 24.7382 27.2379 24.7382C30.1125 24.7382 30.6797 24.5922 30.6797 24.5922L30.6883 23.6683C30.6883 23.6683 35.1399 21.5027 35.3633 21.2019C35.5524 20.9527 35.6168 17.8804 35.0969 17.6011ZM30.5379 21.5199C30.5379 21.5199 30.6797 20.8882 30.3832 20.7422C30.0867 20.5918 24.9992 20.6605 24.5953 20.682C24.1914 20.7035 24.1914 21.4254 24.1914 21.4254L20.9258 19.4789V19.1609L33.086 19.2468L33.1074 19.6078L30.5379 21.5199Z" fill="#CECDD2"/>
<path d="M25.4641 20.9863C25.0602 20.9863 24.8281 21.4074 24.8281 22.1336C24.8281 22.8125 25.0602 23.384 25.5715 23.341C25.9926 23.3066 26.1387 22.6621 26.1 22.0906C26.0613 21.4117 25.9754 20.9863 25.4641 20.9863Z" fill="#FDFFFF"/>
<path d="M12.4473 38.484C12.4473 48.7793 21.9219 53.1492 28.1137 52.9645C35.3281 52.7496 42.9422 47.2754 42.448 37.4527C41.9797 28.1457 34.0863 24.0078 27.3059 24.0551C19.4254 24.1152 12.4473 29.4906 12.4473 38.484Z" fill="#CECDD2"/>
<path d="M27.7279 51.0473C27.6205 51.0473 27.5088 51.0473 27.4013 51.043C24.1787 50.9355 20.9947 49.5777 18.6658 47.3219C16.1736 44.907 14.8072 41.6414 14.8244 38.1309C14.8631 29.5586 22.3568 25.584 27.44 25.584H27.483C34.3709 25.6141 40.0256 30.968 40.1845 38.2254C40.2533 41.4566 38.9298 44.8469 36.3345 47.3992C33.9111 49.7754 30.697 51.0473 27.7279 51.0473ZM27.4314 27.0105C22.8724 27.0105 16.1306 30.7402 16.1134 38.1309C16.1006 43.6566 20.3802 49.3371 27.5088 49.5777C30.2244 49.6637 33.0216 48.6238 35.2818 46.4023C37.6279 44.0949 38.947 41.1215 38.8998 38.2426C38.7881 31.9992 33.6834 27.032 27.4873 27.002C27.4787 27.002 27.4443 27.0105 27.4314 27.0105Z" fill="#9B9B9D"/>
<path d="M24.9609 25.4122C24.6644 25.004 21.6265 25.1201 18.3566 27.9345C15.1081 30.7318 14.6226 33.8255 15.207 33.9888C15.873 34.1736 16.6851 31.1829 19.491 28.6693C22.0691 26.3704 25.5495 26.2244 24.9609 25.4122ZM37.7613 36.6915C36.7257 36.8376 37.7999 39.94 35.398 43.4119C33.314 46.424 30.9507 47.5154 31.2257 48.1771C31.5952 49.0622 35.3808 46.8579 37.1339 43.2658C38.7195 40.0173 38.5304 36.5841 37.7613 36.6915Z" fill="#FEFFFA"/>
<path d="M10.9622 0.598311C10.6915 0.84753 21.0427 19.2811 21.0427 19.2811C21.0427 19.2811 22.7787 19.5046 26.6544 19.5389C30.5302 19.5733 32.4509 19.3155 32.4509 19.3155C32.4509 19.3155 24.4029 0.783077 23.9216 0.598311C23.6853 0.50378 20.497 0.469405 17.3818 0.43503C14.2622 0.396358 11.2201 0.357686 10.9622 0.598311Z" fill="#2E9DF4"/>
<path d="M24.4281 36.1029C24.8749 36.1072 25.2745 35.5013 25.6441 35.1318C26.4304 34.3411 27.2554 33.7138 28.1964 34.5646C30.5081 36.6658 25.8675 38.797 24.1058 41.7103C22.7909 43.8845 22.5245 45.556 22.8898 46.0029C23.255 46.4497 32.1452 46.4283 32.2656 46.2048C32.3859 45.9814 32.5105 43.0037 32.3042 42.8619C32.098 42.7201 27.7281 42.8017 27.7281 42.8017C27.7281 42.8017 28.0933 41.9509 29.5929 40.6533C31.2386 39.231 32.5577 37.2759 32.2054 34.9642C31.4749 30.1861 26.6624 30.0099 24.5784 31.6728C22.546 33.2927 22.9843 36.0857 24.4281 36.1029Z" fill="#9B9B9D"/>
</g>
<defs>
<clipPath id="clip0_246_7994">
<rect width="55" height="55" fill="white"/>
</clipPath>
</defs>
</svg>
