<svg width="55" height="55" viewBox="0 0 55 55" fill="none" xmlns="http://www.w3.org/2000/svg">
<path d="M29.6867 1.8209C29.2227 2.2334 25.6133 9.39629 25.6133 9.39629L22.9277 20.2287L33.3777 19.2705C33.3777 19.2705 42.0703 3.10566 42.2465 2.73184C42.5602 2.05293 42.7277 1.77363 41.5289 1.77363C40.3301 1.76934 30.1207 1.43418 29.6867 1.8209Z" fill="#176CC7"/>
<path d="M35.0964 18.6011C34.5765 18.3218 19.2624 18.0812 18.9015 18.6011C18.5749 19.0738 18.6222 21.2351 18.7812 21.5144C18.9402 21.7937 24.0878 24.1871 24.0878 24.1871L24.0835 25.0593C24.0835 25.0593 24.3671 25.7425 27.2374 25.7425C30.1077 25.7425 30.4042 25.1625 30.4042 25.1625L30.43 24.2816C30.43 24.2816 34.9374 22.03 35.1737 21.8324C35.4144 21.6304 35.6163 18.8804 35.0964 18.6011ZM30.3784 22.1804C30.3784 22.1804 30.3655 21.5789 30.0691 21.4285C29.7726 21.2781 24.9988 21.3039 24.5948 21.3254C24.1909 21.3468 24.1909 22.0687 24.1909 22.0687L20.9253 20.4789V20.1609L33.0855 20.2468L33.107 20.6078L30.3784 22.1804Z" fill="#FCC417"/>
<path d="M25.4641 21.9863C25.0602 21.9863 24.8281 22.4074 24.8281 23.1336C24.8281 23.8125 25.0602 24.384 25.5715 24.341C25.9926 24.3066 26.1387 23.6621 26.1 23.0906C26.0613 22.4117 25.9754 21.9863 25.4641 21.9863Z" fill="#FDFFFF"/>
<path d="M12.4531 38.9812C12.4531 49.2766 21.7602 53.8613 27.9477 53.6422C34.7711 53.3973 42.9437 48.0777 42.4496 38.2551C41.9812 28.948 34.1523 24.5351 27.3719 24.5824C19.4914 24.6383 12.4531 29.9879 12.4531 38.9812Z" fill="#FCC417"/>
<path d="M27.7279 51.85C27.6205 51.85 27.5088 51.85 27.4013 51.8457C24.1787 51.7383 20.9947 50.3805 18.6658 48.1246C16.1736 45.7098 14.8072 42.4441 14.8244 38.9336C14.8631 30.3613 22.3568 26.3867 27.44 26.3867H27.483C34.3709 26.4168 40.0255 31.7707 40.1845 39.0281C40.2533 42.2594 38.9298 45.6496 36.3345 48.202C33.9111 50.5781 30.697 51.85 27.7279 51.85ZM27.4314 27.8133C22.8724 27.8133 16.1306 31.543 16.1134 38.9336C16.1006 44.4594 20.3802 50.1398 27.5087 50.3805C30.2244 50.4664 33.0216 49.4266 35.2818 47.2051C37.6279 44.8977 38.947 41.9242 38.8998 39.0453C38.7966 32.802 33.692 27.8348 27.4959 27.809C27.4787 27.809 27.4443 27.8133 27.4314 27.8133Z" fill="#FA912C"/>
<path d="M24.8436 26.0427C24.5471 25.6344 21.187 25.7118 18.0116 28.8141C14.9479 31.8091 14.6171 34.6321 15.2057 34.7954C15.8718 34.9802 16.6839 31.9895 19.4897 29.4759C22.0678 27.1727 25.4366 26.8548 24.8436 26.0427ZM37.8417 37.1587C36.8061 37.3048 37.8803 40.4071 35.4784 43.879C33.3944 46.8911 31.0311 47.9825 31.3061 48.6442C31.6757 49.5294 35.4612 47.3251 37.2143 43.7329C38.8042 40.4802 38.6151 37.0469 37.8417 37.1587Z" fill="#FEFFFA"/>
<path d="M23.9985 33.0938C23.775 33.4246 23.977 36.325 24.1102 36.4539C24.368 36.7118 26.3274 35.7879 26.3274 35.7879L26.2543 43.5438C26.2543 43.5438 24.8149 43.5266 24.6645 43.5825C24.368 43.6942 24.4067 46.6848 24.6258 46.8309C24.8449 46.977 30.7188 47.0543 30.9422 46.7578C31.1656 46.4614 31.1098 43.8446 31.0067 43.7243C30.8219 43.5008 29.4168 43.591 29.4168 43.591C29.4168 43.591 29.5371 32.17 29.4985 31.8047C29.4598 31.4395 29.0559 31.2118 28.5746 31.3235C28.0934 31.4352 24.1403 32.8789 23.9985 33.0938Z" fill="#FA912C"/>
<path d="M10.9622 1.59831C10.6915 1.84753 21.0427 20.2811 21.0427 20.2811C21.0427 20.2811 22.7787 20.5046 26.6544 20.5389C30.5302 20.5733 32.4509 20.3155 32.4509 20.3155C32.4509 20.3155 24.4029 1.78308 23.9216 1.59831C23.6853 1.50378 20.497 1.4694 17.3818 1.43503C14.2622 1.39636 11.2201 1.35769 10.9622 1.59831Z" fill="#2E9DF4"/>
</svg>
