<svg width="55" height="55" viewBox="0 0 55 55" fill="none" xmlns="http://www.w3.org/2000/svg">
<g clip-path="url(#clip0_246_8012)">
<path d="M29.6867 1.8209C29.2227 2.2334 25.6133 9.39629 25.6133 9.39629L22.9277 20.2287L33.3777 19.2705C33.3777 19.2705 42.0703 3.10566 42.2465 2.73184C42.5602 2.05293 42.7277 1.77363 41.5289 1.77363C40.3301 1.76934 30.1207 1.43418 29.6867 1.8209Z" fill="#176CC7"/>
<path d="M35.0964 18.6011C34.5765 18.3218 19.2624 18.0812 18.9015 18.6011C18.5749 19.0738 18.6222 21.2351 18.7812 21.5144C18.9402 21.7937 24.0878 24.1871 24.0878 24.1871L24.0835 25.0593C24.0835 25.0593 24.3671 25.7425 27.2374 25.7425C30.1077 25.7425 30.4042 25.1625 30.4042 25.1625L30.43 24.2816C30.43 24.2816 34.9374 22.03 35.1737 21.8324C35.4144 21.6304 35.6163 18.8804 35.0964 18.6011ZM30.3784 22.1804C30.3784 22.1804 30.3655 21.5789 30.0691 21.4285C29.7726 21.2781 24.9988 21.3039 24.5948 21.3254C24.1909 21.3468 24.1909 22.0687 24.1909 22.0687L20.9253 20.4789V20.1609L33.0855 20.2468L33.107 20.6078L30.3784 22.1804Z" fill="#FCC417"/>
<path d="M25.4641 21.9863C25.0602 21.9863 24.8281 22.4074 24.8281 23.1336C24.8281 23.8125 25.0602 24.384 25.5715 24.341C25.9926 24.3066 26.1387 23.6621 26.1 23.0906C26.0613 22.4117 25.9754 21.9863 25.4641 21.9863Z" fill="#FDFFFF"/>
<path d="M12.4531 38.9812C12.4531 49.2766 21.7602 53.8613 27.9477 53.6422C34.7711 53.3973 42.9437 48.0777 42.4496 38.2551C41.9812 28.948 34.1523 24.5351 27.3719 24.5824C19.4914 24.6383 12.4531 29.9879 12.4531 38.9812Z" fill="#FCC417"/>
<path d="M27.7279 51.85C27.6205 51.85 27.5088 51.85 27.4013 51.8457C24.1787 51.7383 20.9947 50.3805 18.6658 48.1246C16.1736 45.7098 14.8072 42.4441 14.8244 38.9336C14.8631 30.3613 22.3568 26.3867 27.44 26.3867H27.483C34.3709 26.4168 40.0255 31.7707 40.1845 39.0281C40.2533 42.2594 38.9298 45.6496 36.3345 48.202C33.9111 50.5781 30.697 51.85 27.7279 51.85ZM27.4314 27.8133C22.8724 27.8133 16.1306 31.543 16.1134 38.9336C16.1006 44.4594 20.3802 50.1398 27.5087 50.3805C30.2244 50.4664 33.0216 49.4266 35.2818 47.2051C37.6279 44.8977 38.947 41.9242 38.8998 39.0453C38.7966 32.802 33.692 27.8348 27.4959 27.809C27.4787 27.809 27.4443 27.8133 27.4314 27.8133Z" fill="#FA912C"/>
<path d="M24.8436 26.0427C24.5471 25.6344 21.187 25.7118 18.0116 28.8141C14.9479 31.8091 14.6171 34.6321 15.2057 34.7954C15.8718 34.9802 16.6839 31.9895 19.4897 29.4759C22.0678 27.1727 25.4366 26.8548 24.8436 26.0427ZM37.8417 37.1587C36.8061 37.3048 37.8803 40.4071 35.4784 43.879C33.3944 46.8911 31.0311 47.9825 31.3061 48.6442C31.6757 49.5294 35.4612 47.3251 37.2143 43.7329C38.8042 40.4802 38.6151 37.0469 37.8417 37.1587Z" fill="#FEFFFA"/>
<path d="M23.9985 33.0938C23.775 33.4246 23.977 36.325 24.1102 36.4539C24.368 36.7118 26.3274 35.7879 26.3274 35.7879L26.2543 43.5438C26.2543 43.5438 24.8149 43.5266 24.6645 43.5825C24.368 43.6942 24.4067 46.6848 24.6258 46.8309C24.8449 46.977 30.7188 47.0543 30.9422 46.7578C31.1656 46.4614 31.1098 43.8446 31.0067 43.7243C30.8219 43.5008 29.4168 43.591 29.4168 43.591C29.4168 43.591 29.5371 32.17 29.4985 31.8047C29.4598 31.4395 29.0559 31.2118 28.5746 31.3235C28.0934 31.4352 24.1403 32.8789 23.9985 33.0938Z" fill="#FA912C"/>
<path d="M10.9622 1.59831C10.6915 1.84753 21.0427 20.2811 21.0427 20.2811C21.0427 20.2811 22.7787 20.5046 26.6544 20.5389C30.5302 20.5733 32.4509 20.3155 32.4509 20.3155C32.4509 20.3155 24.4029 1.78308 23.9216 1.59831C23.6853 1.50378 20.497 1.4694 17.3818 1.43503C14.2622 1.39636 11.2201 1.35769 10.9622 1.59831Z" fill="#2E9DF4"/>
<path d="M29.6867 1.8209C29.2227 2.2334 25.6133 9.39629 25.6133 9.39629L22.9277 20.2287L33.3777 19.2705C33.3777 19.2705 42.0703 3.10566 42.2465 2.73184C42.5602 2.05293 42.7277 1.77363 41.5289 1.77363C40.3301 1.76934 30.1207 1.43418 29.6867 1.8209Z" fill="#176CC7"/>
<path d="M35.0969 18.6011C34.577 18.3218 19.2629 18.0812 18.902 18.6011C18.5754 19.0738 18.7602 21.5531 18.8848 21.8496C19.1082 22.3652 24.0539 24.6125 24.0539 24.6125L23.9594 25.6351C23.9594 25.6351 24.3633 25.7382 27.2379 25.7382C30.1125 25.7382 30.6797 25.5922 30.6797 25.5922L30.6883 24.6683C30.6883 24.6683 35.1399 22.5027 35.3633 22.2019C35.5524 21.9527 35.6168 18.8804 35.0969 18.6011ZM30.5379 22.5199C30.5379 22.5199 30.6797 21.8882 30.3832 21.7422C30.0867 21.5918 24.9992 21.6605 24.5953 21.682C24.1914 21.7035 24.1914 22.4254 24.1914 22.4254L20.986 20.7754L20.9258 20.1609L33.086 20.2468L33.043 20.8269L30.5379 22.5199Z" fill="#F79429"/>
<path d="M25.4641 22.2969C25.0602 22.2969 24.8281 22.718 24.8281 23.4441C24.8281 24.123 25.0602 24.6945 25.5715 24.6516C25.9926 24.6172 26.1387 23.9727 26.1 23.4012C26.0613 22.718 25.9754 22.2969 25.4641 22.2969Z" fill="#FDFFFF"/>
<path d="M12.5938 39.5699C12.5938 49.8652 21.9223 54.1492 28.1141 53.9645C35.3285 53.7496 43.0887 48.2754 42.4484 38.4527C41.8469 29.2359 34.0867 25.0078 27.3062 25.0551C19.4258 25.1152 12.5938 30.5766 12.5938 39.5699Z" fill="#F79429"/>
<path d="M27.7884 52.4086C27.681 52.4086 27.5693 52.4086 27.4619 52.4043C24.2392 52.2969 21.0552 50.9391 18.7263 48.6832C16.2341 46.2684 14.8677 43.0027 14.8849 39.4922C14.9236 30.9199 22.4173 26.9453 27.5006 26.9453H27.5435C34.4314 26.9754 40.0861 32.3293 40.2451 39.5867C40.3138 42.818 39.2826 46.032 36.6873 48.5844C34.2638 50.9563 30.7576 52.4086 27.7884 52.4086ZM27.492 28.3719C22.933 28.3719 16.1912 32.1016 16.174 39.4922C16.1611 45.018 20.4408 50.6984 27.5693 50.9391C30.2849 51.025 33.3486 50.0195 35.6045 47.8023C37.9506 45.4949 39.0033 42.4871 38.956 39.6082C38.8529 33.3648 33.7482 28.3977 27.5521 28.3719C27.5392 28.3633 27.5048 28.3719 27.492 28.3719Z" fill="#D25116"/>
<path d="M24.9609 26.4122C24.6644 26.004 21.6265 26.1201 18.3566 28.9345C15.1081 31.7318 14.6226 34.8255 15.207 34.9888C15.873 35.1736 16.6851 32.1829 19.491 29.6693C22.0691 27.3704 25.5495 27.2244 24.9609 26.4122ZM38.0191 37.6572C36.9835 37.8033 38.0578 40.9056 35.6558 44.3775C33.5718 47.3896 31.2085 48.481 31.4835 49.1427C31.8531 50.0279 35.6386 47.8236 37.3917 44.2314C38.9773 40.9786 38.7882 37.5454 38.0191 37.6572Z" fill="#FEFFFA"/>
<path d="M10.9622 1.59831C10.6915 1.84753 21.0427 20.2811 21.0427 20.2811C21.0427 20.2811 22.7787 20.5046 26.6544 20.5389C30.5302 20.5733 32.4509 20.3155 32.4509 20.3155C32.4509 20.3155 24.4029 1.78308 23.9216 1.59831C23.6853 1.50378 20.497 1.4694 17.3818 1.43503C14.2622 1.39636 11.2201 1.35769 10.9622 1.59831Z" fill="#2E9DF4"/>
<path d="M32.205 35.9682C31.7065 31.6499 26.6792 31.2889 24.5952 32.9475C22.5671 34.5631 22.7604 36.8147 24.1827 37.0768C25.3042 37.2831 25.5964 36.3936 25.9229 35.9854C26.662 35.0702 27.8393 34.9842 28.6085 35.719C29.4808 36.5569 28.9436 38.5592 27.6331 38.6409C26.6577 38.701 26.1636 38.6495 26.039 38.8171C25.8628 39.0534 25.8886 40.9139 26.069 41.1202C26.2753 41.3565 27.1003 41.2104 27.8093 41.2362C28.7847 41.2749 29.8202 42.7186 29.137 43.8014C28.428 44.9229 26.5417 44.4202 25.8628 43.7413C24.9647 42.8432 24.0667 43.3589 23.7659 43.7112C23.2933 44.2698 22.7905 45.5417 24.535 46.7792C26.2753 48.0167 31.5561 48.253 32.6218 44.4202C33.5499 41.0729 31.3843 39.6979 31.3843 39.6979C31.3843 39.6979 32.4886 38.4303 32.205 35.9682Z" fill="#D25116"/>
</g>
<defs>
<clipPath id="clip0_246_8012">
<rect width="55" height="55" fill="white"/>
</clipPath>
</defs>
</svg>
