<svg width="24" height="24" viewBox="0 0 24 24" fill="none" xmlns="http://www.w3.org/2000/svg">
<path d="M23.3335 9.33341L14.0002 15.1667L4.66683 9.33341V7.00008L14.0002 12.8334L23.3335 7.00008M23.3335 4.66675H4.66683C3.37183 4.66675 2.3335 5.70508 2.3335 7.00008V21.0001C2.3335 21.6189 2.57933 22.2124 3.01691 22.65C3.4545 23.0876 4.04799 23.3334 4.66683 23.3334H23.3335C23.9523 23.3334 24.5458 23.0876 24.9834 22.65C25.421 22.2124 25.6668 21.6189 25.6668 21.0001V7.00008C25.6668 6.38124 25.421 5.78775 24.9834 5.35017C24.5458 4.91258 23.9523 4.66675 23.3335 4.66675Z" fill="#333333"/>
</svg>
