<svg width="21" height="20" viewBox="0 0 21 20" fill="none" xmlns="http://www.w3.org/2000/svg">
<path d="M10.5 10.8327C10.9832 10.8327 11.375 10.4596 11.375 9.99935C11.375 9.53911 10.9832 9.16602 10.5 9.16602C10.0168 9.16602 9.625 9.53911 9.625 9.99935C9.625 10.4596 10.0168 10.8327 10.5 10.8327Z" stroke="black" stroke-width="2" stroke-linecap="round" stroke-linejoin="round"/>
<path d="M16.625 10.8327C17.1082 10.8327 17.5 10.4596 17.5 9.99935C17.5 9.53911 17.1082 9.16602 16.625 9.16602C16.1418 9.16602 15.75 9.53911 15.75 9.99935C15.75 10.4596 16.1418 10.8327 16.625 10.8327Z" stroke="black" stroke-width="2" stroke-linecap="round" stroke-linejoin="round"/>
<path d="M4.375 10.8327C4.85825 10.8327 5.25 10.4596 5.25 9.99935C5.25 9.53911 4.85825 9.16602 4.375 9.16602C3.89175 9.16602 3.5 9.53911 3.5 9.99935C3.5 10.4596 3.89175 10.8327 4.375 10.8327Z" stroke="black" stroke-width="2" stroke-linecap="round" stroke-linejoin="round"/>
</svg>
