<svg width="16" height="20" viewBox="0 0 16 20" fill="none" xmlns="http://www.w3.org/2000/svg">
<path opacity="0.5" d="M8.79492 0H6.79492C4.9093 0 3.96649 0 3.38071 0.585786C2.79492 1.17157 2.79492 2.11438 2.79492 4V6V7.5H12.7949V6V4C12.7949 2.11438 12.7949 1.17157 12.2091 0.585786C11.6233 0 10.6805 0 8.79492 0Z" fill="#BF0F0F"/>
<path fill-rule="evenodd" clip-rule="evenodd" d="M9.23042 3.78311C8.33518 3.29495 7.25328 3.29495 6.35804 3.78311L1.56381 6.39728C0.599822 6.92292 0 7.93319 0 9.03117V13.9688C0 15.0668 0.599821 16.0771 1.56381 16.6027L6.35804 19.2169C7.25328 19.705 8.33518 19.705 9.23042 19.2169L14.0246 16.6027C14.9886 16.0771 15.5885 15.0668 15.5885 13.9688V9.03117C15.5885 7.93319 14.9886 6.92292 14.0246 6.39728L9.23042 3.78311ZM7.79443 8.5C7.51038 8.5 7.32038 8.84084 6.94038 9.52251L6.84207 9.69887C6.73409 9.89258 6.6801 9.98944 6.59592 10.0533C6.51173 10.1172 6.40689 10.141 6.1972 10.1884L6.00629 10.2316C5.26839 10.3986 4.89944 10.482 4.81166 10.7643C4.72388 11.0466 4.97541 11.3407 5.47846 11.929L5.60861 12.0812C5.75156 12.2483 5.82304 12.3319 5.85519 12.4353C5.88735 12.5387 5.87654 12.6502 5.85493 12.8733L5.83525 13.0763C5.7592 13.8612 5.72117 14.2536 5.95098 14.4281C6.18079 14.6025 6.52624 14.4435 7.21714 14.1254L7.39588 14.0431C7.59221 13.9527 7.69038 13.9075 7.79443 13.9075C7.89849 13.9075 7.99666 13.9527 8.19299 14.0431L8.37173 14.1254C9.06263 14.4435 9.40808 14.6025 9.63789 14.4281C9.8677 14.2536 9.82967 13.8612 9.75361 13.0763L9.73394 12.8733C9.71233 12.6502 9.70152 12.5387 9.73367 12.4353C9.76583 12.3319 9.8373 12.2483 9.98025 12.0812L10.1104 11.929C10.6135 11.3407 10.865 11.0466 10.7772 10.7643C10.6894 10.482 10.3205 10.3986 9.58257 10.2316L9.39167 10.1884C9.18198 10.141 9.07713 10.1172 8.99295 10.0533C8.90877 9.98944 8.85478 9.89258 8.74679 9.69887L8.64848 9.52251C8.26849 8.84084 8.07849 8.5 7.79443 8.5Z" fill="#BF0F0F"/>
</svg>
