<svg width="18" height="20" viewBox="0 0 18 20" fill="none" xmlns="http://www.w3.org/2000/svg">
<path d="M11.2345 17C12.0995 17 12.5565 18.024 11.9795 18.668C11.6043 19.0871 11.145 19.4223 10.6315 19.6518C10.118 19.8813 9.56191 20 8.99946 20C8.43701 20 7.8809 19.8813 7.36741 19.6518C6.85392 19.4223 6.39461 19.0871 6.01946 18.668C5.46746 18.052 5.86146 17.089 6.65346 17.007L6.76346 17.001L11.2345 17ZM8.99946 0C10.3575 0 11.5055 0.903 11.8745 2.141L11.9205 2.312L11.9285 2.355C13.031 2.97671 13.9705 3.85086 14.67 4.9058C15.3694 5.96073 15.8089 7.16641 15.9525 8.424L15.9805 8.711L15.9995 9V11.931L16.0205 12.067C16.1574 12.8038 16.5651 13.4627 17.1635 13.914L17.3305 14.031L17.4925 14.13C18.3525 14.617 18.0525 15.896 17.1155 15.994L16.9995 16H0.999459C-0.028541 16 -0.387541 14.636 0.506459 14.13C0.887489 13.9144 1.21671 13.618 1.471 13.2616C1.72529 12.9052 1.8985 12.4974 1.97846 12.067L1.99946 11.924L2.00046 8.954C2.06143 7.64788 2.44162 6.37661 3.10774 5.25147C3.77387 4.12632 4.70563 3.18161 5.82146 2.5L6.06946 2.354L6.07946 2.311C6.22052 1.71283 6.54189 1.17241 7.00011 0.762846C7.45832 0.353278 8.03127 0.0943209 8.64146 0.0209999L8.82346 0.00399995L8.99946 0Z" fill="#333333"/>
</svg>
