<svg width="20" height="16" viewBox="0 0 20 16" fill="none" xmlns="http://www.w3.org/2000/svg">
<path fill-rule="evenodd" clip-rule="evenodd" d="M12.0142 13L12.0082 15.003C12.0072 15.473 12.0062 15.708 11.8592 15.854C11.7122 16 11.4772 16 11.0052 16H7.99523C4.21523 16 2.32523 16 1.15023 14.828C0.340231 14.022 0.0892307 12.877 0.0102307 11.011C-0.00476933 10.641 -0.0127693 10.455 0.0562307 10.332C0.126231 10.209 0.401231 10.055 0.953231 9.746C1.26416 9.57266 1.52317 9.31942 1.70347 9.01247C1.88378 8.70552 1.97884 8.35599 1.97884 8C1.97884 7.64401 1.88378 7.29448 1.70347 6.98753C1.52317 6.68058 1.26416 6.42735 0.953231 6.254C0.401231 5.946 0.125231 5.791 0.0562307 5.668C-0.0127693 5.545 -0.00476941 5.36 0.0112306 4.989C0.0892306 3.123 0.341231 1.979 1.15023 1.172C2.32423 8.34465e-07 4.21423 1.00209e-06 7.99523 1.00209e-06H11.5052C11.5709 -0.000130451 11.6359 0.0126723 11.6966 0.0376783C11.7574 0.0626843 11.8126 0.0994036 11.8591 0.14574C11.9056 0.192077 11.9425 0.247122 11.9678 0.307735C11.993 0.368348 12.0061 0.43334 12.0062 0.499001L12.0142 3C12.0142 3.552 12.4632 4 13.0162 4V6C12.4632 6 12.0142 6.448 12.0142 7V9C12.0142 9.552 12.4632 10 13.0162 10V12C12.4632 12 12.0142 12.448 12.0142 13Z" fill="#FE2124"/>
<path opacity="0.5" d="M13.0176 11.9997C13.5706 11.9997 14.0196 12.4477 14.0196 12.9997V14.9757C14.0196 15.4577 14.0196 15.6987 14.1746 15.8457C14.3286 15.9937 14.5646 15.9837 15.0376 15.9637C16.9006 15.8847 18.0446 15.6327 18.8516 14.8277C19.6606 14.0217 19.9116 12.8757 19.9906 11.0097C20.0056 10.6397 20.0136 10.4547 19.9446 10.3317C19.8756 10.2077 19.5996 10.0537 19.0476 9.7457C18.7366 9.57236 18.4776 9.31912 18.2973 9.01217C18.117 8.70522 18.022 8.35569 18.022 7.9997C18.022 7.64371 18.117 7.29418 18.2973 6.98723C18.4776 6.68028 18.7366 6.42704 19.0476 6.2537C19.5996 5.9447 19.8756 5.7907 19.9446 5.6677C20.0146 5.5437 20.0056 5.3587 19.9906 4.9887C19.9116 3.1227 19.6606 1.9777 18.8506 1.1707C17.9736 0.2957 16.6966 0.0746996 14.5286 0.0186996C14.4623 0.017099 14.3964 0.0287719 14.3347 0.0530309C14.273 0.0772899 14.2168 0.113645 14.1694 0.159956C14.1219 0.206267 14.0842 0.261598 14.0585 0.322693C14.0328 0.383787 14.0196 0.44941 14.0196 0.515699V2.9997C14.0196 3.5517 13.5706 3.9997 13.0176 3.9997V5.9997C13.1491 5.99944 13.2793 6.02511 13.4009 6.07524C13.5224 6.12538 13.6329 6.199 13.726 6.29188C13.819 6.38477 13.8929 6.4951 13.9433 6.61655C13.9936 6.73801 14.0196 6.86821 14.0196 6.9997V8.9997C14.0196 9.5517 13.5706 9.9997 13.0176 9.9997V11.9997Z" fill="#FE2124"/>
</svg>
