<svg width="24" height="24" viewBox="0 0 24 24" fill="none" xmlns="http://www.w3.org/2000/svg">
<path fill-rule="evenodd" clip-rule="evenodd" d="M14.0142 17L14.0082 19.003C14.0072 19.473 14.0062 19.708 13.8592 19.854C13.7122 20 13.4772 20 13.0052 20H9.99523C6.21523 20 4.32523 20 3.15023 18.828C2.34023 18.022 2.08923 16.877 2.01023 15.011C1.99523 14.641 1.98723 14.455 2.05623 14.332C2.12623 14.209 2.40123 14.055 2.95323 13.746C3.26416 13.5727 3.52317 13.3194 3.70347 13.0125C3.88378 12.7055 3.97884 12.356 3.97884 12C3.97884 11.644 3.88378 11.2945 3.70347 10.9875C3.52317 10.6806 3.26416 10.4273 2.95323 10.254C2.40123 9.946 2.12523 9.791 2.05623 9.668C1.98723 9.545 1.99523 9.36 2.01123 8.989C2.08923 7.123 2.34123 5.979 3.15023 5.172C4.32423 4 6.21423 4 9.99523 4H13.5052C13.5709 3.99987 13.6359 4.01267 13.6966 4.03768C13.7574 4.06268 13.8126 4.0994 13.8591 4.14574C13.9056 4.19208 13.9425 4.24712 13.9678 4.30774C13.993 4.36835 14.0061 4.43334 14.0062 4.499L14.0142 7C14.0142 7.552 14.4632 8 15.0162 8V10C14.4632 10 14.0142 10.448 14.0142 11V13C14.0142 13.552 14.4632 14 15.0162 14V16C14.4632 16 14.0142 16.448 14.0142 17Z" fill="#214DFE"/>
<path opacity="0.5" d="M15.0176 15.9997C15.5706 15.9997 16.0196 16.4477 16.0196 16.9997V18.9757C16.0196 19.4577 16.0196 19.6987 16.1746 19.8457C16.3286 19.9937 16.5646 19.9837 17.0376 19.9637C18.9006 19.8847 20.0446 19.6327 20.8516 18.8277C21.6606 18.0217 21.9116 16.8757 21.9906 15.0097C22.0056 14.6397 22.0136 14.4547 21.9446 14.3317C21.8756 14.2077 21.5996 14.0537 21.0476 13.7457C20.7366 13.5724 20.4776 13.3191 20.2973 13.0122C20.117 12.7052 20.022 12.3557 20.022 11.9997C20.022 11.6437 20.117 11.2942 20.2973 10.9872C20.4776 10.6803 20.7366 10.427 21.0476 10.2537C21.5996 9.9447 21.8756 9.7907 21.9446 9.6677C22.0146 9.5437 22.0056 9.3587 21.9906 8.9887C21.9116 7.1227 21.6606 5.9777 20.8506 5.1707C19.9736 4.2957 18.6966 4.0747 16.5286 4.0187C16.4623 4.0171 16.3964 4.02877 16.3347 4.05303C16.273 4.07729 16.2168 4.11364 16.1694 4.15996C16.1219 4.20627 16.0842 4.2616 16.0585 4.32269C16.0328 4.38379 16.0196 4.44941 16.0196 4.5157V6.9997C16.0196 7.5517 15.5706 7.9997 15.0176 7.9997V9.9997C15.1491 9.99944 15.2793 10.0251 15.4009 10.0752C15.5224 10.1254 15.6329 10.199 15.726 10.2919C15.819 10.3848 15.8929 10.4951 15.9433 10.6166C15.9936 10.738 16.0196 10.8682 16.0196 10.9997V12.9997C16.0196 13.5517 15.5706 13.9997 15.0176 13.9997V15.9997Z" fill="#214DFE"/>
</svg>
