<svg width="254" height="39" viewBox="0 0 254 39" fill="none" xmlns="http://www.w3.org/2000/svg">
<rect width="254" height="39" rx="8" fill="#005EC0"/>
<path d="M77.1855 18.2344C77.0195 17.6387 76.541 17.2969 75.8477 17.2969C74.8125 17.2969 74.1484 18.0781 74.1484 19.4551C74.1484 20.8418 74.7734 21.6328 75.8477 21.6328C76.79 21.6328 77.3223 21.1396 77.3418 20.373H75.916V19.1523H78.9434V20.0801C78.9434 21.9648 77.6445 23.0977 75.8379 23.0977C73.8164 23.0977 72.4492 21.7109 72.4492 19.4746C72.4492 17.1602 73.9336 15.832 75.8086 15.832C77.4395 15.832 78.6992 16.8281 78.875 18.2344H77.1855ZM86.5801 19.4648C86.5801 21.7988 85.1152 23.0977 83.2207 23.0977C81.3164 23.0977 79.8613 21.7891 79.8613 19.4648C79.8613 17.1309 81.3164 15.832 83.2207 15.832C85.1152 15.832 86.5801 17.1309 86.5801 19.4648ZM84.8809 19.4648C84.8809 18.0586 84.2559 17.2969 83.2207 17.2969C82.1855 17.2969 81.5605 18.0586 81.5605 19.4648C81.5605 20.8711 82.1855 21.6328 83.2207 21.6328C84.2559 21.6328 84.8809 20.8711 84.8809 19.4648ZM94.1973 19.4648C94.1973 21.7988 92.7324 23.0977 90.8379 23.0977C88.9336 23.0977 87.4785 21.7891 87.4785 19.4648C87.4785 17.1309 88.9336 15.832 90.8379 15.832C92.7324 15.832 94.1973 17.1309 94.1973 19.4648ZM92.498 19.4648C92.498 18.0586 91.873 17.2969 90.8379 17.2969C89.8027 17.2969 89.1777 18.0586 89.1777 19.4648C89.1777 20.8711 89.8027 21.6328 90.8379 21.6328C91.873 21.6328 92.498 20.8711 92.498 19.4648ZM99.832 18.2344C99.666 17.6387 99.1875 17.2969 98.4941 17.2969C97.459 17.2969 96.7949 18.0781 96.7949 19.4551C96.7949 20.8418 97.4199 21.6328 98.4941 21.6328C99.4365 21.6328 99.9688 21.1396 99.9883 20.373H98.5625V19.1523H101.59V20.0801C101.59 21.9648 100.291 23.0977 98.4844 23.0977C96.4629 23.0977 95.0957 21.7109 95.0957 19.4746C95.0957 17.1602 96.5801 15.832 98.4551 15.832C100.086 15.832 101.346 16.8281 101.521 18.2344H99.832ZM102.596 23V15.9297H104.256V21.6426H107.225V23H102.596ZM108.094 23V15.9297H112.986V17.2871H109.754V18.7812H112.732V20.1387H109.754V21.6426H112.996V23H108.094ZM123.777 14.9727V23.9375H122.459V14.9727H123.777ZM121.893 15.168V23.5566H120.564V20.6562H119.422V19.5234H120.564V18.4297H119.598C119.188 19.8896 118.294 21.1055 116.629 22.0918L115.809 21.1055C117.576 20.0654 118.328 18.8545 118.494 17.1406H116.365V16.0176H119.891C119.891 16.4619 119.866 16.8867 119.822 17.2969H120.564V15.168H121.893ZM132.215 14.9727V20.2949H130.818V18.2441H129.549V17.1113H130.818V14.9727H132.215ZM129.119 20.4609C131.053 20.4609 132.234 21.1055 132.244 22.209C132.234 23.3027 131.053 23.957 129.119 23.957C127.205 23.957 126.023 23.3027 126.023 22.209C126.023 21.1055 127.205 20.4609 129.119 20.4609ZM129.119 21.5254C127.996 21.5254 127.42 21.7402 127.42 22.209C127.42 22.6777 127.996 22.8828 129.119 22.8828C130.262 22.8828 130.838 22.6777 130.848 22.209C130.838 21.7402 130.262 21.5254 129.119 21.5254ZM129.803 15.4805V16.6035H128.104C128.172 17.5654 128.748 18.5518 130.105 18.9961L129.422 20.0996C128.445 19.7871 127.791 19.1719 127.4 18.4102C127.01 19.2744 126.316 19.9727 125.271 20.3242L124.539 19.2109C125.989 18.7422 126.585 17.6484 126.658 16.6035H124.939V15.4805H129.803ZM137.352 15.3926C139.256 15.3926 140.76 16.4375 140.76 18C140.76 19.5918 139.256 20.627 137.352 20.627C135.457 20.627 133.963 19.5918 133.963 18C133.963 16.4375 135.457 15.3926 137.352 15.3926ZM137.352 16.5352C136.17 16.5254 135.33 17.082 135.33 18C135.33 18.9473 136.17 19.4746 137.352 19.4746C138.523 19.4746 139.363 18.9473 139.363 18C139.363 17.082 138.523 16.5254 137.352 16.5352ZM141.463 21.75V22.8828H133.27V21.75H141.463ZM150.105 21.8281V22.9707H141.912V21.8281H145.301V20.5781H142.83V17.4922H147.801V16.6523H142.82V15.5293H149.188V18.5859H144.236V19.4453H149.393V20.5781H146.688V21.8281H150.105ZM160.584 14.9727V23.9375H159.266V14.9727H160.584ZM158.699 15.168V23.5566H157.371V20.6562H156.229V19.5234H157.371V18.4297H156.404C155.994 19.8896 155.101 21.1055 153.436 22.0918L152.615 21.1055C154.383 20.0654 155.135 18.8545 155.301 17.1406H153.172V16.0176H156.697C156.697 16.4619 156.673 16.8867 156.629 17.2969H157.371V15.168H158.699ZM169.598 19.2891V20.4023H161.434V19.2891H164.803V18.166H166.209V19.2891H169.598ZM166.219 15.3828C166.219 16.3789 167.029 17.3652 169.188 17.6191L168.65 18.7129C167.112 18.4932 166.048 17.8877 165.486 17.0234C164.92 17.8779 163.86 18.4932 162.332 18.7129L161.834 17.6191C163.943 17.3652 164.783 16.3301 164.783 15.3828V15.1289H166.219V15.3828ZM168.621 20.959V23.9375H167.215V22.043H162.342V20.959H168.621ZM177.186 14.9727V18.4199H178.455V19.582H177.186V23.9375H175.799V14.9727H177.186ZM175.271 16.2812V17.3945H170.027V16.2812H171.971V15.1191H173.377V16.2812H175.271ZM172.674 17.8242C173.982 17.8242 174.979 18.7227 174.988 19.9824C174.979 21.252 173.982 22.1406 172.674 22.1406C171.326 22.1406 170.34 21.252 170.35 19.9824C170.34 18.7227 171.326 17.8242 172.674 17.8242ZM172.674 18.957C172.098 18.9668 171.688 19.3379 171.697 19.9824C171.688 20.6465 172.098 20.998 172.674 20.998C173.23 20.998 173.631 20.6465 173.641 19.9824C173.631 19.3379 173.23 18.9668 172.674 18.957ZM186.287 14.9727V23.9375H184.861V14.9727H186.287ZM183.592 15.9004C183.592 18.6641 182.713 20.9102 179.451 22.4434L178.719 21.3301C180.999 20.251 181.956 18.9277 182.156 16.9941H179.227V15.9004H183.592Z" fill="white"/>
</svg>
