<svg width="254" height="39" viewBox="0 0 254 39" fill="none" xmlns="http://www.w3.org/2000/svg">
<rect width="254" height="39" rx="8" fill="#FEE500"/>
<path d="M72.5371 23V15.9297H74.1973V18.9473H74.2949L76.668 15.9297H78.6406L76.1113 19.084L78.6797 23H76.6875L74.9004 20.1973L74.1973 21.0664V23H72.5371ZM80.7695 23H78.9727L81.375 15.9297H83.582L85.9746 23H84.1875L83.709 21.4863H81.248L80.7695 23ZM81.6484 20.2168H83.3086L82.5078 17.6777H82.4492L81.6484 20.2168ZM86.7266 23V15.9297H88.3867V18.9473H88.4844L90.8574 15.9297H92.8301L90.3008 19.084L92.8691 23H90.877L89.0898 20.1973L88.3867 21.0664V23H86.7266ZM94.959 23H93.1621L95.5645 15.9297H97.7715L100.164 23H98.377L97.8984 21.4863H95.4375L94.959 23ZM95.8379 20.2168H97.498L96.6973 17.6777H96.6387L95.8379 20.2168ZM107.215 19.4648C107.215 21.7988 105.75 23.0977 103.855 23.0977C101.951 23.0977 100.496 21.7891 100.496 19.4648C100.496 17.1309 101.951 15.832 103.855 15.832C105.75 15.832 107.215 17.1309 107.215 19.4648ZM105.516 19.4648C105.516 18.0586 104.891 17.2969 103.855 17.2969C102.82 17.2969 102.195 18.0586 102.195 19.4648C102.195 20.8711 102.82 21.6328 103.855 21.6328C104.891 21.6328 105.516 20.8711 105.516 19.4648ZM117.928 14.9727V23.9375H116.609V14.9727H117.928ZM116.043 15.168V23.5566H114.715V20.6562H113.572V19.5234H114.715V18.4297H113.748C113.338 19.8896 112.444 21.1055 110.779 22.0918L109.959 21.1055C111.727 20.0654 112.479 18.8545 112.645 17.1406H110.516V16.0176H114.041C114.041 16.4619 114.017 16.8867 113.973 17.2969H114.715V15.168H116.043ZM126.365 14.9727V20.2949H124.969V18.2441H123.699V17.1113H124.969V14.9727H126.365ZM123.27 20.4609C125.203 20.4609 126.385 21.1055 126.395 22.209C126.385 23.3027 125.203 23.957 123.27 23.957C121.355 23.957 120.174 23.3027 120.174 22.209C120.174 21.1055 121.355 20.4609 123.27 20.4609ZM123.27 21.5254C122.146 21.5254 121.57 21.7402 121.57 22.209C121.57 22.6777 122.146 22.8828 123.27 22.8828C124.412 22.8828 124.988 22.6777 124.998 22.209C124.988 21.7402 124.412 21.5254 123.27 21.5254ZM123.953 15.4805V16.6035H122.254C122.322 17.5654 122.898 18.5518 124.256 18.9961L123.572 20.0996C122.596 19.7871 121.941 19.1719 121.551 18.4102C121.16 19.2744 120.467 19.9727 119.422 20.3242L118.689 19.2109C120.14 18.7422 120.735 17.6484 120.809 16.6035H119.09V15.4805H123.953ZM131.502 15.3926C133.406 15.3926 134.91 16.4375 134.91 18C134.91 19.5918 133.406 20.627 131.502 20.627C129.607 20.627 128.113 19.5918 128.113 18C128.113 16.4375 129.607 15.3926 131.502 15.3926ZM131.502 16.5352C130.32 16.5254 129.48 17.082 129.48 18C129.48 18.9473 130.32 19.4746 131.502 19.4746C132.674 19.4746 133.514 18.9473 133.514 18C133.514 17.082 132.674 16.5254 131.502 16.5352ZM135.613 21.75V22.8828H127.42V21.75H135.613ZM144.256 21.8281V22.9707H136.062V21.8281H139.451V20.5781H136.98V17.4922H141.951V16.6523H136.971V15.5293H143.338V18.5859H138.387V19.4453H143.543V20.5781H140.838V21.8281H144.256ZM154.734 14.9727V23.9375H153.416V14.9727H154.734ZM152.85 15.168V23.5566H151.521V20.6562H150.379V19.5234H151.521V18.4297H150.555C150.145 19.8896 149.251 21.1055 147.586 22.0918L146.766 21.1055C148.533 20.0654 149.285 18.8545 149.451 17.1406H147.322V16.0176H150.848C150.848 16.4619 150.823 16.8867 150.779 17.2969H151.521V15.168H152.85ZM163.748 19.2891V20.4023H155.584V19.2891H158.953V18.166H160.359V19.2891H163.748ZM160.369 15.3828C160.369 16.3789 161.18 17.3652 163.338 17.6191L162.801 18.7129C161.263 18.4932 160.198 17.8877 159.637 17.0234C159.07 17.8779 158.011 18.4932 156.482 18.7129L155.984 17.6191C158.094 17.3652 158.934 16.3301 158.934 15.3828V15.1289H160.369V15.3828ZM162.771 20.959V23.9375H161.365V22.043H156.492V20.959H162.771ZM171.336 14.9727V18.4199H172.605V19.582H171.336V23.9375H169.949V14.9727H171.336ZM169.422 16.2812V17.3945H164.178V16.2812H166.121V15.1191H167.527V16.2812H169.422ZM166.824 17.8242C168.133 17.8242 169.129 18.7227 169.139 19.9824C169.129 21.252 168.133 22.1406 166.824 22.1406C165.477 22.1406 164.49 21.252 164.5 19.9824C164.49 18.7227 165.477 17.8242 166.824 17.8242ZM166.824 18.957C166.248 18.9668 165.838 19.3379 165.848 19.9824C165.838 20.6465 166.248 20.998 166.824 20.998C167.381 20.998 167.781 20.6465 167.791 19.9824C167.781 19.3379 167.381 18.9668 166.824 18.957ZM180.438 14.9727V23.9375H179.012V14.9727H180.438ZM177.742 15.9004C177.742 18.6641 176.863 20.9102 173.602 22.4434L172.869 21.3301C175.149 20.251 176.106 18.9277 176.307 16.9941H173.377V15.9004H177.742Z" fill="#635151"/>
</svg>
