<svg width="204" height="74" viewBox="0 0 204 74" fill="none" xmlns="http://www.w3.org/2000/svg">
<g opacity="0.75" filter="url(#filter0_diiii_2002_10102)">
<path fill-rule="evenodd" clip-rule="evenodd" d="M35.6044 65.9425C35.4383 65.9525 35.2718 65.9611 35.1049 65.9683C18.8279 66.6763 5.0588 54.0552 4.3508 37.7782C3.6428 21.5012 16.264 7.73208 32.541 7.02408C42.6307 6.58521 51.7568 11.268 57.4056 18.7685C60.1772 17.478 63.243 16.6991 66.4874 16.558C79.7297 15.982 90.9317 26.25 91.5077 39.4924C92.0837 52.7346 81.8157 63.9365 68.5734 64.5126L68.5735 64.5127L35.6046 65.9467L35.6044 65.9425Z" fill="url(#paint0_linear_2002_10102)"/>
</g>
<path d="M80.2994 25.0471C73.0651 17.8592 65.0209 20.409 61.903 22.5824L86.9008 42.4158C87.7146 39.6212 87.5337 32.2349 80.2994 25.0471Z" fill="url(#paint1_linear_2002_10102)"/>
<path d="M55.6487 62.48C55.6487 62.8267 55.4487 63 55.0487 63H44.6087C44.2087 63 44.0087 62.8267 44.0087 62.48C44.0087 62.1867 44.1954 61.9333 44.5687 61.72L46.3687 60.56L44.1687 53.84H36.0087L33.6087 60.56L36.2087 61.72C36.5821 61.8533 36.7687 62.0933 36.7687 62.44C36.7687 62.8133 36.5687 63 36.1687 63H28.0487C27.6487 63 27.4487 62.8133 27.4487 62.44C27.4487 62.0933 27.6354 61.8533 28.0087 61.72L30.9287 60.4L39.6087 37.04C39.8754 36.2933 40.1687 35.5867 40.4887 34.92C40.8887 34.12 41.3954 33.72 42.0087 33.72C42.6221 33.72 43.1287 34.12 43.5287 34.92C43.9554 35.8533 44.2621 36.56 44.4487 37.04L53.0887 60.4L55.0887 61.72C55.4621 61.9333 55.6487 62.1867 55.6487 62.48ZM36.7287 51.76H43.4887L40.2487 41.92L36.7287 51.76ZM71.7103 43C72.8303 43 73.7236 43.3067 74.3903 43.92C75.057 44.5333 75.3903 45.3067 75.3903 46.24C75.3903 47.0933 75.0836 47.8267 74.4703 48.44C73.8836 49.0267 73.177 49.32 72.3503 49.32C71.3903 49.32 70.5636 48.9067 69.8703 48.08C69.577 47.7067 69.1903 47.52 68.7103 47.52C68.2303 47.4933 67.8036 47.6267 67.4303 47.92C66.3636 48.6933 65.8303 49.8533 65.8303 51.4V60.92L67.3903 61.72C67.7636 61.88 67.9503 62.12 67.9503 62.44C67.9503 62.8133 67.7503 63 67.3503 63H58.3903C57.9903 63 57.7903 62.8133 57.7903 62.44C57.7903 62.12 57.977 61.88 58.3503 61.72L59.9103 60.92V46.16H58.5103C58.0303 46.16 57.7903 45.96 57.7903 45.56C57.7903 45.1867 58.0036 44.9467 58.4303 44.84L64.8703 43.04C65.137 42.96 65.3636 42.9733 65.5503 43.08C65.737 43.1867 65.8303 43.3867 65.8303 43.68V47.28C66.5236 46 67.4036 44.9733 68.4703 44.2C69.5636 43.4 70.6436 43 71.7103 43ZM90.3394 59.6C90.5794 59.8133 90.5527 60.16 90.2594 60.64C89.6994 61.4667 88.7794 62.1733 87.4994 62.76C86.2194 63.3467 84.8994 63.64 83.5394 63.64C81.966 63.64 80.8327 63.2933 80.1394 62.6C79.4727 61.88 79.1394 60.8133 79.1394 59.4V45.72H76.3794V43.6H79.1394V39.72L84.0194 37.44C84.2594 37.3067 84.486 37.2933 84.6994 37.4C84.9127 37.5067 85.0194 37.72 85.0194 38.04V43.6H90.0594V45.72H85.0194V58.56C85.0194 59.84 85.4327 60.48 86.2594 60.48C87.2727 60.48 88.366 60.2 89.5394 59.64C89.9127 59.4533 90.1794 59.44 90.3394 59.6ZM116.275 54.76C116.622 54.8667 116.768 55.0933 116.715 55.44L115.835 62.32C115.782 62.5867 115.715 62.7733 115.635 62.88C115.555 62.96 115.395 63 115.155 63H94.315C93.915 63 93.715 62.8133 93.715 62.44C93.715 62.12 93.9016 61.88 94.275 61.72L95.995 60.84V36.52L94.275 35.64C93.9016 35.48 93.715 35.24 93.715 34.92C93.715 34.5467 93.915 34.36 94.315 34.36H103.995C104.395 34.36 104.595 34.5467 104.595 34.92C104.595 35.24 104.408 35.48 104.035 35.64L102.315 36.52V60.88H112.115L115.475 55.04C115.608 54.8267 115.808 54.72 116.075 54.72L116.155 54.76C116.208 54.76 116.248 54.76 116.275 54.76ZM128.718 61.72C129.092 61.88 129.278 62.12 129.278 62.44C129.278 62.8133 129.078 63 128.678 63H119.718C119.318 63 119.118 62.8133 119.118 62.44C119.118 62.12 119.305 61.88 119.678 61.72L121.238 60.92V46.16H119.838C119.358 46.16 119.118 45.96 119.118 45.56C119.118 45.1867 119.332 44.9467 119.758 44.84L126.198 43.04C126.838 42.88 127.158 43.0933 127.158 43.68V60.92L128.718 61.72ZM126.318 38.44C125.705 39.0533 124.932 39.36 123.998 39.36C123.065 39.36 122.278 39.0533 121.638 38.44C121.025 37.8267 120.718 37.0533 120.718 36.12C120.718 35.1867 121.025 34.4133 121.638 33.8C122.278 33.16 123.065 32.84 123.998 32.84C124.932 32.84 125.705 33.16 126.318 33.8C126.958 34.4133 127.278 35.1867 127.278 36.12C127.278 37.0533 126.958 37.8267 126.318 38.44ZM144.455 43C146.775 43 148.735 43.9067 150.335 45.72C151.961 47.5067 152.775 49.8533 152.775 52.76C152.775 56.3067 152.028 59.0133 150.535 60.88C149.068 62.72 146.948 63.64 144.175 63.64C143.108 63.64 142.188 63.48 141.415 63.16C140.668 62.84 140.188 62.52 139.975 62.2L139.615 61.72C139.428 62.5733 138.801 63 137.735 63H132.375C131.975 63 131.775 62.8133 131.775 62.44C131.775 62.12 131.961 61.88 132.335 61.72L133.895 60.92V35.2H132.495C132.015 35.2 131.775 35 131.775 34.6C131.775 34.2267 131.988 33.9867 132.415 33.88L138.855 32.04C139.121 31.9867 139.348 32.0133 139.535 32.12C139.721 32.2267 139.815 32.4267 139.815 32.72V44.88C139.948 44.7467 140.135 44.5733 140.375 44.36C140.641 44.1467 141.175 43.8667 141.975 43.52C142.801 43.1733 143.628 43 144.455 43ZM142.895 61.08C144.255 61.08 145.255 60.32 145.895 58.8C146.535 57.28 146.855 55.2533 146.855 52.72C146.855 50.5333 146.468 48.8533 145.695 47.68C144.948 46.5067 144.015 45.92 142.895 45.92C141.641 45.92 140.615 46.4 139.815 47.36V56.8C139.815 59.6533 140.841 61.08 142.895 61.08ZM169.562 43C170.682 43 171.575 43.3067 172.242 43.92C172.909 44.5333 173.242 45.3067 173.242 46.24C173.242 47.0933 172.935 47.8267 172.322 48.44C171.735 49.0267 171.029 49.32 170.202 49.32C169.242 49.32 168.415 48.9067 167.722 48.08C167.429 47.7067 167.042 47.52 166.562 47.52C166.082 47.4933 165.655 47.6267 165.282 47.92C164.215 48.6933 163.682 49.8533 163.682 51.4V60.92L165.242 61.72C165.615 61.88 165.802 62.12 165.802 62.44C165.802 62.8133 165.602 63 165.202 63H156.242C155.842 63 155.642 62.8133 155.642 62.44C155.642 62.12 155.829 61.88 156.202 61.72L157.762 60.92V46.16H156.362C155.882 46.16 155.642 45.96 155.642 45.56C155.642 45.1867 155.855 44.9467 156.282 44.84L162.722 43.04C162.989 42.96 163.215 42.9733 163.402 43.08C163.589 43.1867 163.682 43.3867 163.682 43.68V47.28C164.375 46 165.255 44.9733 166.322 44.2C167.415 43.4 168.495 43 169.562 43ZM177.791 45.84C179.764 43.9467 182.124 43 184.871 43C187.618 43 189.978 43.9467 191.951 45.84C193.924 47.7067 194.911 50.2 194.911 53.32C194.911 56.44 193.924 58.9467 191.951 60.84C189.978 62.7067 187.618 63.64 184.871 63.64C182.124 63.64 179.764 62.7067 177.791 60.84C175.844 58.9467 174.871 56.44 174.871 53.32C174.871 50.2 175.844 47.7067 177.791 45.84ZM181.831 59.52C182.551 60.9867 183.564 61.72 184.871 61.72C186.178 61.72 187.191 60.9867 187.911 59.52C188.631 58.0533 188.991 55.9867 188.991 53.32C188.991 50.6533 188.631 48.5867 187.911 47.12C187.191 45.6267 186.178 44.88 184.871 44.88C183.564 44.88 182.551 45.6133 181.831 47.08C181.138 48.5467 180.791 50.6267 180.791 53.32C180.791 55.9867 181.138 58.0533 181.831 59.52Z" fill="black"/>
<defs>
<filter id="filter0_diiii_2002_10102" x="0.32251" y="1.99573" width="95.2083" height="72.001" filterUnits="userSpaceOnUse" color-interpolation-filters="sRGB">
<feFlood flood-opacity="0" result="BackgroundImageFix"/>
<feColorMatrix in="SourceAlpha" type="matrix" values="0 0 0 0 0 0 0 0 0 0 0 0 0 0 0 0 0 0 127 0" result="hardAlpha"/>
<feOffset dy="4"/>
<feGaussianBlur stdDeviation="2"/>
<feComposite in2="hardAlpha" operator="out"/>
<feColorMatrix type="matrix" values="0 0 0 0 0 0 0 0 0 0 0 0 0 0 0 0 0 0 0.25 0"/>
<feBlend mode="normal" in2="BackgroundImageFix" result="effect1_dropShadow_2002_10102"/>
<feBlend mode="normal" in="SourceGraphic" in2="effect1_dropShadow_2002_10102" result="shape"/>
<feColorMatrix in="SourceAlpha" type="matrix" values="0 0 0 0 0 0 0 0 0 0 0 0 0 0 0 0 0 0 127 0" result="hardAlpha"/>
<feOffset dx="-2"/>
<feGaussianBlur stdDeviation="2"/>
<feComposite in2="hardAlpha" operator="arithmetic" k2="-1" k3="1"/>
<feColorMatrix type="matrix" values="0 0 0 0 0.958996 0 0 0 0 0.958996 0 0 0 0 0.958996 0 0 0 0.8 0"/>
<feBlend mode="plus-lighter" in2="shape" result="effect2_innerShadow_2002_10102"/>
<feColorMatrix in="SourceAlpha" type="matrix" values="0 0 0 0 0 0 0 0 0 0 0 0 0 0 0 0 0 0 127 0" result="hardAlpha"/>
<feOffset dx="2" dy="1"/>
<feGaussianBlur stdDeviation="2.5"/>
<feComposite in2="hardAlpha" operator="arithmetic" k2="-1" k3="1"/>
<feColorMatrix type="matrix" values="0 0 0 0 1 0 0 0 0 1 0 0 0 0 1 0 0 0 0.25 0"/>
<feBlend mode="lighten" in2="effect2_innerShadow_2002_10102" result="effect3_innerShadow_2002_10102"/>
<feColorMatrix in="SourceAlpha" type="matrix" values="0 0 0 0 0 0 0 0 0 0 0 0 0 0 0 0 0 0 127 0" result="hardAlpha"/>
<feOffset dx="-2" dy="-6"/>
<feGaussianBlur stdDeviation="2.5"/>
<feComposite in2="hardAlpha" operator="arithmetic" k2="-1" k3="1"/>
<feColorMatrix type="matrix" values="0 0 0 0 0.254902 0 0 0 0 0.192157 0 0 0 0 0.301961 0 0 0 0.2 0"/>
<feBlend mode="darken" in2="effect3_innerShadow_2002_10102" result="effect4_innerShadow_2002_10102"/>
<feColorMatrix in="SourceAlpha" type="matrix" values="0 0 0 0 0 0 0 0 0 0 0 0 0 0 0 0 0 0 127 0" result="hardAlpha"/>
<feOffset dy="-1"/>
<feGaussianBlur stdDeviation="5"/>
<feComposite in2="hardAlpha" operator="arithmetic" k2="-1" k3="1"/>
<feColorMatrix type="matrix" values="0 0 0 0 0.835294 0 0 0 0 0.788235 0 0 0 0 0.87451 0 0 0 0.3 0"/>
<feBlend mode="darken" in2="effect4_innerShadow_2002_10102" result="effect5_innerShadow_2002_10102"/>
</filter>
<linearGradient id="paint0_linear_2002_10102" x1="75.2606" y1="5.16591" x2="25.3026" y2="70.3961" gradientUnits="userSpaceOnUse">
<stop offset="0.0607025" stop-color="#0017FF"/>
<stop offset="0.444148" stop-color="#3E4FFF"/>
<stop offset="1" stop-color="#EF96FF"/>
</linearGradient>
<linearGradient id="paint1_linear_2002_10102" x1="82.3199" y1="15.1392" x2="70.6033" y2="28.5453" gradientUnits="userSpaceOnUse">
<stop stop-color="white"/>
<stop offset="0.229517" stop-color="white"/>
<stop offset="1" stop-color="#5969FF"/>
</linearGradient>
</defs>
</svg>
