<svg width="254" height="39" viewBox="0 0 254 39" fill="none" xmlns="http://www.w3.org/2000/svg">
<rect width="254" height="39" rx="8" fill="#03C75A"/>
<path d="M78.5332 15.9297V23H77.1172L74.2461 18.8496H74.1973V23H72.5371V15.9297H73.9727L76.8145 20.0801H76.873V15.9297H78.5332ZM81.0723 23H79.2754L81.6777 15.9297H83.8848L86.2773 23H84.4902L84.0117 21.4863H81.5508L81.0723 23ZM81.9512 20.2168H83.6113L82.8105 17.6777H82.752L81.9512 20.2168ZM87.625 15.9297L89.2363 21.1445H89.2949L90.9062 15.9297H92.7617L90.3691 23H88.1621L85.7598 15.9297H87.625ZM93.5137 23V15.9297H98.4062V17.2871H95.1738V18.7812H98.1523V20.1387H95.1738V21.6426H98.416V23H93.5137ZM99.4707 23V15.9297H102.361C103.953 15.9297 104.93 16.8281 104.93 18.2734C104.93 19.2451 104.485 19.9434 103.709 20.2949L105.184 23H103.357L102.059 20.5684H101.131V23H99.4707ZM101.131 19.2402H102.01C102.791 19.2402 103.211 18.9375 103.211 18.2734C103.211 17.6094 102.791 17.2773 102.01 17.2773H101.131V19.2402ZM115.594 14.9727V23.9375H114.275V14.9727H115.594ZM113.709 15.168V23.5566H112.381V20.6562H111.238V19.5234H112.381V18.4297H111.414C111.004 19.8896 110.11 21.1055 108.445 22.0918L107.625 21.1055C109.393 20.0654 110.145 18.8545 110.311 17.1406H108.182V16.0176H111.707C111.707 16.4619 111.683 16.8867 111.639 17.2969H112.381V15.168H113.709ZM124.031 14.9727V20.2949H122.635V18.2441H121.365V17.1113H122.635V14.9727H124.031ZM120.936 20.4609C122.869 20.4609 124.051 21.1055 124.061 22.209C124.051 23.3027 122.869 23.957 120.936 23.957C119.021 23.957 117.84 23.3027 117.84 22.209C117.84 21.1055 119.021 20.4609 120.936 20.4609ZM120.936 21.5254C119.812 21.5254 119.236 21.7402 119.236 22.209C119.236 22.6777 119.812 22.8828 120.936 22.8828C122.078 22.8828 122.654 22.6777 122.664 22.209C122.654 21.7402 122.078 21.5254 120.936 21.5254ZM121.619 15.4805V16.6035H119.92C119.988 17.5654 120.564 18.5518 121.922 18.9961L121.238 20.0996C120.262 19.7871 119.607 19.1719 119.217 18.4102C118.826 19.2744 118.133 19.9727 117.088 20.3242L116.355 19.2109C117.806 18.7422 118.401 17.6484 118.475 16.6035H116.756V15.4805H121.619ZM129.168 15.3926C131.072 15.3926 132.576 16.4375 132.576 18C132.576 19.5918 131.072 20.627 129.168 20.627C127.273 20.627 125.779 19.5918 125.779 18C125.779 16.4375 127.273 15.3926 129.168 15.3926ZM129.168 16.5352C127.986 16.5254 127.146 17.082 127.146 18C127.146 18.9473 127.986 19.4746 129.168 19.4746C130.34 19.4746 131.18 18.9473 131.18 18C131.18 17.082 130.34 16.5254 129.168 16.5352ZM133.279 21.75V22.8828H125.086V21.75H133.279ZM141.922 21.8281V22.9707H133.729V21.8281H137.117V20.5781H134.646V17.4922H139.617V16.6523H134.637V15.5293H141.004V18.5859H136.053V19.4453H141.209V20.5781H138.504V21.8281H141.922ZM152.4 14.9727V23.9375H151.082V14.9727H152.4ZM150.516 15.168V23.5566H149.188V20.6562H148.045V19.5234H149.188V18.4297H148.221C147.811 19.8896 146.917 21.1055 145.252 22.0918L144.432 21.1055C146.199 20.0654 146.951 18.8545 147.117 17.1406H144.988V16.0176H148.514C148.514 16.4619 148.489 16.8867 148.445 17.2969H149.188V15.168H150.516ZM161.414 19.2891V20.4023H153.25V19.2891H156.619V18.166H158.025V19.2891H161.414ZM158.035 15.3828C158.035 16.3789 158.846 17.3652 161.004 17.6191L160.467 18.7129C158.929 18.4932 157.864 17.8877 157.303 17.0234C156.736 17.8779 155.677 18.4932 154.148 18.7129L153.65 17.6191C155.76 17.3652 156.6 16.3301 156.6 15.3828V15.1289H158.035V15.3828ZM160.438 20.959V23.9375H159.031V22.043H154.158V20.959H160.438ZM169.002 14.9727V18.4199H170.271V19.582H169.002V23.9375H167.615V14.9727H169.002ZM167.088 16.2812V17.3945H161.844V16.2812H163.787V15.1191H165.193V16.2812H167.088ZM164.49 17.8242C165.799 17.8242 166.795 18.7227 166.805 19.9824C166.795 21.252 165.799 22.1406 164.49 22.1406C163.143 22.1406 162.156 21.252 162.166 19.9824C162.156 18.7227 163.143 17.8242 164.49 17.8242ZM164.49 18.957C163.914 18.9668 163.504 19.3379 163.514 19.9824C163.504 20.6465 163.914 20.998 164.49 20.998C165.047 20.998 165.447 20.6465 165.457 19.9824C165.447 19.3379 165.047 18.9668 164.49 18.957ZM178.104 14.9727V23.9375H176.678V14.9727H178.104ZM175.408 15.9004C175.408 18.6641 174.529 20.9102 171.268 22.4434L170.535 21.3301C172.815 20.251 173.772 18.9277 173.973 16.9941H171.043V15.9004H175.408Z" fill="white"/>
</svg>
