<svg width="16" height="18" viewBox="0 0 16 18" fill="none" xmlns="http://www.w3.org/2000/svg">
<path d="M15.2837 8.88447L14.9967 9.44919L14.1007 9.43139L13.4396 9.40214L12.6241 9.5344L12.0241 9.50005L11.393 9.77735L10.7008 9.85874L10.645 10.833L11.1086 11.5109L11.1852 12.3199L10.8878 13.2446L9.58915 13.8398L8.53857 12.9431L7.90352 12.4267L7.43086 11.8556L5.91142 13.4531L5.21923 14.725L4.99717 16.0796L4.52578 16.4039L4.24785 15.7222L3.55567 14.9871L3.61413 15.6434L3.75306 17.0526H3.31021L3.11414 16.5859L2.86608 16.4752L2.27129 16.8657L1.70643 17.2129L1.32071 16.7448L0.850586 15.1817L1.04538 13.7749L1.48697 11.9879L1.57137 10.9844L2.05183 10.122L2.93361 9.04855L3.75959 7.81354L4.36472 3.7091L5.19197 2.70301L6.29454 1.91953L7.66065 1.38279L9.12816 1.43874L10.2671 2.15102L10.5904 3.67603L11.628 5.0891L12.9526 6.13969L14.0007 7.46628L15.1694 8.63518L15.2837 8.88447Z" fill="#C6C9FE" stroke="#ABA9A5" stroke-linecap="round" stroke-linejoin="round"/>
</svg>
