<svg width="85" height="90" viewBox="0 0 85 90" fill="none" xmlns="http://www.w3.org/2000/svg">
<path d="M48.9546 6.11053L50.8766 5.65391L52.7946 4.60586L53.9569 3.72571L55.3426 4.01189L56.4867 3.42171L57.8282 2.40546L61.0644 3.5362L64.372 4.04748L65.4148 4.35657L64.7434 5.85615L63.0721 7.02375L62.076 8.53603L62.7124 9.2394L63.5331 9.68456L64.0487 9.69475L64.5759 9.45179L66.3382 8.87437L69.1004 8.56528L69.6757 9.18726L69.5731 10.2022L70.7237 11.3749L71.1432 12.3111L72.1976 12.2335L73.4443 12.016L74.8404 11.5784L76.2247 11.5695L77.6026 12.5934L79.1311 13.5639L80.6401 13.8564L82.1154 14.0243L83.2893 14.5242L84.4529 15.2606L83.7451 16.0492L82.9595 16.4943L82.2712 16.2336L81.7076 16.5846L80.3713 17.9748L78.896 19.1831L77.9324 20.1015L76.7338 20.4703L76.0156 21.0579L75.5053 21.9622L73.7131 23.2087L72.4379 24.997L71.8327 26.3325L71.0951 27.6566L71.5029 28.351L72.2704 29.0442L71.4133 31.8284L66.5589 33.8278L64.4928 33.1614L63.6292 31.4481L62.263 30.2881L61.2981 29.614L60.5436 28.7835L59.7878 29.5148L59.1827 30.4522L58.8944 31.5562L58.4879 32.7251L56.8165 32.5979L55.0244 31.9798L54.0894 31.3883L53.0998 32.0128L52.1479 33.272L50.9908 33.3687L50.0623 32.7658L49.361 33.9309L48.6364 35.48L48.2468 36.9325L49.3545 38.3355L50.2 39.9266L46.0897 39.2868L43.8795 38.3456L42.6198 40.1874L40.5939 41.1285L38.7914 42.3305L38.6408 43.1712L38.6771 43.8313L38.3538 44.5538L37.0473 46.2734L36.2084 47.1536L35.3578 47.3049L34.5007 47.6967L35.1539 49.312L37.4252 49.691L40.2641 53.7344L39.2108 54.743L38.6356 56.357L38.4018 60.202L38.0538 61.8975L38.42 63.1121L39.0615 64.225L38.2278 65.8493L36.946 66.9368L37.2928 70.2831L39.6238 69.7451L41.025 70.1941L42.6678 71.5385L43.7938 72.0625L46.7547 71.3655L48.0663 72.3144L48.726 75.9838L47.4923 75.91L46.1027 75.6582L44.6989 76.836L45.0223 78.7247L45.0353 79.6876L44.9093 80.845L44.3522 81.5077L43.9016 82.2924L43.4172 84.0947L42.5185 85.8143L41.0627 86.2926L39.655 86.9692L38.9109 87.7349L38.168 88.4027L37.3174 87.9511L36.472 87.16L34.3331 88.1063L32.4683 89.2256L31.5411 88.9648L31.0008 88.3022L28.4062 87.4665L27.5374 86.4554L26.5543 85.8881L26.1777 86.3829L25.7102 86.4961L25.1583 86.0013L24.6609 85.415L23.3428 83.4066L22.1623 81.3461L21.6649 78.9359L21.7428 76.5053L21.1442 74.413L19.3637 73.3433L17.6443 72.7964L15.7743 73.1767L15.6184 71.1747L15.721 69.2287L16.4158 66.5043L17.7274 64.1894L18.256 63.0078L18.8429 61.9598L19.7962 61.2539L20.0169 60.0316L19.2741 59.7886L18.4715 59.4325L17.495 60.1321L16.7339 61.1369L16.134 59.2608L16.0327 58.0004L15.3184 57.6417L15.421 56.8366L14.612 56.6407L13.9354 57.6048L12.0653 58.0118L10.3161 57.5221L10.5368 56.2858L10.2018 55.4947L9.69792 55.2556L9.28496 54.8104L9.08106 54.2978L9.21353 53.7573L9.45899 53.0641L9.57325 52.3302L9.50702 51.9728L9.46546 51.6154L9.27326 51.1626L9.38756 50.6233L9.68105 49.9632L9.72259 49.1937L5.3124 48.9202L1.04639 49.7597L1.31518 47.5885L2.03983 45.5586L1.93204 44.3694L3.06445 41.954L4.67088 39.671L5.89419 37.5889L6.37858 37.0776L6.92921 37.1628L7.46946 37.014L7.76296 36.4721L7.84086 35.8629L8.02008 35.0883L8.30188 34.3404L8.44604 33.5404L8.32008 32.7365L7.93695 32.0243L7.45776 31.5931L7.5175 30.1342L6.75651 29.6102L5.76173 27.6451L4.98254 27.2025L4.29946 26.4978L3.84363 25.4447L6.44482 24.6968L8.90707 23.5331L10.8368 22.8984L11.3589 20.8074L12.3056 19.8013L13.7912 19.1717L14.4925 18.2814L14.9717 17.0998L15.8704 16.1624L17.0028 16.3964L17.3326 16.8238L18.7884 15.8291L21.5571 10.7784L21.8389 10.173L22.174 9.61714L22.6233 9.26355L23.0908 8.94303L23.5583 8.25494L23.9661 7.49562L30.0905 5.85106L36.2551 5.02432L35.759 8.46228L37.52 8.05397L39.294 8.1761L39.7848 8.47498L40.2835 8.70393L40.7328 8.31853L41.1224 7.85303L42.2964 7.06446L41.9796 3.60104L43.0743 2.28209L46.03 1.30146L48.2351 3.59216V5.12226L48.9546 6.11053Z" fill="#C6C9FE" stroke="#ABA9A5" stroke-linecap="round" stroke-linejoin="round"/>
</svg>
