<svg width="88" height="78" viewBox="0 0 88 78" fill="none" xmlns="http://www.w3.org/2000/svg">
<path d="M86.1182 71.5046L84.9377 69.4428L84.4403 67.0338L84.5182 64.6032L83.9196 62.5109L82.1391 61.4412L80.4197 60.8943L78.5497 61.2746L78.3938 59.2726L78.4964 57.3267L79.1912 54.6022L80.5028 52.2874L81.0314 51.1058L81.6183 50.0577L82.5716 49.3518L82.7923 48.1295L82.0495 47.8866L81.2469 47.5305L80.2704 48.23L79.5094 49.2348L79.2276 50.8908L78.4666 52.0902L77.6276 55.1364L76.1121 56.3358L75.2784 56.6131L73.9837 55.8728L72.0902 54.9507L71.3292 53.5669L70.7955 51.0752L69.8851 49.4141L69.4306 47.4745L70.5929 42.7621L70.8202 42.2101L70.6643 41.7458L60.2921 44.5262L55.0118 43.51L55.5403 42.0307L56.4208 41.204L63.8218 37.8576L64.0906 35.6865L64.8152 33.6565L64.7074 32.4673L65.8399 30.0519L67.4463 27.7689L68.6696 25.6868L69.154 25.1755L69.7046 25.2607L70.2449 25.1119L70.5384 24.57L70.6163 23.9608L70.7955 23.1862L71.0786 22.4383L71.2214 21.6383L71.0955 20.8345L70.7124 20.1222L70.2332 19.691L70.2929 18.2321L69.5319 17.7081L68.5371 15.743L67.7579 15.2991L67.0749 14.5958L66.619 13.5427L63.8815 13.1801L61.6401 11.3333L59.135 10.2141L54.317 12.2339L52.0457 12.2326L49.3432 11.6882L49.3263 11.6844L48.2121 12.5175L45.6927 13.5146L44.6253 13.6876L43.4422 14.2079L44.0357 15.3996L46.0278 17.5657L44.7954 17.4156L43.6214 17.0798L44.1032 18.8579L43.8097 19.8678L43.2396 20.8141L42.8994 22.4065L42.4176 22.1903L42.0825 21.913L41.8565 21.506L41.6812 20.9095L42.6344 20.6246L42.8007 19.9925L42.3098 17.7844L41.7955 16.9361L41.6812 16.3535L41.7384 15.7926L42.0072 14.8285L42.0682 14.3948L41.941 12.3674L41.7007 11.3219L41.2852 10.7381L40.6904 10.8449L39.6008 12.2224L38.9073 12.6739L39.8177 9.60481L39.7333 8.08617L38.5112 6.85497L37.5035 6.20629L36.0971 5.8349L34.9854 5.43678L33.9816 5.31087L33.0829 5.3185L32.1271 5.7573L31.5908 6.74812L31.2233 7.35482L30.9869 7.931L31.2064 9.6735L31.0519 10.2637L30.7973 10.789L30.1597 11.2227L30.3714 10.0551L30.3012 9.39114L29.7259 8.30875L29.6116 7.79999L30.1753 7.15006L30.448 6.1885L29.8688 5.21802L29.0208 4.75888L28.1416 4.17252L27.6858 3.71719L26.578 2.96675L25.4171 2.15275L24.5872 1.43793L23.6626 1.0004L22.6003 1.02965L22.7275 2.1311L23.2678 3.77316L24.469 4.87589L25.5742 5.3961L26.3949 5.59705L26.791 6.05367L26.7391 6.54209L26.1962 6.85497L25.4742 6.85115L24.8794 6.58531L24.3885 6.15797L23.4652 5.02341L22.8704 4.47398L22.3743 4.38746L22.1756 5.15442L22.4315 5.35412L25.9833 9.03754L26.4274 9.76125L26.9326 11.2087L27.3468 11.7493V12.1881L26.5222 12.1537L26.0833 11.6857L25.7859 10.9747L25.3755 10.2051L24.3703 9.1126L23.6678 8.64455L23.3561 9.03754L23.1107 10.7088L22.0484 14.101L21.8133 15.8677L21.625 16.1996L21.199 15.958L20.7757 15.3131L20.5809 14.3948V11.2227L20.7471 10.7839L21.2705 10.1708L21.3744 9.98638L21.3133 9.50054L21.0432 9.049L20.977 8.55167L20.7368 7.95643L20.1705 7.945L19.516 8.29478L19.0057 8.79462L18.6381 7.64482L18.9771 6.83715L19.5342 6.22157L19.8264 5.6403L19.3926 4.70038L18.368 4.34678L16.2317 4.38113V4.9115L16.485 5.44569L16.2642 5.66573L15.7785 5.57034L15.2266 5.15442L14.6604 4.83772L14.037 4.94202L13.4618 5.33633L13.0319 5.88322L14.0942 5.80438L14.9851 6.07146L15.3967 6.72396L15.0136 7.82669L14.1786 7.23399L13.9007 7.46422L14.0838 8.12433L14.6461 8.79462L15.3967 9.09223L16.9161 9.11897L17.42 9.28429L17.8732 10.4633L17.6602 12.0583L16.8395 13.3671L15.4435 13.6876V14.129L16.5616 14.5882L17.0239 14.6581V15.0995L15.8629 15.3882L15.2591 15.6286L15.0136 15.8677L14.75 16.6359L14.1786 16.2722L13.2449 15.0995L12.6267 15.8104L13.0501 17.3952L14.25 19.9403L12.5787 18.8147L11.8476 18.835L10.871 19.7177L10.4554 19.906L10.1489 19.5282L9.96063 18.8808L9.90476 18.2703L10.1217 18.0846L11.1632 17.4156L11.48 17.0798L11.432 16.7974L11.0696 15.7532L11.0502 15.0995L11.4047 14.4838L11.9709 13.8962L12.3241 13.2361L11.6021 11.3677L11.3476 9.81215L11.306 8.27695L11.48 7.29759L10.1307 7.7046L9.86193 9.45728L10.0074 11.6042L9.90476 13.2018L9.52687 13.8403L9.13988 14.1035L7.69967 14.129L6.90362 13.9611L6.76206 13.4816L7.12958 11.7493L5.71404 12.2491L4.7141 13.0466L4.6297 14.0336L5.94001 15.0995L4.98292 16.613L5.09202 17.4957L6.00237 17.9002L7.48281 18.0045L7.04385 18.8465L6.36596 19.0194L4.7141 18.5349L5.33225 19.6261L5.94001 20.4682L5.44525 20.3639L5.00629 20.2138L4.6245 20.1858L4.3167 20.4682L3.91674 19.8907L3.60505 19.3082L3.35442 18.6913L3.17132 18.0045L2.94016 18.9101L2.64667 19.5562L1.16103 21.4081L1 21.8876L1.11427 23.6123L1.04283 25.3879L1.2701 25.9577L1.94928 25.3535L2.27394 24.5344L2.44407 22.7703L2.74147 21.9219L3.49209 22.5274L4.4258 22.7957L5.31798 23.2256L5.94001 24.3386L5.9543 25.4082L5.34525 25.814L2.95443 25.7911L2.67004 26.0849L2.76093 26.7361L3.0012 27.3962L3.17132 27.7244L3.87388 28.125L4.46867 28.0843L5.06342 27.8541L5.72834 27.7244L6.86075 27.3122L8.39446 25.4108L9.46454 24.8232L9.90476 26.7564L9.39441 28.1301L11.0982 30.8723L10.2996 32.6008L10.4983 33.0091L10.6307 33.4861L10.6956 34.0127L10.6865 34.5316L11.1917 33.7977L11.8203 33.1923L12.5696 32.7726L13.4566 32.6008L12.48 31.3022L12.3956 30.7171L13.0319 30.188L12.6501 29.0217L11.593 27.3644L11.0502 26.2757L12.3722 26.2553L12.7916 25.4248L12.9332 24.2915L13.4566 23.3693L14.3916 23.2078L15.0136 23.9405L14.8136 25.7364L15.4799 26.048L15.1344 27.4293L14.8552 31.2526L15.9707 31.9725L17.0915 32.0221L18.1654 32.8425L18.6901 32.1964L19.3056 30.6141L19.0511 28.761L19.4783 27.3809L19.4056 26.179L18.9966 25.5634L18.9628 25.0648L19.1472 24.5637L20.0666 24.177L20.8887 23.2981L21.3744 22.8911L21.5536 23.5144L21.8224 23.9519L22.6003 24.8232L21.2445 25.0343L20.8004 25.9055L21.0822 27.0884L22.4717 27.344L23.0236 28.326L22.2068 28.9695L21.6185 29.7988L22.5497 30.7019L23.2366 30.8431L23.7093 31.4574L23.3613 32.2193L23.2717 33.0816L22.0627 33.0422L20.903 33.57L20.103 33.6196L20.1277 33.916L20.4809 34.4311L20.7731 35.647L20.8212 36.2944L20.5679 36.8871L20.838 37.5358L21.112 37.5918L21.5679 37.8881L22.0692 38.3511L23.1808 37.9581L23.3652 38.3422L22.8042 39.1995L21.5964 40.5871L21.5575 41.3782L21.8938 42.7176L22.4211 44.0213L22.9977 44.7081L23.9171 44.5351L25.1677 42.7086L25.9833 42.2521H29.3662L28.2377 42.8435L25.8495 43.4972L24.734 45.0922L23.5379 45.4471L22.4873 46.0181L23.3561 47.5991H22.6003V48.0761L23.0678 48.4806L23.7522 49.2984L24.1483 49.568L26.0599 49.5795L26.9754 49.8148L27.3468 50.7509L26.8092 51.4848L24.2288 52.0991L23.3561 52.8902L24.2431 53.352L26.7066 54.0922L27.3468 54.863L26.4975 55.4163L25.8002 56.8637L24.582 60.1465L24.9417 60.645L25.3755 61.1093L25.7054 61.2861L26.1676 61.0202L26.5547 61.1093L27.2014 61.5723L27.6871 62.1192L28.5468 63.5106L26.1144 62.8238L24.3755 63.3618L22.4068 64.3412L22.1756 66.3953L22.573 66.7527L22.7652 66.2974L23.1171 64.9733L24.2496 64.7991L25.5586 65.6207L25.5885 66.3953L25.9547 66.3979L26.7248 65.9616L27.7442 66.3953L29.0701 68.6313L29.7961 68.8692L30.5882 69.196L30.9662 69.6361L30.1597 70.2759L30.683 71.1306L31.6609 72.3911L32.1414 73.1542L32.444 74.0369L32.5375 74.6805L32.8349 75.1676L33.718 75.5912L34.9296 75.0659L36.2231 74.8509L37.3074 74.3396L38.2892 73.4137L39.4593 72.6226L40.6514 72.2626L43.2617 69.1083L46.0356 68.8094L49.2965 68.1238L55.3001 66.2668L57.4389 66.6866L56.9247 69.7888L58.1584 71.6724L59.8726 71.3583L61.4959 70.7414L64.6906 70.1309L65.5295 69.8447L66.3489 69.486L67.5658 69.238L68.3449 68.0488L69.3163 67.0745L71.1669 68.686L73.7746 73.2916L75.6979 74.2404L76.4407 74.4248L76.7887 75.1257L76.3809 75.927L76.6212 76.4904L79.9769 76.9229L81.2288 76.6214L82.9365 76.5438L84.6559 76.0758L86.0649 74.8624L87.4363 73.5129L86.1182 71.5046ZM17.5096 44.5898L17.0746 43.2848L16.9161 42.6094L16.9733 42.2597L17.0382 41.8145L16.2162 41.3643L15.8201 41.2867V40.8491H17.0382L16.5227 39.9677L15.8642 39.5861L15.5656 39.0786L15.8201 38.5038L15.6656 37.8131L14.6877 35.6445L14.6357 35.1586L15.0786 34.8101L15.3292 34.2925L15.2266 33.8575L14.4552 32.6466L13.3501 33.0155L12.3228 33.9529L11.8216 34.5964L12.4202 36.5704L12.6878 38.1349L12.9111 40.7232L12.5943 42.4186L13.202 42.0994L13.4709 42.7341L14.2643 41.8145L14.6604 42.2521L13.6124 43.674L13.4332 44.7284L14.0799 45.0324L15.4617 44.1764L15.2266 44.8009L14.7812 45.2029L14.502 45.5793L14.6604 46.635L15.4954 46.7673L18.0719 46.6236L18.6226 46.8754L18.2927 45.7739L17.5096 44.5898Z" fill="#C6C9FE" stroke="#ABA9A5" stroke-linecap="round" stroke-linejoin="round"/>
</svg>
