<svg width="17" height="18" viewBox="0 0 17 18" fill="none" xmlns="http://www.w3.org/2000/svg">
<path d="M2.92698 8.99962L2.92785 8.99993L3.43691 9.18438L3.82334 9.3244L3.76074 9.73063L3.65294 10.4302L3.64523 10.4802L3.62765 10.5277L3.38222 11.1903L3.2808 11.4642L2.99248 11.5104L2.05616 11.6605L2.0183 11.6665L1.97996 11.6667L1.36346 11.6704L0.850735 12.3732L1.07032 13.1886L1.73142 13.4421L1.82612 13.4785L1.89917 13.5488L2.74459 14.3628L2.80246 14.4185L2.83996 14.4896L3.4806 15.7032L4.40101 16.4353L5.09266 16.8738L5.11742 16.8895L5.14017 16.9079L5.35275 17.0806L5.41355 17.0298L6.19537 15.6873L6.24431 15.6033L6.32118 15.5437L7.14843 14.9027L7.30582 14.7807L7.50396 14.8003L9.37919 14.986L9.41685 14.9898L9.45352 14.9991L12.6032 15.8026L13.5439 15.2435L13.6488 14.8454L13.6544 14.4538L13.6557 14.3636L13.6885 14.2795L14.212 12.9355L14.2755 12.4521L14.2477 12.0426L14.2145 11.5539L14.7024 11.5107L15.2479 11.4624L15.3414 11.4541L15.4316 11.4803L15.5833 11.5244L16.1884 10.9122L16.4447 10.0012L16.4172 8.91165L16.3215 8.02005L15.8534 7.62935L15.7996 7.58444L15.7602 7.52646L15.2927 6.83837L15.2078 6.71348L15.2063 6.56251L15.1881 4.78949L15.1866 4.6475L15.26 4.52593L15.4773 4.166L15.4924 3.88592L14.8854 2.84788L12.791 1.34294L9.92401 1.52633L6.39034 1.99153L3.98538 3.94878L4.32045 6.87312L4.3466 7.10138L4.19044 7.26989L3.25093 8.28373L2.92698 8.99962Z" fill="#C6C9FE" stroke="#D3D0CB"/>
</svg>
