<svg width="25" height="20" viewBox="0 0 25 20" fill="none" xmlns="http://www.w3.org/2000/svg">
<path d="M19.9353 9.5799L19.8139 9.60633L19.6942 9.57283L17.9449 9.08317L17.5077 8.96077L17.5875 8.51378L17.7821 7.42365L17.5792 6.9444L17.2472 6.78686L17.1603 6.74565L17.095 6.67518L16.682 6.23001L16.6185 6.16155L16.584 6.07478L16.3801 5.5622L16.321 5.41365L16.359 5.25838L16.4915 4.71783L16.4975 4.69352L16.5058 4.66993L16.7357 4.02067L16.8297 3.41706L16.779 3.14345L16.7759 3.12686L16.774 3.11011L16.7407 2.82412L16.5766 2.43753L16.5151 2.29256L16.5477 2.13849L16.662 1.59921L16.6729 1.54778L16.6943 1.49975L16.9504 0.92379L16.9602 0.7416L13.1094 0.502806L8.96329 1.31867L1.69073 4.607L0.958791 5.29426L0.66703 6.11078L5.26186 6.99511L15.5231 4.24451L15.977 4.12284L16.1265 4.56835L16.2824 5.03258L16.3418 5.20949L16.2707 5.38204L16.0576 5.89961L14.9331 10.4591L15.3446 12.2153L16.2222 13.8166L16.2573 13.8807L16.2726 13.9521L16.7909 16.372L17.4401 17.5523L19.1908 18.4049L19.2057 18.4122L19.22 18.4204L20.3208 19.0498L20.859 18.8708L22.1772 17.8275L22.9727 14.9391L22.9925 14.8672L23.0324 14.8043L23.7385 13.6895L23.9841 12.2525L23.4214 10.4927L23.4038 10.4378L23.3992 10.3804L23.3205 9.40045L22.8577 9.16805L22.5413 9.00918L22.5861 8.65802L22.6321 8.29677L22.5891 8.28637L22.1083 8.97155L21.9961 9.13138L21.8054 9.1729L19.9353 9.5799Z" fill="#C6C9FE" stroke="#ABA9A5"/>
</svg>
