<svg width="147" height="146" viewBox="0 0 147 146" fill="none" xmlns="http://www.w3.org/2000/svg">
<path d="M88.4545 15.3895L93.575 25.3192L97.5657 35.7272L98.2176 36.8592L100.297 39.3839L101.095 41.5029L110.759 55.0563L114.509 60.411L119.001 65.2926L119.639 65.8026L122.648 69.2749L122.804 70.7414L122.818 72.5043L123.176 73.9975L125.229 75.1168L125.824 76.3187L127.518 81.7268L128.272 82.9797L129.179 83.5126L129.938 84.2834L132.576 89.3697L134.16 91.3246L134.708 92.4007L134.92 93.539L135.321 94.643L138.12 97.6613L139.012 100.135L139.804 105.534L140.894 108.503L143.866 112.564L144.093 113.416L143.753 114.238L143.216 115.023L142.875 115.79L142.852 116.478L143.271 118.704L143.782 125.052L144.319 127.981L146.244 133.958L146.4 136.882L145.796 139.586L144.49 142.04L143.427 144.951L142.847 144.926L140.912 144.491L139.053 145.298L135.038 143.844L135.68 142.16L135.5 140.58L134.991 138.829L134.835 136.845L135.608 134.962L136.231 133.179L135.777 132.651L135.278 132.187L135.512 130.577L131.264 130.265L130.017 129.571L128.688 129.011L128.142 127.705L127.716 126.194L125.805 125.306L124.613 123.538L124.355 121.236L124.774 119.473L125.763 118.738L126.848 118.34L128.537 118.995L129.91 117.989L129.346 116.351L127.537 115.28L125.554 114.826L123.978 115.642L122.462 116.019L120.322 115.056L118.051 114.681L117.283 114.988L116.648 114.911L116.157 114.265L115.449 113.977L113.803 115.236L112.065 115.905L111.933 114.659L112.077 113.421L111.069 112.93L109.95 112.679L109.134 111.276L107.552 111.154L105.976 111.879L104.923 113.14L105.306 114.89L105.12 116.525L104.777 118.044L103.298 117.907L101.567 117.542L100.133 116.952L98.6488 116.179L97.4852 115.442L96.3112 114.943L94.836 114.775L93.327 114.482L91.7985 113.512L90.4206 112.488L89.0363 112.497L87.6402 112.934L86.3935 113.152L85.339 113.229L84.9195 112.293L83.769 111.121L83.8716 110.106L83.2962 109.484L80.534 109.793L78.7718 110.37L78.2445 110.613L77.729 110.603L76.9082 110.158L76.2719 109.454L77.2679 107.942L78.9393 106.774L79.6107 105.275L78.5679 104.966L75.2603 104.455L72.024 103.324L70.6825 104.34L69.5384 104.93L68.1528 104.644L66.9905 105.524L65.0724 106.572L63.1504 107.029L62.431 106.041V104.51L60.2259 102.22L57.2702 103.2L56.1754 104.519L56.4923 107.983L55.3183 108.771L54.9287 109.237L54.4794 109.622L53.9807 109.393L53.4898 109.094L51.7159 108.972L49.9549 109.381L50.451 105.943L44.2863 106.769L38.162 108.414L41.3073 102.704L43.8837 96.4962L47.4563 89.0225L47.9005 87.4173L47.5641 85.8097L48.3251 84.5085L49.3978 83.2277L50.5484 82.7596L51.1536 81.4865L50.4939 80.385L49.6315 79.6613L48.2524 79.5112L46.8382 78.9846L44.885 78.7277L41.6254 76.9572L40.158 76.3696L38.7009 75.4296L37.1009 75.188L35.5491 75.6688L34.2608 74.6016L34.3634 73.4417L34.9738 72.2219L35.214 70.8101L35.2322 69.355L33.6985 69.8409L33.0089 68.9659L34.6985 67.0186L34.4167 65.72L33.9491 64.4302L34.2855 63.4534L34.2673 62.2833L34.153 61.1767L37.0958 59.0476L38.2879 58.666L38.9528 57.6637L39.2528 54.746L37.8801 52.6817L36.7542 52.4565L35.6802 51.9707L34.8725 49.8428L33.5894 49.7792L32.2168 49.8695L30.7194 48.7947L30.0065 46.8894L29.713 43.4985L29.1559 41.7904L28.7663 41.4597L28.3104 41.5347L28.0053 41.8247L27.6209 41.8794L26.6326 41.1938L24.2119 42.0333L21.9887 41.5042L21.09 40.9674L20.1732 40.1547L20.1433 38.795L20.5926 37.5117L20.9225 37.0233L21.1562 36.5539L20.7718 36.2385L20.2809 36.1227L19.8134 36.2207L19.4056 36.5298L18.6395 37.5079L17.7823 38.36L16.4642 38.5813L15.302 37.8055L15.0864 37.1009L14.9955 36.3873L14.576 36.1342L14.1332 36.5934L13.9825 37.3285L13.9709 39.7044L13.2163 40.8644L11.0892 39.8761L9.14121 38.1489L8.45812 37.4443L7.73867 37.5333L7.09842 36.6201L6.69716 35.4296L6.1686 34.8038L5.54005 34.3103L5.05436 33.1758L4.19077 32.6365L2.14801 31.362L1 30.81L1.34026 30.3865L4.51803 27.816L8.21266 25.5456L12.0982 23.999L15.8383 23.6021L17.6836 23.7955L24.8314 23.1811L30.3298 24.8181L32.0765 24.6604L35.4841 23.6467L46.6668 22.6864L47.1447 23.0043L47.8849 24.0549L48.5978 24.7608L49.3939 24.9618L53.2262 24.1707L59.309 24.5179L63.2582 24.2114L67.2359 22.8199L70.9397 20.4707L74.0252 17.2973L75.3681 15.4136L76.4875 13.4015L77.2433 11.1642L77.4952 8.58989L77.0043 6.10583L76.8784 4.83902L77.2433 3.90037L78.825 2.67169L82.1041 1.00045L83.8365 4.36205L86.5403 9.60866L87.0779 11.9083L88.4545 15.3895Z" fill="#C6C9FE" stroke="#ABA9A5" stroke-linecap="round" stroke-linejoin="round"/>
</svg>
