<svg width="78" height="97" viewBox="0 0 78 97" fill="none" xmlns="http://www.w3.org/2000/svg">
<path d="M39.5819 49.9925L38.7729 50.3944L37.8911 50.968L37.9106 52.2628L38.3768 52.7766L37.382 54.1083L36.8314 55.0432L35.3276 55.9195L33.6731 56.296L31.9719 57.1355L31.307 55.6384L29.8564 55.9679L28.4188 56.4067L27.3994 56.979L26.3384 57.1494L23.8515 57.0668L22.1503 54.8727L20.4724 54.378L19.3153 53.6314L19.0101 51.576L17.8596 49.9683L16.4882 48.3224L17.3557 46.4909L18.9803 46.5926L20.8387 47.7043L22.2165 47.2451L23.4437 46.5125L23.5411 45.2788L23.8762 44.1417L26.476 43.8975L27.8123 42.23L28.6279 40.5358L29.785 39.3224L31.594 38.8976L33.6796 39.0642L34.6744 40.7431L35.0575 43.0262L35.6626 44.6212L35.699 46.3713L35.1653 48.4L36.7535 48.3809L38.1132 47.9002L39.295 47.8836L39.7378 48.9253L39.5819 49.9925ZM75.9738 50.3129L75.1102 49.5892L73.731 49.4392L72.3168 48.9126L70.3637 48.6557L67.1041 46.8852L65.6366 46.2976L64.1795 45.3576L62.5796 45.116L61.0277 45.5968L59.7395 44.5296L59.8421 43.3696L60.4524 42.1499L60.6927 40.7381L60.7108 39.283L59.1758 39.7689L58.4876 38.8938L60.1771 36.9465L59.8953 35.6479L59.4278 34.3582L59.7641 33.3814L59.746 32.2112L59.6317 31.1047L62.5744 28.9755L63.7666 28.594L64.4314 27.5917L64.7314 24.6739L63.3588 22.6096L62.2329 22.3845L61.1602 21.8986L60.3511 19.7708L59.0693 19.7084L57.6954 19.7975L56.1981 18.7227L55.4851 16.8174L55.1916 13.4265L54.6345 11.7183L54.2449 11.3876L53.7891 11.4627L53.4839 11.7527L53.0995 11.8074L52.1112 11.1218L49.6906 11.9613L47.4673 11.4321L46.5686 10.8954L45.6518 10.0827L45.6219 8.72171L46.0713 7.43965L46.4011 6.95123L46.6349 6.48191L46.2505 6.16647L45.7596 6.05071L45.2921 6.14866L44.8843 6.45775L44.1181 7.43584L43.261 8.288L41.9429 8.50932L40.7806 7.73347L40.565 7.02883L40.4741 6.31528L40.0546 6.06217L39.6118 6.52135L39.4612 7.25651L39.4495 9.63242L38.695 10.7911L36.5678 9.8041L34.6199 8.07687L33.9368 7.37224L33.2173 7.46127L32.5771 6.54805L32.1758 5.35753L31.6485 4.73177L31.0187 4.23824L30.533 3.10371L29.6694 2.56443L27.6266 1.28998L26.4786 0.737999L25.7631 1.63212L24.9748 3.54634L23.7983 6.40431L22.8424 7.48797L20.6075 9.18852L19.5945 10.1984L14.6415 17.625L12.3351 19.4312L10.8391 19.9882L9.76773 20.104L9.06908 20.6039L8.76388 22.3196L9.16517 28.5062L9.16778 28.5049L10.0456 27.916L10.6171 27.8371L11.0508 28.3726L10.4417 29.5224L10.1781 30.9648L10.243 31.7851L10.2911 32.3995L10.8378 33.5251L11.0833 34.6012L10.7949 36.1249L9.82357 38.6725L13.1637 41.037L14.2545 42.1422L12.8533 42.0583L10.5976 41.1273L8.81841 39.6646L8.84181 37.9831L9.15867 37.0546L9.24307 35.6962L9.13011 34.3722L8.84181 33.5251L8.0691 33.0163L7.31331 33.1626L6.46399 33.5544L5.44585 33.7706L2.25121 32.6488L1.48109 32.7887L1.25513 33.7591L2.09017 39.6595L2.7135 41.9184L2.95246 43.3646L2.96546 44.3312L3.62775 44.9672L4.22644 45.9707L4.73939 46.8025L5.19132 47.862L5.47441 48.4916L8.11456 48.3988L11.0884 48.2957L14.5039 51.5149L14.4974 53.2053L15.1207 54.6082L16.057 55.2098L16.6077 56.0963L16.0622 57.8592L15.235 59.4249L14.474 59.9769L14.0428 60.2898L12.2144 60.8138L11.4508 61.5706L10.3275 63.1732L10.4599 63.9974L12.9832 65.8772L14.8 66.4407L15.8973 66.6544L16.5934 66.6938L17.2908 66.4763L18.1583 66.6302L18.5258 67.1746L19.3309 67.1453L19.8738 67.3018L20.3218 67.593L20.6763 68.0255L20.949 68.6093L19.6712 68.7924L18.7647 68.2544L17.9635 68.1438L16.9856 69.5785L16.6986 71.1073L16.4155 71.7789L15.8064 72.0129L15.2545 71.7433L14.9714 71.1455L14.9 70.3734L14.9714 69.5785L14.0805 70.0084L13.3208 69.7667L12.5507 69.2999L11.6313 69.0506L10.5027 69.3343L9.86123 69.3699L9.43657 69.0506L9.06908 69.3928L8.90415 69.506L8.64312 69.5785L9.11061 70.4663L9.4976 71.424L9.90409 72.1897L10.4183 72.5013L11.9702 72.2889L12.1547 72.5331L11.4521 73.4756L10.8664 73.7974L10.0599 74.067L9.35217 74.4766L9.04048 75.199L9.2249 76.172L9.76253 76.3374L11.4521 75.9545L10.5976 77.1387L10.243 77.7759L10.2197 78.4309L10.5976 78.796L11.2196 78.8163L11.8897 78.581L12.4234 78.1638L14.4896 75.9673L15.6077 75.1838L16.9856 74.4944L16.9817 75.3644L17.2778 75.9266L17.831 76.2445L18.5803 76.3959L19.7842 75.372L20.5906 74.9408L20.949 75.199L20.8594 76.518L20.5348 76.9937L18.9673 77.4109L17.4998 77.4338L16.5129 77.8039L15.5909 78.2389L14.7896 79.3174L14.1169 80.5257L14.2312 81.7455L14.0208 82.7045L14.2714 83.4117L14.2545 84.2181L16.9246 85.0054L18.0427 84.7243L19.1517 84.4992L19.6997 85.0372L20.2504 84.751L20.5205 83.5084L20.6244 82.3649L20.9347 81.2329L21.4399 80.5754L22.0957 80.8641L21.6711 82.7414L22.2477 84.1252L23.0398 85.3323L23.2853 86.6869L22.7853 86.3053L22.2191 86.1145L21.601 86.0789L20.949 86.1628L21.4971 86.5749L21.7373 86.6869V87.1295L18.266 87.5047L19.0478 89.4036L21.1049 91.3865L23.384 92.6915L25.3047 92.9548L26.654 92.5198L27.0734 92.0238L26.8903 89.8259L27.4137 89.0997L30.8824 88.1445L30.7304 88.9699L30.3486 89.2179L29.8343 89.2943L29.0266 89.7331L28.7305 89.7216L28.4188 89.7585L28.1071 90.046L28.211 90.1935L28.7487 90.7506L28.8617 91.0571L28.4656 92.7806L27.8383 93.4737L26.9656 93.8782L26.2254 94.4328L26.2436 94.4366L28.9448 94.9809L31.2161 94.9822L36.0341 92.9624L38.5391 94.0817L40.7806 95.9285L43.5181 96.291L46.1193 95.5431L48.5816 94.3793L50.5113 93.7447L51.0334 91.6536L51.9801 90.6476L53.4657 90.018L54.167 89.1276L54.6462 87.946L55.5448 87.0086L56.6773 87.2427L57.0071 87.6701L58.4629 86.6741L61.2316 81.6247L61.5134 81.0193L61.8485 80.4634L62.2978 80.1086L62.7653 79.7893L63.2328 79.1012L63.6406 78.3419L66.7859 72.6323L69.3637 66.4242L72.9349 58.9505L73.3791 57.3466L73.0427 55.7376L73.8038 54.4365L74.8764 53.1557L76.027 52.6876L76.6322 51.4132L75.9738 50.3129Z" fill="#C6C9FE" stroke="#ABA9A5" stroke-linecap="round" stroke-linejoin="round"/>
</svg>
