<svg width="106" height="112" viewBox="0 0 106 112" fill="none" xmlns="http://www.w3.org/2000/svg">
<path d="M56.6336 88.1708L55.7285 89.0866L55.2908 88.9594L54.7454 89.0077L54.7766 89.4669L54.6987 90.0596L54.1532 91.4599L54.1467 91.9128L53.974 92.5678L52.6793 93.3373L49.3288 92.4826L47.4535 92.2969L46.6263 92.9366L45.8004 94.3561L45.3562 94.7262L44.8238 94.295L44.1095 93.8422L43.0849 93.0282L42.3966 91.722L41.5512 90.908L40.6525 90.5646L40.3045 89.271L41.1071 88.1708L41.9759 88.1645L42.9122 88.0157L43.1576 87.353L43.2654 86.6535L42.7564 86.469L42.2044 86.38L42.8278 85.0025L43.8225 83.929L43.4576 80.7327L46.1835 78.5133L49.8742 78.0274L52.9364 77.8315L55.2622 79.5028L55.9986 80.762L55.9687 81.3165L55.6869 81.7833L55.7051 83.5564L56.1726 84.2444L56.796 84.7647L56.9154 85.8776L56.9453 87.063L56.6336 88.1708ZM104.063 74.6467L103.85 73.4409L102.894 72.6943L102.185 73.8581L98.5005 77.8124L97.0097 78.9572L95.8344 78.7587L94.9085 77.6496L94.0306 76.6843L92.8086 75.5726L92.8619 74.6123L93.828 73.8288L94.3994 73.647L95.0033 73.3608L95.4708 72.7426L95.6877 71.645L95.376 71.2507L94.9085 70.9302L94.48 69.0999L94.1449 66.7075L93.8332 66.3526L93.4463 66.0944L93.093 65.4533L92.8943 64.2998L93.1397 55.7894L93.4463 54.3954L94.1449 53.1986L95.937 51.072L96.2915 49.7771L96.65 43.7509L96.3344 40.8306L95.5409 37.9306L95.2435 35.1502L95.2293 35.032L94.6488 35.0078L92.7138 34.5728L90.8554 35.3792L86.84 33.9254L87.4816 32.2414L87.3024 30.6604L86.7933 28.9103L86.6374 26.9261L87.4102 25.0437L88.0335 23.2605L87.579 22.7327L87.0803 22.2684L87.314 20.6582L83.0662 20.3466L81.8195 19.6521L80.4897 19.0925L79.9442 17.7862L79.5183 16.2752L77.6067 15.3874L76.4145 13.6195L76.1574 11.3173L76.5756 9.55446L77.5651 8.82057L78.6495 8.42121L80.339 9.07623L81.7117 8.07016L81.1481 6.43194L79.3391 5.361L77.356 4.90693L75.7795 5.7235L74.264 6.09998L72.1238 5.13715L69.8525 4.76194L69.085 5.06973L68.45 4.99216L67.9591 4.3473L67.2514 4.0573L65.6047 5.31775L63.8671 5.98677L63.7346 4.74033L63.8787 3.50277L62.871 3.0118L61.7516 2.75996L60.936 1.35706L59.3543 1.23495L57.7777 1.95993L56.7245 3.22165L57.1076 4.97179L56.9206 6.60619L56.5791 8.12485L55.0999 7.98874L53.3689 7.62373L51.9351 7.03354L50.4508 6.26025L49.743 7.04882L48.9574 7.49398L48.2691 7.23324L47.7055 7.58556L46.3692 8.97446L44.8939 10.1828L43.9303 11.1011L42.7317 11.47L42.0135 12.0576L41.5031 12.9619L39.711 14.2084L38.4358 15.9967L37.8306 17.3322L37.093 18.6562L37.5007 19.3507L38.2682 20.0438L37.4111 22.8281L32.5568 24.8275L30.4894 24.161L29.6271 22.4478L28.2609 21.2878L27.296 20.6137L26.5415 19.7831L25.7857 20.5145L25.1805 21.4519L24.8922 22.5559L24.4857 23.7248L22.8144 23.5976L21.0223 22.9794L20.0873 22.388L19.0977 23.0125L18.1458 24.2717L16.9887 24.3683L16.0602 23.7654L15.3589 24.9305L14.6343 26.4797L14.2447 27.9322L15.3524 29.3351L16.1978 30.9263L12.0876 30.2865L9.87732 29.3453L8.61765 31.187L6.59178 32.1282L4.78925 33.3301L4.63862 34.1709L4.67499 34.831L4.35163 35.5535L3.04519 37.273L2.20627 38.1532L1.35565 38.3046L0.498535 38.6963L1.15176 40.3116L3.42308 40.6907L6.26192 44.734L5.20871 45.7427L4.63342 47.3567L4.39966 51.2017L4.05163 52.8971L4.41783 54.1118L5.05938 55.2247L4.22563 56.8489L2.94389 57.9364L3.29061 61.2828L5.62167 60.7448L7.02291 61.1937L8.66571 62.5382L9.79162 63.0622L12.7525 62.3652L14.0641 63.314L14.7239 66.9834L13.4902 66.9097L12.1006 66.6578L10.6968 67.8356L11.0201 69.7244L11.0318 70.6872L10.9072 71.8447L10.35 72.5073L9.89942 73.2921L9.41503 75.0931L8.51635 76.814L7.06058 77.2922L5.65284 77.9689L8.02546 81.941L7.75536 86.408L8.22155 87.9648L9.39683 88.6351L9.93705 89.0332L10.4695 89.4783L10.5176 90.0316L10.75 90.5976L11.2188 90.8075L11.6915 90.9626L13.4486 91.0962L14.2096 91.722L15.1485 92.3452L16.8147 92.4711L18.4575 92.4559L19.9548 92.9519L21.0573 94.1284L21.8313 95.5682L23.1131 96.4573L23.4365 97.111L23.6339 97.7126L24.5273 98.2545L25.3013 99.1461L25.2636 100.796L24.5689 102.372L25.4792 105.6L29.057 105.749L30.8076 105.506L32.4789 105.78L34.049 106.521L35.5346 107.613L37.1826 107.937L40.2876 106.376L41.8746 106.692L43.307 104.69L44.6433 103.677L45.1225 107.538L46.5847 109.288L48.4015 110.415L50.504 110.182L52.6741 109.802L54.5675 110.369L56.3765 111.304L58.5387 111.365L60.427 109.896L61.2594 109.593L62.0983 109.485L62.8957 108.81L63.5606 107.968L65.6592 107.123L67.8877 107.665L69.5954 108.455L71.2187 107.922L72.6147 106.814L74.1082 105.961L75.0003 105.939L75.3653 105.254L74.8094 104.351L74.4899 103.371L76.4431 101.886L78.8949 101.046L80.9026 100.749L82.8688 101.153L84.9115 102.017L85.444 102.877L85.4739 103.92L85.618 104.852L86.3375 105.358L87.3088 105.605L92.7008 104.65L97.2915 105.752L97.3422 105.738L96.8967 105.217L96.4136 103.97L96.9084 102.873L98.0421 100.676L99.581 96.1558L99.4966 93.551L101 89.3855L101.62 84.5878L101.78 82.7627L103.87 78.6875L104.776 77.2986L104.473 75.902L104.063 74.6467Z" fill="#C6C9FE" stroke="#ABA9A5" stroke-linecap="round" stroke-linejoin="round"/>
</svg>
