<svg width="98" height="76" viewBox="0 0 98 76" fill="none" xmlns="http://www.w3.org/2000/svg">
<path d="M96.8216 40.7023L95.1749 40.1313L93.91 38.9039L93.5204 36.9731L92.1906 35.9556L89.2063 34.3441L86.7013 31.5357L85.1974 30.4152L81.6261 29.8784L80.7574 28.1563L82.2067 25.2894L81.9612 22.5141L80.3379 23.047L78.6302 22.2572L76.4017 21.7154L74.3031 22.5599L73.6382 23.4019L72.8409 24.0773L72.0019 24.1854L71.1695 24.4881L69.2813 25.9571L67.119 25.8961L65.31 24.9613L63.4153 24.3927L61.2466 24.7743L59.1441 25.007L57.3273 23.8801L55.865 22.13L55.3858 18.2672L54.0495 19.2822L52.6171 21.2842L51.0302 20.9675L47.9251 22.5294L46.2771 22.205L44.7915 21.1125L43.2214 20.3722L41.5501 20.0975L39.7995 20.3404L36.2231 20.1916L35.3114 16.9635L36.0062 15.3876L36.0438 13.738L35.2698 12.8464L34.3764 12.3046L34.179 11.7029L33.8556 11.0492L32.5739 10.1588L31.8012 8.72031L30.6973 7.5438L29.2 7.04777L27.5572 7.06304L25.8924 6.93713L24.9521 6.31387L24.1911 5.68811L22.4341 5.55456L21.9614 5.39938L21.4925 5.18951L21.2601 4.62351L21.212 4.07025L20.6796 3.62508L20.1394 3.22696L18.9641 2.55666L18.4979 0.999863L16.3759 3.23078L15.8123 4.70365L12.9306 6.20451L11.5047 6.63439L10.7138 6.55173L10.1437 6.91039L9.05288 9.22401L7.80097 10.5073L6.47636 11.6597L5.82964 13.4925L5.66211 15.642L4.93099 17.2103L4.03231 18.8587L3.35572 20.9636L2.85703 23.1399L2.04928 24.759L1.98825 26.5155L3.47519 27.1311L3.69078 27.9019L3.79855 28.7833L4.4401 30.4254L4.3375 32.2098L4.93099 33.5262L5.76471 34.0719L5.41668 35.9823L2.996 38.8225L2.6116 40.6858L2.5285 42.4016L1.31166 43.6201L1 45.1375L2.19214 46.5162L2.77393 48.2956L3.01936 51.9879L3.80375 53.3692L5.23095 54.388L6.5257 55.7197L7.02828 57.1862L7.65164 58.4657L11.2644 62.3234L12.0436 64.2046L12.0372 65.493L12.1839 65.7995L12.1865 65.8008L12.7903 65.9611L13.6527 66.6606L14.0072 66.3338L14.4643 66.2829L15.0175 66.4202L15.6357 66.6606L17.1824 66.5245L18.3966 65.4587L19.0187 63.6946L19.1888 61.4598L19.8394 61.9533L20.2069 62.6338L20.816 64.2974L22.3159 63.3677L23.8873 63.4007L24.6093 62.9212L23.547 60.4664L24.9404 60.3482L25.8599 59.4171L26.6053 58.1757L27.5105 57.1112L27.4416 57.9608L27.1858 58.626L26.8884 59.1348L26.7196 59.5176L26.6248 60.3456L26.7196 65.4816L26.6248 65.9471L26.478 66.4685L26.4495 67.0129L26.7196 67.5675L27.2001 67.8244L28.5637 67.9389L29.3987 68.1284L30.0441 68.0127L30.3129 68.0813L30.3753 68.3484L30.3895 69.3634L30.5129 69.7386L31.5739 70.3186L34.2673 70.2003L35.4958 70.4026L35.4659 69.3761L35.5841 68.3141L35.9049 67.4772L36.4854 67.1338L37.8022 67.266L38.4437 67.6705L39.671 69.2871L41.0163 69.2031L41.9682 67.3996L42.9176 66.48L44.2331 69.0721L42.8981 69.5796L42.3033 69.9459L42.4215 70.5158L43.2513 71.6465L44.0019 71.9403L47.6017 72.3371L47.3134 72.8026L46.8382 72.8866L45.72 72.9018L45.6901 73.9601L47.4316 74.0745L48.729 73.6917L50.1925 71.822L50.999 70.4026L50.2159 69.5008L50.0367 70.1825L49.6354 70.7345L49.1263 70.9011L48.5939 70.4026L49.0276 67.5675L49.1017 66.1251L49.0848 65.6049L49.0276 65.245L48.6355 64.6523L48.1121 64.3534L47.842 64.0265L48.2342 63.3498L48.9835 63.6538L50.1159 63.7047L51.2496 63.519L51.9899 63.1133L52.4574 62.1912L52.3392 61.3949L51.9899 60.5008L51.7925 59.281L50.8107 59.3472L45.0266 62.3603V61.8897L45.6434 61.2614L45.7577 60.3087L46.0551 59.4311L48.3329 58.8206L50.3198 57.8387L51.3964 57.6275L50.725 56.7016L50.6873 56.2132L51.2107 55.9588L53.1327 55.5989L54.0106 55.6536L57.1377 56.7347L57.5337 57.0514L58.0909 57.6275L58.2844 58.074L58.3129 58.537L58.487 58.9033L59.1051 59.0445L60.2804 59.0406L60.7895 58.9096L61.2998 58.5751L60.8881 58.4683L60.1726 58.1643L59.7142 58.102L59.9882 57.1786L59.8466 56.535L58.8792 55.2555L58.3844 54.4198L58.1428 53.775L57.7324 51.9383L56.9961 50.4324L57.0104 49.6883L57.7324 48.5741L58.3974 47.9802L58.7376 48.1722L59.3168 49.9987L59.0921 50.5163L59.5726 51.9103L59.3168 52.8897L60.483 52.4331L61.2751 53.0627L61.9933 54.0802L62.9127 54.7861L62.9452 53.7126L63.366 53.0742L63.8607 52.8745L64.1023 53.125V56.1623L64.9945 55.4857L65.6879 55.5658L66.3191 56.7271L67.6684 57.3236L68.2488 57.0514L68.7774 55.1257L69.1644 55.8011L69.3839 57.0756L73.2018 57.0171L74.6382 57.1786L75.0485 55.5149L75.5511 54.4147L75.9368 54.4707L75.8823 55.7973L75.9381 57.2053L76.7394 57.1506L78.5094 54.0904L79.0354 53.3323L79.312 53.5753L79.7925 52.7129L80.6742 51.6394L81.5002 50.4044L82.1053 46.3L82.9326 45.2939L84.0352 44.5104L85.4013 43.9737L86.8688 44.0296L88.0077 44.7419L88.331 46.2669L89.3687 47.68L90.6932 48.7293L91.7413 50.0572L92.9101 51.2248L93.0243 51.4754L93.1282 51.2668L93.6853 50.1297L94.7165 48.9112L95.6385 46.9881L96.2956 45.6831L96.2761 45.2939L95.9489 44.3451L96.3398 43.774L96.6839 43.1088L96.7826 41.8267L97.0566 40.902L96.8216 40.7023Z" fill="#C6C9FE"/>
<path d="M48.3186 74.7792L47.3056 74.8428M96.8216 40.7023L95.1749 40.1313L93.91 38.9039L93.5204 36.9731L92.1906 35.9556L89.2063 34.3441L86.7013 31.5357L85.1974 30.4152L81.6261 29.8784L80.7574 28.1563L82.2067 25.2894L81.9612 22.5141L80.3379 23.047L78.6302 22.2572L76.4017 21.7154L74.3031 22.5599L73.6382 23.4019L72.8409 24.0773L72.0019 24.1854L71.1695 24.4881L69.2813 25.9571L67.119 25.8961L65.31 24.9613L63.4153 24.3927L61.2466 24.7743L59.1441 25.007L57.3273 23.8801L55.865 22.13L55.3858 18.2672L54.0495 19.2822L52.6171 21.2842L51.0302 20.9675L47.9251 22.5294L46.2771 22.205L44.7915 21.1125L43.2214 20.3722L41.5501 20.0975L39.7995 20.3404L36.2231 20.1916L35.3114 16.9635L36.0062 15.3876L36.0438 13.738L35.2698 12.8464L34.3764 12.3046L34.179 11.7029L33.8556 11.0492L32.5739 10.1588L31.8012 8.72031L30.6973 7.5438L29.2 7.04777L27.5572 7.06304L25.8924 6.93713L24.9521 6.31387L24.1911 5.68811L22.4341 5.55456L21.9614 5.39938L21.4925 5.18951L21.2601 4.62351L21.212 4.07025L20.6796 3.62508L20.1394 3.22696L18.9641 2.55666L18.4979 0.999863L16.3759 3.23078L15.8123 4.70365L12.9306 6.20451L11.5047 6.63439L10.7138 6.55173L10.1437 6.91039L9.05288 9.22401L7.80097 10.5073L6.47636 11.6597L5.82964 13.4925L5.66211 15.642L4.93099 17.2103L4.03231 18.8587L3.35572 20.9636L2.85703 23.1399L2.04928 24.759L1.98825 26.5155L3.47519 27.1311L3.69078 27.9019L3.79855 28.7833L4.4401 30.4254L4.3375 32.2098L4.93099 33.5262L5.76471 34.0719L5.41668 35.9823L2.996 38.8225L2.6116 40.6858L2.5285 42.4016L1.31166 43.6201L1 45.1375L2.19214 46.5162L2.77393 48.2956L3.01936 51.9879L3.80375 53.3692L5.23095 54.388L6.5257 55.7197L7.02828 57.1862L7.65164 58.4657L11.2644 62.3234L12.0436 64.2046L12.0372 65.493L12.1839 65.7995L12.1865 65.8008L12.7903 65.9611L13.6527 66.6606L14.0072 66.3338L14.4643 66.2829L15.0175 66.4202L15.6357 66.6606L17.1824 66.5245L18.3966 65.4587L19.0187 63.6946L19.1888 61.4598L19.8394 61.9533L20.2069 62.6338L20.816 64.2974L22.3159 63.3677L23.8873 63.4007L24.6093 62.9212L23.547 60.4664L24.9404 60.3482L25.8599 59.4171L26.6053 58.1757L27.5105 57.1112L27.4416 57.9608L27.1858 58.626L26.8884 59.1348L26.7196 59.5176L26.6248 60.3456L26.7196 65.4816L26.6248 65.9471L26.478 66.4685L26.4495 67.0129L26.7196 67.5675L27.2001 67.8244L28.5637 67.9389L29.3987 68.1284L30.0441 68.0127L30.3129 68.0813L30.3753 68.3484L30.3895 69.3634L30.5129 69.7386L31.5739 70.3186L34.2673 70.2003L35.4958 70.4026L35.4659 69.3761L35.5841 68.3141L35.9049 67.4772L36.4854 67.1338L37.8022 67.266L38.4437 67.6705L39.671 69.2871L41.0163 69.2031L41.9682 67.3996L42.9176 66.48L44.2331 69.0721L42.8981 69.5796L42.3033 69.9459L42.4215 70.5158L43.2513 71.6465L44.0019 71.9403L47.6017 72.3371L47.3134 72.8026L46.8382 72.8866L45.72 72.9018L45.6901 73.9601L47.4316 74.0745L48.729 73.6917L50.1925 71.822L50.999 70.4026L50.2159 69.5008L50.0367 70.1825L49.6354 70.7345L49.1263 70.9011L48.5939 70.4026L49.0276 67.5675L49.1017 66.1251L49.0848 65.6049L49.0276 65.245L48.6355 64.6523L48.1121 64.3534L47.842 64.0265L48.2342 63.3498L48.9835 63.6538L50.1159 63.7047L51.2496 63.519L51.9899 63.1133L52.4574 62.1912L52.3392 61.3949L51.9899 60.5008L51.7925 59.281L50.8107 59.3472L45.0266 62.3603V61.8897L45.6434 61.2614L45.7577 60.3087L46.0551 59.4311L48.3329 58.8206L50.3198 57.8387L51.3964 57.6275L50.725 56.7016L50.6873 56.2132L51.2107 55.9588L53.1327 55.5989L54.0106 55.6536L57.1377 56.7347L57.5337 57.0514L58.0909 57.6275L58.2844 58.074L58.3129 58.537L58.487 58.9033L59.1051 59.0445L60.2804 59.0406L60.7895 58.9096L61.2998 58.5751L60.8881 58.4683L60.1726 58.1643L59.7142 58.102L59.9882 57.1786L59.8466 56.535L58.8792 55.2555L58.3844 54.4198L58.1428 53.775L57.7324 51.9383L56.9961 50.4324L57.0104 49.6883L57.7324 48.5741L58.3974 47.9802L58.7376 48.1722L59.3168 49.9987L59.0921 50.5163L59.5726 51.9103L59.3168 52.8897L60.483 52.4331L61.2751 53.0627L61.9933 54.0802L62.9127 54.7861L62.9452 53.7126L63.366 53.0742L63.8607 52.8745L64.1023 53.125V56.1623L64.9945 55.4857L65.6879 55.5658L66.3191 56.7271L67.6684 57.3236L68.2488 57.0514L68.7774 55.1257L69.1644 55.8011L69.3839 57.0756L73.2018 57.0171L74.6382 57.1786L75.0485 55.5149L75.5511 54.4147L75.9368 54.4707L75.8823 55.7973L75.9381 57.2053L76.7394 57.1506L78.5094 54.0904L79.0354 53.3323L79.312 53.5753L79.7925 52.7129L80.6742 51.6394L81.5002 50.4044L82.1053 46.3L82.9326 45.2939L84.0352 44.5104L85.4013 43.9737L86.8688 44.0296L88.0077 44.7419L88.331 46.2669L89.3687 47.68L90.6932 48.7293L91.7413 50.0572L92.9101 51.2248L93.0243 51.4754L93.1282 51.2668L93.6853 50.1297L94.7165 48.9112L95.6385 46.9881L96.2956 45.6831L96.2761 45.2939L95.9489 44.3451L96.3398 43.774L96.6839 43.1088L96.7826 41.8267L97.0566 40.902L96.8216 40.7023Z" stroke="#ABA9A5" stroke-linecap="round" stroke-linejoin="round"/>
</svg>
