<svg width="14" height="16" viewBox="0 0 14 16" fill="none" xmlns="http://www.w3.org/2000/svg">
<path d="M12.3817 8.36342L11.4454 7.76182L10.8221 6.35893L10.8286 4.66857L7.41312 1.44938L4.43925 1.55241L1.7991 1.64525L1.516 3.37757L1.64327 4.68764L1.95366 5.40246L3.1471 5.27527L3.35747 4.65202L4.13925 4.86063L4.01589 5.45587L3.5185 5.70643L1.85626 6.19867L1.29004 7.15894L1.47964 8.18537L1.34587 9.49162L2.29909 9.98637L3.3367 10.5397L3.81979 11.3422L3.05101 12.4768L2.45362 13.7754L3.91849 14.873L5.33399 13.1013L8.37284 13.4828L8.53907 13.9674L10.3675 13.4434L10.7987 13.1305L11.5597 12.5785L12.3869 11.0128L12.9323 9.24997L12.3817 8.36342Z" fill="#C6C9FE"/>
<path d="M12.3817 8.36342L11.4454 7.76182L10.8221 6.35893L10.8286 4.66857L7.41312 1.44938L4.43925 1.55241L1.7991 1.64525L1.516 3.37757L1.64327 4.68764L1.95366 5.40246L3.1471 5.27527L3.35747 4.65202L4.13925 4.86063L4.01589 5.45587L3.5185 5.70643L1.85626 6.19867L1.29004 7.15894L1.47964 8.18537L1.34587 9.49162L2.29909 9.98637L3.3367 10.5397L3.81979 11.3422L3.05101 12.4768L2.45362 13.7754L3.91849 14.873L5.33399 13.1013L8.37284 13.4828L8.53907 13.9674L10.3675 13.4434L10.7987 13.1305L11.5597 12.5785L12.3869 11.0128L12.9323 9.24997L12.3817 8.36342Z" stroke="#D3D0CB" stroke-linecap="round" stroke-linejoin="round"/>
<path d="M12.3817 8.36342L11.4454 7.76182L10.8221 6.35893L10.8286 4.66857L7.41312 1.44938L4.43925 1.55241L1.7991 1.64525L1.516 3.37757L1.64327 4.68764L1.95366 5.40246L3.1471 5.27527L3.35747 4.65202L4.13925 4.86063L4.01589 5.45587L3.5185 5.70643L1.85626 6.19867L1.29004 7.15894L1.47964 8.18537L1.34587 9.49162L2.29909 9.98637L3.3367 10.5397L3.81979 11.3422L3.05101 12.4768L2.45362 13.7754L3.91849 14.873L5.33399 13.1013L8.37284 13.4828L8.53907 13.9674L10.3675 13.4434L10.7987 13.1305L11.5597 12.5785L12.3869 11.0128L12.9323 9.24997L12.3817 8.36342Z" stroke="black" stroke-opacity="0.2" stroke-linecap="round" stroke-linejoin="round"/>
</svg>
