<svg width="48" height="27" viewBox="0 0 48 27" fill="none" xmlns="http://www.w3.org/2000/svg">
<path d="M46.4534 6.92431L46.8923 7.80828L46.6235 8.11099L46.0612 8.27126L45.6599 8.74185L45.6885 9.13741L46.0573 9.76574V10.1346L45.8586 10.5009L45.3625 11.1407L45.2638 11.3391L44.2184 12.5245L42.2484 14.066L41.6367 15.3519L40.7653 16.8528L40.7238 17.4531L40.338 18.3384L38.9082 18.5012L38.3563 18.7861L36.8343 18.6551L34.6098 20.376L28.7503 21.4316L26.7906 23.066L24.3908 23.5888L21.8207 23.3357L18.8845 23.8724L16.443 23.1538L10.9342 23.2301L9.21611 24.02L8.1915 25.7955L7.25775 25.9863L6.32403 25.5475L5.00332 23.4514L3.24496 22.8651L1.53852 21.1124L0.945068 18.9794L1.97748 16.2143L2.95536 14.4998L3.55922 13.8969L5.57341 12.7255L7.29541 9.79372L8.87715 9.39561L9.6083 7.84644L12.3212 6.92812L18.2365 5.26575L19.7182 4.0142L25.3699 3.4342L29.2178 1.78837L30.1398 2.04402L34.8253 1.30249L37.5421 1.08118L39.3394 1.3788L40.0264 2.39125L40.8809 3.04501L43.6782 4.13502L44.5275 4.98084L45.0989 7.01843L45.6599 7.81718L45.93 7.50684L46.2975 7.21049L46.4534 6.92431Z" fill="#C6C9FE" stroke="#ABA9A5" stroke-linecap="round" stroke-linejoin="round"/>
</svg>
