<svg width="89" height="61" viewBox="0 0 89 61" fill="none" xmlns="http://www.w3.org/2000/svg">
<path d="M85.3521 9.34112L84.6079 10.1068L83.8651 10.7746L83.0145 10.3218L82.1691 9.53191L80.0302 10.4782L78.1654 11.5975L77.2382 11.3367L76.6979 10.6741L74.1032 9.83842L73.2345 8.82727L72.2514 8.26L71.8748 8.75475L71.4073 8.86797L70.8553 8.37318L70.358 7.78686L68.9866 9.13633L67.5776 10.3497L65.8582 10.8178L64.1504 10.8954L62.8986 11.1968L59.5429 10.7644L59.3026 10.2009L59.7104 9.39962L59.3624 8.6988L58.6195 8.51438L56.6963 7.56552L54.0886 2.95996L52.238 1.34847L51.2666 2.32273L50.4874 3.51197L49.2706 3.75999L48.4512 4.11868L47.6123 4.40485L44.4176 5.01537L42.7943 5.63223L41.0801 5.94638L39.8464 4.06272L40.3606 0.960537L38.2218 0.540798L32.2182 2.39779L28.9573 3.08333L26.1834 3.38224L23.5731 6.53657H23.5744L26.9717 5.50759L26.8678 6.52256L25.7223 7.32769L23.0082 8.38847L20.8706 9.97962L19.6538 10.5901L18.659 10.3052L17.724 10.8559L14.8333 11.0238L11.9762 11.3711L6.72061 11.9269L6.97127 14.0433L9.52309 13.6503L11.2529 14.2316L11.7879 14.6907L11.9632 16.3518L11.9892 17.5576L14.7618 17.7738L17.5682 17.9532L18.998 17.8845L23.2588 16.1954L23.4432 16.053L24.1276 16.301L24.7445 16.8288L25.0471 17.3427L24.7925 17.5703L23.9951 17.7052L23.716 18.0613L23.5848 18.5777L23.2303 19.2085L22.7069 19.4756L21.9991 19.5316L18.7616 19.3268L18.2344 19.4464L17.7526 19.8356L17.2708 20.4855L17.1149 21.0884L17.6539 21.3568L18.6772 22.1085L19.9369 22.9505L21.0446 23.4898L21.5784 23.8726L22.3524 24.4768L22.268 25.301L22.0693 26.0921L21.829 26.6619L21.2109 25.6138L20.2862 25.3849L18.9954 24.4094L16.9604 24.1626L14.8813 24.3686L14.5307 24.6676L13.8722 25.0758L12.9814 25.5947L12.7346 27.6845L11.1126 29.904L8.97897 31.0576L7.23877 32.0522L6.14142 33.2847L4.95578 34.432L3.5987 35.0946L3.55064 35.8463L3.37661 37.7249L6.24272 39.4763L14.4683 38.1586L15.3462 38.6534L15.8838 39.8375L16.6397 42.4449L15.8605 42.1893L14.7995 40.9021L13.7644 39.765L12.61 40.055L11.7931 41.2099L10.9425 41.8789L9.09973 41.9769L6.94528 42.4106L5.05448 43.0758L3.72987 44.9455L2.1585 48.5437L1.16375 50.5826L0.737793 52.2297L1.02089 52.9725L1.82084 53.8641L1.83124 53.8615L3.02988 53.4825L8.66211 51.941L10.3334 52.3823L9.99838 54.9299L9.62699 56.8034L9.54256 58.691L10.9867 59.1667L12.7126 58.7431L14.5527 58.0881L16.4942 57.8032L17.2734 57.2384L18.1123 56.7386L19.1058 56.4549L20.0525 56.0072L20.82 55.3548L21.3057 54.3678L21.1914 53.6568L21.1498 52.9127L21.881 52.3861L22.4147 51.5937L22.3602 50.65L22.3666 49.7075L23.8224 48.4254L25.7873 48.6149L26.7535 47.4918L27.808 47.5656L28.8196 47.9866L30.5936 49.4111L33.3142 53.0259L35.1063 53.0043L35.244 52.0109L35.6154 51.0888L36.1842 50.5521L36.6037 49.836L38.3114 49.7444L39.4801 51.4894L38.9646 53.5003L39.3178 54.7913L40.4996 56.0988L40.4217 58.401L41.8177 59.8586L43.9748 60.1727L45.6409 59.1946L47.3902 58.911L48.594 58.9275L49.6135 58.6719L50.4939 59.3383L51.4835 59.9056L53.6159 59.9425L55.7197 59.6665L57.643 59.6512L59.4585 59.4032L61.148 57.62L63.2518 56.4702L66.9607 57.7866L70.2684 60.4004L71.4852 59.1819L71.5683 57.4661L71.9527 55.6028L74.3734 52.7626L74.7214 50.8522L73.8877 50.3066L73.2942 48.9902L73.3968 47.2057L72.7552 45.5636L72.6475 44.6822L72.4319 43.9114L70.9449 43.2958L71.006 41.5393L71.8137 39.9202L72.3124 37.744L72.989 35.639L73.8877 33.9906L74.6188 32.4223L74.7863 30.2728L75.4331 28.44L76.7577 27.2877L78.0096 26.0043L79.1004 23.6907L79.6705 23.3321L80.4614 23.4147L81.8873 22.9848L84.769 21.484L85.3326 20.0111L87.4546 17.7802L87.7247 13.3133L85.3521 9.34112Z" fill="#C6C9FE" stroke="#ABA9A5" stroke-linecap="round" stroke-linejoin="round"/>
</svg>
