<svg width="91" height="83" viewBox="0 0 91 83" fill="none" xmlns="http://www.w3.org/2000/svg">
<path d="M41.8349 23.0658L38.2571 22.5062L35.0988 20.6492L33.5119 17.2291L34.7638 16.0678L36.8429 16.6096L38.3649 16.2701L39.9532 15.802L42.9439 16.9035L44.1179 20.0819L41.8349 23.0658ZM90.3054 36.1423L90.3119 34.8538L89.5327 32.9727L85.9199 29.115L85.2965 27.8355L84.7939 26.3689L83.4992 25.0373L82.072 24.0185L81.2876 22.6372L81.0422 18.9449L80.4604 17.1655L79.2682 15.7867L79.5799 14.2693L76.2723 11.6556L72.5633 10.3391L70.4595 11.489L68.77 13.2722L66.9545 13.5202L65.0312 13.5355L62.9274 13.8114L60.7951 13.7746L59.8055 13.2073L58.925 12.5408L57.9056 12.7965L56.7017 12.78L54.9525 13.0636L53.2863 14.0417L51.1293 13.7275L49.7332 12.2699L49.8111 9.96776L48.6294 8.66023L48.2761 7.36927L48.7917 5.35838L47.6229 3.61333L45.9152 3.70491L45.4958 4.42101L44.9269 4.95775L44.5556 5.87988L44.4179 6.87321L42.6257 6.89486L39.9051 3.28008L38.1312 1.85555L37.1195 1.43459L36.065 1.36079L35.0988 2.4839L33.134 2.29436L31.6782 3.57644L31.6717 4.51894L31.7263 5.46269L31.1925 6.25508L30.4614 6.78163L30.5029 7.52571L30.6172 8.23672L30.1315 9.22372L29.364 9.87618L28.4173 10.3239L27.4239 10.6075L26.5849 11.1074L25.8057 11.6721L23.8643 11.957L22.0241 12.6121L20.2982 13.0356L18.8541 12.5599L18.9385 10.6724L19.3099 8.79889L19.645 6.25126L17.9737 5.80991L12.3414 7.35145L11.1428 7.73051L11.1324 7.73302L12.244 8.97185L12.3856 9.48188L11.8661 9.51495L10.8428 9.20971L9.99218 8.12733L9.65325 7.78264L8.37928 9.68922L7.87542 10.7602L7.67672 11.8438L7.77542 12.3246L7.95982 12.7647L8.05331 13.22L7.85592 13.7466L7.47803 14.1485L7.1053 14.4309L6.76637 14.7984L6.48328 15.4268L6.9352 15.5145L7.14816 15.6532L7.33256 15.8121L7.67672 15.9432L6.62481 16.1937L5.42096 16.2599L4.35998 16.499L3.71326 17.2825L5.36384 17.2634L6.13392 17.1413L6.87934 16.8539L6.76637 17.8141L7.06376 18.3661L7.67672 18.791L7.54946 19.4333L7.27543 19.8085L7.00661 20.0934L6.87934 20.433L7.31699 21.4365L9.21949 23.6166L9.81428 25.1759L10.1961 25.5562L10.6584 25.8119L11.7492 26.0789L12.0311 26.5229L12.0596 27.7604L11.909 28.8606L10.4467 32.1091L9.82855 31.4845L9.41298 30.7774L9.31819 30.0155L9.65325 29.2244L9.21429 28.9802L8.23771 28.9446L7.67672 28.7512L6.98324 28.3442L6.77027 28.1191L6.71441 27.7248L6.48328 26.8116L6.30405 26.692L6.03522 26.7912H5.80276L5.68979 26.3791L5.76122 25.9772L6.01966 25.3285L6.17548 24.0452L6.10016 23.3787L5.68979 22.5876L5.22357 24.1749L4.81191 24.9724L4.07689 25.4354L3.61327 24.3364L2.56135 23.8073L1.37701 23.9638L0.541992 24.9152L0.749754 26.0688L2.2406 28.011L1.69777 28.7512L2.51982 29.8069L3.34054 29.7789L3.74053 28.8873L3.28341 27.328L4.39245 27.7006L5.4119 28.6164L7.06376 30.8588L7.49229 32.3126L5.87419 33.8885L6.04822 35.3778L4.60025 35.0764L3.94963 35.0421L3.28341 35.3778L3.5665 36.0036L3.92623 36.52L4.35998 36.9512L4.86904 37.3099L4.62881 37.4116L4.07689 37.783L4.80281 38.2536L5.81706 38.5779L6.86507 38.508L7.67672 37.783L7.65722 37.1344L7.37413 36.3394L7.28973 35.664L7.85592 35.3778L8.29487 35.2227L8.60653 34.878L8.99223 34.5498L9.65325 34.4316L11.1012 34.7699L10.7623 35.3778L9.66752 36.1143L8.86106 36.8405L8.7468 37.9802L9.09223 39.336L9.72468 40.4934L10.4467 41.0518L9.69612 41.6992L9.49742 42.2092L9.65325 43.2433L9.62989 43.78L9.52989 44.2519L9.28963 44.7518L8.86106 45.3877L7.67672 46.5477L7.26116 47.2345L7.45983 47.9684L8.06892 48.2724L9.31819 47.8667L10.113 47.8807L10.2104 47.1671L10.7013 46.9394L12.244 47.2765L13.0089 47.0425L13.518 46.6037L14.0466 46.3734L14.8335 46.7665L14.5933 47.1328L14.2816 47.854L14.0466 48.2228L14.4089 48.4925V48.6527L15.5608 48.551L16.1646 47.7471L16.8153 45.3877L17.51 44.0255L17.6087 43.9327L17.523 43.3069L17.1412 42.1418L17.2126 41.5669L17.849 40.7058L18.7126 40.3077L19.5099 40.5456L19.9774 41.5669L19.958 42.2856L19.7034 42.7078L19.397 43.0449L19.1853 43.5028V44.2227L19.3359 44.6958L19.4112 45.1524L19.1853 45.8215L22.1942 45.5569L23.5111 45.7934L24.3746 46.7665L23.7708 46.7372L23.289 46.8352L22.3929 47.2765L22.8033 48.1541L21.4449 48.0562L18.7879 47.2765L17.3685 47.6225L16.6737 48.5115L16.5607 49.7262L16.8153 51.0566L16.5465 50.9561L16.3919 50.834L16.2491 50.6941L16.0231 50.5427L15.1309 50.7119L12.4804 48.7964L10.2766 49.7618L8.5481 49.4972L7.73645 49.8229L6.90661 50.8416L7.08323 51.498L8.42344 51.9317L9.88441 51.5437L11.0675 52.2967L12.7817 52.1873L14.2258 52.471L15.2777 52.9606L17.175 55.3429L18.4295 56.2422L18.0048 56.7573L19.7463 58.2568L20.7371 58.8724L21.9592 59.0747L20.7462 59.3787L19.0749 58.8559L17.6918 58.1157L16.6204 57.5102L15.8984 57.6641L17.1126 59.2375L16.862 59.5415L16.2478 59.1472L15.44 58.5761L14.8115 57.9796L13.7712 57.5751L13.0154 57.0918L12.6635 56.625L12.0596 56.2422L11.9233 55.8262L11.9466 55.5604L11.9324 55.2819L12.0856 54.3839L11.77 53.8319L9.34029 53.3117L7.75332 53.4656L8.08708 54.6726L7.64686 55.6545L7.82605 57.3792L8.18968 58.6689L8.79093 58.6155L9.16106 57.6387L9.92725 57.5013L9.72208 59.0874L10.4597 59.8111L11.022 60.6722L12.2155 60.9266L12.5596 61.0957L13.2102 61.0003L12.7388 62.1985L12.0739 62.2582L10.8428 61.4239L7.96892 60.952L7.24686 60.5285L6.04822 57.2292L5.85992 56.4698L5.76122 55.7652L5.93135 55.0733L6.48328 54.361L4.71321 51.7625L4.33142 50.9383L3.99116 50.7119L3.53923 50.5847L3.10421 50.5427L2.63278 50.7679L2.54838 51.3072L2.59512 51.9482L2.53279 52.471L1.92503 54.0087L1.41984 56.2205L1.51984 58.2085L2.72239 59.0747L4.27429 59.8213L4.51582 60.5285L4.09506 60.8592L3.51457 60.8503L3.28341 60.5285L3.05744 60.91L2.82108 61.0029L2.72239 61.2026L2.91978 61.8958L3.07174 61.9657L4.27429 63.0939L4.64308 63.2338L5.1093 63.141L5.52096 62.9095L5.68979 62.6449L5.86512 62.201L6.21445 62.5355L6.50145 63.0914L6.48328 63.3101L7.85982 63.974L8.35591 64.6087L8.46497 65.7026L9.31819 65.3719L9.99738 65.2536L11.2389 65.232L11.8051 65.3274L12.2999 65.3439L12.8142 65.232L13.0128 64.6087L13.2531 64.1369L13.6076 63.8227L13.9985 63.8341L14.7491 64.2882L15.2309 64.2946L15.5984 64.0504L16.1218 63.4106L16.3815 63.3101L17.0893 63.6942L17.0711 64.3404L16.5049 65.0755L15.5893 65.7026L16.1361 65.887L16.5893 66.1744L16.9477 66.584L17.2126 67.1157L15.7686 67.15L14.2258 67.4413L13.07 68.2769L12.8142 69.9393L13.744 69.6378L13.8479 70.0906L13.631 70.9403L13.6076 71.8217L13.4751 71.9196L13.305 72.2592L13.3907 72.6319L14.0128 72.8011L14.8764 72.9015L15.301 73.0465L15.5893 73.2704L15.8101 73.9737L15.6556 74.6758L14.8335 76.1385L14.5842 76.3064L14.3245 76.2225L14.1271 76.2594L14.0128 77.3418L13.9141 77.6165L13.6076 78.0146V78.4419L15.1218 78.3669L15.853 78.5094L16.3815 78.9545L16.4906 79.7355L15.9426 81.389L16.0231 82.2004L16.6932 82.334L19.3632 81.4716L20.78 81.7693V80.9743L20.8969 80.3078L22.3072 75.6628L22.5397 75.2164L23.1864 74.6822L24.9032 74.2561L25.3564 73.9572L25.6538 73.2767L25.6629 72.7642L25.8187 72.4475L26.5823 72.3356L26.8655 72.4106L27.4044 72.7298L27.7576 72.8011L27.9459 72.6497L28.0121 72.3127L27.955 71.9756L27.7576 71.8217L26.894 71.4872L27.729 70.7329L29.9523 69.4687L28.655 67.8508L28.4225 67.0101L30.2108 66.4237L30.1926 65.8425L29.8238 65.0132L29.5887 64.0593L29.7822 63.4017L30.2679 62.6551L30.9003 62.0713L31.5276 61.8958L32.1886 62.3804L32.5704 63.3101L32.6405 64.3709L32.3197 65.232L32.5418 66.584L32.3015 70.0741L32.7548 71.3931L33.2639 71.6971L35.491 72.3356L37.1143 73.4701L37.8636 73.7029L37.539 72.8977L37.5104 72.1588L37.7506 71.4834L38.261 70.8805L39.8038 71.6373L40.3466 71.1641L40.2415 68.3163L43.4413 65.232L43.0076 64.334L43.2764 63.5988L43.814 62.982L44.1958 62.4147L44.3049 61.6096L44.2763 60.8477L44.3763 60.2779L44.814 60.0566L45.5217 59.8747L46.258 59.4537L47.4048 58.5965L49.528 57.3805L49.9955 56.9926L51.0423 55.6367L51.6799 55.0631L52.363 54.8265L53.8175 55.1216L54.5239 55.1585L55.3602 54.8265L56.1719 53.8535L57.342 50.9052L58.1627 49.6397L59.5925 51.9037L60.6392 52.761L61.9041 52.2357L63.0041 51.3949L63.4144 51.9508L63.7248 53.1819L64.5326 54.361L64.0793 55.0796L63.2872 56.7484L62.9093 57.2292L62.0132 57.5586L61.347 57.3449L60.8522 56.714L60.5029 55.8123L60.8093 55.1559L60.7106 54.6154L60.3132 54.1944L59.7107 53.8828L58.0406 55.6952L57.729 56.2422L57.7796 57.2889L58.125 57.8219L58.5731 58.2772L58.912 59.0747L58.9315 61.1123L58.0822 62.2633L56.6615 62.7708L54.9628 62.8802L55.8135 60.8655L56.0953 59.7475L56.1524 58.5965L55.307 59.0009L54.8927 59.5122L54.1707 61.0003L53.0006 62.519L52.5851 62.8802L51.2981 63.6294L50.9293 64.2195L51.0007 65.232L51.5383 66.2215L52.3162 66.6222L53.2266 66.7964L54.1707 67.1157L54.0058 66.8409L53.7746 66.135L56.0719 64.9572L56.7381 64.8084L58.912 67.1157L59.7289 68.7615L62.0976 71.8306L63.7014 71.8217L62.9612 71.0318L62.7859 69.8312L64.4559 68.5885L65.5195 69.0655L66.4961 67.7058L69.2453 65.232L68.0402 64.2246L65.8364 64.7881L65.3455 64.4688L64.5326 64.2946L63.8391 62.8637L63.7014 62.6449L64.0365 62.1171L64.8299 61.5612L65.7637 61.1403L66.5143 61.0003L67.3636 61.2687L69.9998 62.8802L70.718 62.7034L71.8504 62.7568L72.4478 62.2595L72.9776 61.7393L72.814 60.3021L72.4919 59.5376L69.9998 58.5965L70.4349 58.5011L71.4543 58.5074L72.0491 58.5965L70.8076 56.8501L68.996 55.7092L67.3207 54.2364L66.5143 51.4878L66.674 51.3021L66.9857 51.2232L67.1077 50.9816L66.6974 50.3227L66.1182 50.0785L65.0273 50.5097L64.5326 50.1116L64.7442 49.1704L65.9909 48.4835L68.4531 47.7128V47.2765L67.222 46.9216L65.726 46.2806L64.9611 45.6637L65.9052 45.3877L68.4103 45.45L69.5622 45.3102L71.5387 44.6259L71.8361 44.5915L72.0335 44.4567L72.4166 43.9327L73.4075 41.4652L73.6049 41.3113L73.7321 41.0238L74.0022 41.1116L74.2711 41.4143L74.3983 41.8035L74.3412 42.1584L74.0866 42.8338L74.0347 43.2433L74.1866 43.9187L75.0632 45.7324L74.8944 45.997L74.7944 46.4129L74.823 46.7665L75.1061 47.0654L75.445 47.1162L75.771 47.1239L76.0112 47.2765L76.932 49.2263L77.3995 49.875L77.6683 51.0426L77.1203 52.4035L76.3658 53.8434L76.0112 55.3048L76.2956 56.8501L76.9605 57.8702L77.9942 58.4286L79.3812 58.5965L80.3292 59.5733L80.9292 59.8989L81.1928 59.3265L80.7681 56.2422L80.4279 55.2717L79.976 54.361L80.263 54.2872L80.3435 54.1613L80.4279 54.141L80.7681 54.361L81.8291 52.0779L83.1226 52.3476L84.7368 53.14L86.7743 52.471L87.2562 51.6735L87.9211 48.2228L88.4964 46.2666L88.6847 45.2987L88.7509 43.9327L87.6614 44.5037L86.6705 44.4427L85.6095 44.2392L84.3641 44.4033L82.5655 46.058L81.8434 46.5019L81.2343 46.2157L80.5837 45.3877L79.6643 44.8077L78.6345 43.429L77.7384 41.8455L77.2008 40.6206L77.1345 39.4632L77.4462 38.0756L78.0787 37.1916L78.9838 37.5464L80.0786 39.7328L80.9526 40.468L82.1694 39.9364L84.3641 38.2167L84.9017 37.6088L85.1329 37.1712L85.5524 35.8942L85.4251 35.5305L85.3264 34.7025L85.4809 34.1683L86.1471 34.6872L86.4874 35.3575L86.6276 35.8853L86.9393 36.2389L87.7224 36.3674L90.0729 36.3458L90.4521 36.4488L90.3054 36.1423Z" fill="#C6C9FE" stroke="#ABA9A5" stroke-linecap="round" stroke-linejoin="round"/>
</svg>
