<svg width="26" height="21" viewBox="0 0 26 21" fill="none" xmlns="http://www.w3.org/2000/svg">
<path d="M20.9203 11.4735L20.2692 11.4816L20.4295 10.8505L20.9828 8.67111L20.947 6.88553L20.3295 5.19904L20.3131 5.15419L20.3054 5.10705L19.9108 2.6702L19.0241 1.11952L17.1397 0.963528L15.4325 1.37866L14.3534 2.55251L13.5152 4.35673L13.4916 4.40759L13.4573 4.45196L12.0302 6.29709L11.8981 6.46792L11.6832 6.48884L9.24558 6.72611L8.99385 7.60796L8.89504 8.92237L8.87596 9.17621L8.65948 9.31011L7.34892 10.1208L7.30164 10.15L7.24909 10.1682L5.77763 10.6763L5.553 10.7539L5.35101 10.6287L3.4727 9.4644L2.2064 9.38224L1.55155 10.8148L2.82267 12.3956L2.83408 12.4098L2.84443 12.4247L4.07316 14.2038L4.14 14.3005L4.15669 14.417L4.45098 16.4706L5.43995 17.1319L7.16126 17.6578L7.31757 17.7056L7.41549 17.8364L9.08864 20.0723L11.455 20.1538L12.4484 19.9885L13.458 19.4012L13.5059 19.3733L13.5587 19.3566L15.0939 18.8711L15.1118 18.8654L15.1301 18.8611L16.6793 18.4965L17.088 18.4004L17.2534 18.7863L17.7526 19.951L19.093 19.2657L19.1469 19.2381L19.2059 19.2242L20.8963 18.8257L22.3232 17.964L22.8467 17.043L22.8601 17.0196L22.8758 16.9977L23.7056 15.8467L23.4697 15.5773L23.3486 15.439L23.3459 15.2552L23.3251 13.8224L23.3212 13.5518L23.5456 13.4005L24.4873 12.7658L24.5117 12.7493L24.5379 12.7358L25.1718 12.4096L25.2831 11.6195L24.99 10.907L24.1545 10.9191L22.7822 11.4219L22.7019 11.4513L22.6164 11.4524L20.9203 11.4735Z" fill="#C6C9FE" stroke="#ABA9A5"/>
</svg>
