<svg width="30" height="27" viewBox="0 0 30 27" fill="none" xmlns="http://www.w3.org/2000/svg">
<path d="M18.3094 5.60526L23.7013 4.65006L28.2921 5.75279L28.3427 5.73879L28.4323 5.8431L28.8193 6.51466L28.5998 8.03585L28.4764 9.83813L28.0843 12.546L27.4947 13.6933L26.5415 14.9538L25.6649 15.418L25.2818 14.1893L24.9416 12.5893L24.1923 11.3886L23.3857 11.1838L22.904 12.546L23.6961 12.7254L24.1675 13.313L24.3948 14.1728L24.4468 15.1636L24.1923 16.0997L23.5975 16.3172L22.9326 16.377L22.4702 16.8311L22.5546 17.3309L22.63 18.627L22.865 19.9625L22.3248 20.8198L21.8339 21.677L22.3183 22.3448L22.704 22.7276L22.6261 23.6739L21.4327 24.058L20.3106 24.7219L18.699 26.2864L17.3367 26.2368L17.3146 26.3105L17.0796 26.1109L15.4329 25.5398L14.168 24.3124L13.7784 22.3817L12.4486 21.3641L9.46435 19.7526L6.95927 16.9443L5.45543 15.8237L1.88416 15.287L1.01538 13.5648L2.46469 10.6979L2.21922 7.92267L3.61526 6.81482L5.1087 5.96137L6.00088 5.93976L6.36581 5.25422L5.80996 4.35116L5.49049 3.3718L7.44492 1.88619L9.89548 1.04675L11.9032 0.749117L13.8693 1.1536L15.9121 2.0172L16.4445 2.87701L16.4744 3.91999L16.6199 4.85228L17.3393 5.35849L18.3094 5.60526Z" fill="#C6C9FE" stroke="#ABA9A5" stroke-linecap="round" stroke-linejoin="round"/>
</svg>
